<svg xmlns="http://www.w3.org/2000/svg" viewBox="0 0 1101.83 1628.1"><defs><style>.cls-1{fill:#fff;}.cls-2{fill:#ccc;}.cls-3{fill:#be8dce;}.cls-4{fill:#1a1a1a;}.cls-5{fill:#e1e2af;}.cls-6{fill:#fcfcfc;}.cls-7{fill:#e4a9f6;}.cls-8{fill:#f3caff;}.cls-9{fill:#d9afe2;}.cls-10{fill:#d8d8d8;}.cls-11{fill:#9664ad;}.cls-12{fill:#be96cc;}.cls-13{fill:#9552af;}.cls-14{fill:#da98e5;}.cls-15{fill:#be78d1;}</style></defs><g id="Layer_2" data-name="Layer 2"><g id="Layer_1-2" data-name="Layer 1"><path class="cls-1" d="M550.89,849.09H550l-.67.08-.66.09-.65.14-.59.13h-.09l-.2.09a8.69,8.69,0,0,0-.86.29l-.62.25-.61.27-.59.32-.57.32-.55.37c-.19.12-.37.26-.55.39l-.51.42-.5.44-.47.47c-.15.16-.31.32-.45.49l-.43.51-.4.54c-.13.18-.25.36-.37.55s-.24.37-.35.57-.21.39-.31.59-.19.39-.28.6-.18.41-.26.62-.15.41-.22.62-.14.43-.2.64-.11.42-.16.64-.09.43-.12.65-.07.44-.1.66-.06.45-.09.67v1.57c0,.07,0,.14,0,.21q0,.33.09.66c0,.22,0,.44.09.67s.09.43.14.65l.12.6V866l.09.19q.14.45.3.87c.07.21.16.42.24.62l.27.61.31.59.33.57c.12.19.24.38.37.56s.25.37.37.55l.42.51.45.5c.15.16.31.31.47.47l.48.45c.17.15.34.29.52.42s.35.28.54.41l.55.37.56.35a6.54,6.54,0,0,0,.59.3l.6.3.62.25.63.23.64.19.65.16.64.13.66.1.66.09h1.79l.68-.09c.21,0,.44,0,.65-.09l.65-.14.6-.13h.08l.2-.09c.3-.09.59-.18.88-.29l.61-.25c.21-.08.41-.18.61-.27s.4-.2.59-.31l.58-.33.56-.37L559,873c.18-.13.35-.27.52-.41l.49-.44c.16-.15.32-.31.47-.47l.46-.48c.14-.17.29-.34.42-.52s.27-.35.4-.53.26-.36.38-.55.23-.37.34-.57a6.63,6.63,0,0,0,.31-.59c.1-.2.2-.4.29-.6s.17-.4.24-.61.16-.42.23-.63.14-.42.19-.63.12-.43.17-.65.09-.44.12-.66.08-.43.1-.65.07-.45.09-.67,0-.44,0-.66v-.25c0-.23,0-.45,0-.67a1.48,1.48,0,0,0,0-.21c0-.22-.05-.44-.09-.67s0-.44-.08-.66-.09-.43-.15-.65-.07-.4-.12-.6v-.09l-.09-.19c-.09-.3-.18-.59-.29-.87s-.16-.42-.25-.62a6.65,6.65,0,0,0-.27-.61c-.09-.2-.2-.39-.31-.59s-.21-.38-.33-.57-.23-.37-.36-.56-.26-.36-.39-.53-.27-.35-.42-.52l-.44-.51-.47-.47-.49-.45-.52-.42-.53-.4-.56-.37c-.19-.12-.37-.24-.57-.35l-.58-.31-.61-.29-.61-.25-.62-.23-.64-.19-.65-.17-.65-.12-.66-.1-.66-.08h-.67l-.24,0Z"/><path class="cls-1" d="M550.89,849.09H550l-.67.08-.66.09-.65.14-.59.13h-.09l-.2.09a8.69,8.69,0,0,0-.86.29l-.62.25-.61.27-.59.32-.57.32-.55.37c-.19.12-.37.26-.55.39l-.51.42-.5.44-.47.47c-.15.16-.31.32-.45.49l-.43.51-.4.54c-.13.18-.25.36-.37.55s-.24.37-.35.57-.21.39-.31.59-.19.39-.28.6-.18.41-.26.62-.15.41-.22.62-.14.43-.2.64-.11.42-.16.64-.09.43-.12.65-.07.44-.1.66-.06.45-.09.67v1.57c0,.07,0,.14,0,.21q0,.33.09.66c0,.23,0,.45.09.67s.09.45.14.66l.12.59V866l.09.19q.14.45.3.87c.07.21.16.42.24.62l.27.61.31.59.33.57c.12.19.24.38.37.56s.25.37.37.55l.42.51.45.5c.15.16.31.31.47.47l.48.45c.17.15.34.29.52.42s.35.28.54.41l.55.37.56.35a6.54,6.54,0,0,0,.59.3l.6.3.62.25.63.23.64.19.65.16.64.12.66.1.66.08h1.79l.68-.09c.21,0,.44,0,.65-.09l.65-.14.6-.12h.08l.2-.09c.3-.09.59-.19.88-.3l.61-.24.61-.28c.2-.1.4-.2.59-.31s.39-.21.58-.33l.56-.37L559,873c.18-.13.35-.27.52-.41l.49-.44c.16-.15.32-.31.47-.47l.46-.48c.14-.16.29-.34.42-.51s.27-.35.4-.54.26-.36.38-.55l.34-.56c.11-.2.22-.4.31-.6s.2-.39.29-.6.17-.4.24-.61.16-.42.23-.63.14-.42.19-.63.12-.43.17-.65a6.45,6.45,0,0,0,.12-.66c0-.21.08-.43.1-.65s.07-.45.09-.67,0-.44,0-.66v-.25c0-.23,0-.45,0-.68a1.34,1.34,0,0,0,0-.2c0-.23-.05-.45-.09-.68s0-.44-.08-.65-.09-.44-.15-.66-.07-.39-.12-.59v-.09l-.09-.19c-.09-.3-.18-.58-.29-.87s-.16-.42-.25-.62a6.65,6.65,0,0,0-.27-.61,6.45,6.45,0,0,0-.31-.58,6.65,6.65,0,0,0-.33-.58,6.49,6.49,0,0,0-.36-.55c-.12-.18-.26-.37-.39-.54s-.27-.35-.42-.52-.29-.34-.44-.5l-.47-.48-.49-.45c-.17-.14-.34-.29-.52-.42s-.35-.27-.53-.4l-.56-.38-.57-.34c-.19-.11-.39-.22-.58-.31s-.4-.2-.61-.3l-.61-.25-.62-.23-.64-.19-.65-.16-.65-.13-.66-.1-.66-.08h-.93Z"/><path class="cls-1" d="M550.89,849.09H550l-.67.08-.66.09-.65.14-.59.13h-.09l-.2.09a8.69,8.69,0,0,0-.86.29l-.62.25-.61.27-.59.32-.57.32-.55.37c-.19.12-.37.26-.55.39l-.51.42-.5.44-.47.47c-.15.16-.31.32-.45.49l-.43.51-.4.54c-.13.18-.25.36-.37.55s-.24.37-.35.57-.21.39-.31.59-.19.39-.28.6-.18.41-.26.62-.15.41-.22.62-.14.43-.2.64-.11.42-.16.64-.09.43-.12.65-.07.44-.1.66-.06.45-.09.67v1.57c0,.07,0,.14,0,.21q0,.33.09.66c0,.23,0,.45.09.67s.09.45.14.66l.12.59V866l.09.19q.14.45.3.87c.07.21.16.42.24.62l.27.61.31.59.33.57c.12.19.24.38.37.56s.25.37.37.55l.42.51.45.5c.15.16.31.31.47.47l.48.45c.17.15.34.29.52.42s.35.28.54.41l.55.37.56.35a6.54,6.54,0,0,0,.59.3l.6.3.62.25.63.23.64.19.65.16.64.12.66.1.66.08h1.79l.68-.09c.21,0,.44,0,.65-.09l.65-.14.6-.12h.08l.2-.09c.3-.09.59-.19.88-.3l.61-.24.61-.28c.2-.1.4-.2.59-.31s.39-.21.58-.33l.56-.37L559,873c.18-.13.35-.27.52-.41l.49-.44c.16-.15.32-.31.47-.47l.46-.48c.14-.16.29-.34.42-.51s.27-.35.4-.54.26-.36.38-.55l.34-.56c.11-.2.22-.4.31-.6s.2-.39.29-.6.17-.4.24-.61.16-.42.23-.63.14-.42.19-.63.12-.43.17-.65a6.45,6.45,0,0,0,.12-.66c0-.21.08-.43.1-.65s.07-.45.09-.67,0-.44,0-.66v-.25c0-.23,0-.45,0-.68a1.34,1.34,0,0,0,0-.2c0-.23-.05-.45-.09-.68s0-.44-.08-.65-.09-.44-.15-.66-.07-.39-.12-.59v-.09l-.09-.19c-.09-.3-.18-.58-.29-.87s-.16-.42-.25-.62a6.65,6.65,0,0,0-.27-.61,6.45,6.45,0,0,0-.31-.58,6.65,6.65,0,0,0-.33-.58,6.49,6.49,0,0,0-.36-.55c-.12-.18-.26-.37-.39-.54s-.27-.35-.42-.52-.29-.34-.44-.5l-.47-.48-.49-.45c-.17-.14-.34-.29-.52-.42s-.35-.27-.53-.4l-.56-.38-.57-.34c-.19-.11-.39-.22-.58-.31s-.4-.2-.61-.3l-.61-.25-.62-.23-.64-.19-.65-.16-.65-.13-.66-.1-.66-.08h-.93Z"/><path class="cls-1" d="M550.89,849.09H550l-.67.08-.66.09-.65.14-.59.13h-.09l-.2.09a8.69,8.69,0,0,0-.86.29l-.62.25-.61.27-.59.32-.57.32-.55.37c-.19.12-.37.26-.55.39l-.51.42-.5.44-.47.47c-.15.16-.31.32-.45.49l-.43.51-.4.54c-.13.18-.25.36-.37.55s-.24.37-.35.57-.21.39-.31.59-.19.39-.28.6-.18.41-.26.62-.15.41-.22.62-.14.43-.2.64-.11.42-.16.64-.09.43-.12.65-.07.44-.1.66-.06.45-.09.67v1.57c0,.07,0,.14,0,.21q0,.33.09.66c0,.23,0,.45.09.67s.09.45.14.66l.12.59V866l.09.19q.14.45.3.87c.07.21.16.42.24.62l.27.61.31.59.33.57c.12.19.24.38.37.56s.25.37.37.55l.42.51.45.5c.15.16.31.31.47.47l.48.45c.17.15.34.29.52.42s.35.28.54.41l.55.37.56.35a6.54,6.54,0,0,0,.59.3l.6.3.62.25.63.23.64.19.65.16.64.12.66.1.66.08h1.79l.68-.09c.21,0,.44,0,.65-.09l.65-.14.6-.12h.08l.2-.09c.3-.09.59-.19.88-.3l.61-.24.61-.28c.2-.1.4-.2.59-.31s.39-.21.58-.33l.56-.37L559,873c.18-.13.35-.27.52-.41l.49-.44c.16-.15.32-.31.47-.47l.46-.48c.14-.16.29-.34.42-.51s.27-.35.4-.54.26-.36.38-.55l.34-.56c.11-.2.22-.4.31-.6s.2-.39.29-.6.17-.4.24-.61.16-.42.23-.63.14-.42.19-.63.12-.43.17-.65a6.45,6.45,0,0,0,.12-.66c0-.21.08-.43.1-.65s.07-.45.09-.67,0-.44,0-.66v-.25c0-.23,0-.45,0-.68a1.34,1.34,0,0,0,0-.2c0-.23-.05-.45-.09-.68s0-.44-.08-.65-.09-.44-.15-.66-.07-.39-.12-.59v-.09l-.09-.19c-.09-.3-.18-.58-.29-.87s-.16-.42-.25-.62a6.65,6.65,0,0,0-.27-.61,6.45,6.45,0,0,0-.31-.58,6.65,6.65,0,0,0-.33-.58,6.49,6.49,0,0,0-.36-.55c-.12-.18-.26-.37-.39-.54s-.27-.35-.42-.52-.29-.34-.44-.5l-.47-.48-.49-.45c-.17-.14-.34-.29-.52-.42s-.35-.27-.53-.4l-.56-.38-.57-.34c-.19-.11-.39-.22-.58-.31s-.4-.2-.61-.3l-.61-.25-.62-.23-.64-.19-.65-.16-.65-.13-.66-.1-.66-.08h-.93Z"/><path class="cls-1" d="M550.89,849.09H550l-.67.08-.66.09-.65.14-.59.13h-.09l-.2.09a8.69,8.69,0,0,0-.86.29l-.62.25-.61.27-.59.32-.57.32-.55.37c-.19.12-.37.26-.55.39l-.51.42-.5.44-.47.47c-.15.16-.31.32-.45.49l-.43.51-.4.54c-.13.18-.25.36-.37.55s-.24.37-.35.57-.21.39-.31.59-.19.39-.28.6-.18.41-.26.62-.15.41-.22.62-.14.43-.2.64-.11.42-.16.64-.09.43-.12.65-.07.44-.1.66-.06.45-.09.67v1.57c0,.07,0,.14,0,.21q0,.33.09.66c0,.23,0,.45.09.67s.09.45.14.66l.12.59V866l.09.19q.14.45.3.87c.07.21.16.42.24.62l.27.61.31.59.33.57c.12.19.24.38.37.56s.25.37.37.55l.42.51.45.5c.15.16.31.31.47.47l.48.45c.17.15.34.29.52.42s.35.28.54.41l.55.37.56.35a6.54,6.54,0,0,0,.59.3l.6.3.62.25.63.23.64.19.65.16.64.12.66.1.66.08h1.79l.68-.09c.21,0,.44,0,.65-.09l.65-.14.6-.12h.08l.2-.09c.3-.09.59-.19.88-.3l.61-.24.61-.28c.2-.1.4-.2.59-.31s.39-.21.58-.33l.56-.37L559,873c.18-.13.35-.27.52-.41l.49-.44c.16-.15.32-.31.47-.47l.46-.48c.14-.16.29-.34.42-.51s.27-.35.4-.54.26-.36.38-.55l.34-.56c.11-.2.22-.4.31-.6s.2-.39.29-.6.17-.4.24-.61.16-.42.23-.63.14-.42.19-.63.12-.43.17-.65a6.45,6.45,0,0,0,.12-.66c0-.21.08-.43.1-.65s.07-.45.09-.67,0-.44,0-.66v-.25c0-.23,0-.45,0-.68a1.34,1.34,0,0,0,0-.2c0-.23-.05-.45-.09-.68s0-.44-.08-.65-.09-.44-.15-.66-.07-.39-.12-.59v-.09l-.09-.19c-.09-.3-.18-.58-.29-.87s-.16-.42-.25-.62a6.65,6.65,0,0,0-.27-.61,6.45,6.45,0,0,0-.31-.58,6.65,6.65,0,0,0-.33-.58,6.49,6.49,0,0,0-.36-.55c-.12-.18-.26-.37-.39-.54s-.27-.35-.42-.52-.29-.34-.44-.5l-.47-.48-.49-.45c-.17-.14-.34-.29-.52-.42s-.35-.27-.53-.4l-.56-.38-.57-.34c-.19-.11-.39-.22-.58-.31s-.4-.2-.61-.3l-.61-.25-.62-.23-.64-.19-.65-.16-.65-.13-.66-.1-.66-.08h-.93Z"/><path class="cls-1" d="M550.89,849.09H550l-.67.08-.66.09-.65.14-.59.13h-.09l-.2.09a8.69,8.69,0,0,0-.86.29l-.62.25-.61.27-.59.32-.57.32-.55.37c-.19.12-.37.26-.55.39l-.51.42-.5.44-.47.47c-.15.16-.31.32-.45.49l-.43.51-.4.54c-.13.18-.25.36-.37.55s-.24.37-.35.57-.21.39-.31.59-.19.39-.28.6-.18.41-.26.62-.15.41-.22.62-.14.43-.2.64-.11.42-.16.64-.09.43-.12.65-.07.44-.1.66-.06.45-.09.67v1.57c0,.07,0,.14,0,.21q0,.33.09.66c0,.23,0,.45.09.67s.09.45.14.66l.12.59V866l.09.19q.14.45.3.87c.07.21.16.42.24.62l.27.61.31.59.33.57c.12.19.24.38.37.56s.25.37.37.55l.42.51.45.5c.15.16.31.31.47.47l.48.45c.17.15.34.29.52.42s.35.28.54.41l.55.37.56.35a6.54,6.54,0,0,0,.59.3l.6.3.62.25.63.23.64.19.65.16.64.12.66.1.66.08h1.79l.68-.09c.21,0,.44,0,.65-.09l.65-.14.6-.12h.08l.2-.09c.3-.09.59-.19.88-.3l.61-.24.61-.28c.2-.1.4-.2.59-.31s.39-.21.58-.33l.56-.37L559,873c.18-.13.35-.27.52-.41l.49-.44c.16-.15.32-.31.47-.47l.46-.48c.14-.16.29-.34.42-.51s.27-.35.4-.54.26-.36.38-.55l.34-.56c.11-.2.22-.4.31-.6s.2-.39.29-.6.17-.4.24-.61.16-.42.23-.63.14-.42.19-.63.12-.43.17-.65a6.45,6.45,0,0,0,.12-.66c0-.21.08-.43.1-.65s.07-.45.09-.67,0-.44,0-.66v-.25c0-.23,0-.45,0-.68a1.34,1.34,0,0,0,0-.2c0-.23-.05-.45-.09-.68s0-.44-.08-.65-.09-.44-.15-.66-.07-.39-.12-.59v-.09l-.09-.19c-.09-.3-.18-.58-.29-.87s-.16-.42-.25-.62a6.65,6.65,0,0,0-.27-.61,6.45,6.45,0,0,0-.31-.58,6.65,6.65,0,0,0-.33-.58,6.49,6.49,0,0,0-.36-.55c-.12-.18-.26-.37-.39-.54s-.27-.35-.42-.52-.29-.34-.44-.5l-.47-.48-.49-.45c-.17-.14-.34-.29-.52-.42s-.35-.27-.53-.4l-.56-.38-.57-.34c-.19-.11-.39-.22-.58-.31s-.4-.2-.61-.3l-.61-.25-.62-.23-.64-.19-.65-.16-.65-.13-.66-.1-.66-.08h-.93Z"/><path class="cls-1" d="M550.89,849.09H550l-.67.08-.66.09-.65.14-.59.13h-.09l-.2.09a8.69,8.69,0,0,0-.86.29l-.62.25-.61.27-.59.32-.57.32-.55.37c-.19.12-.37.26-.55.39l-.51.42-.5.44-.47.47c-.15.16-.31.32-.45.49l-.43.51-.4.54c-.13.18-.25.36-.37.55s-.24.37-.35.57-.21.39-.31.59-.19.39-.28.6-.18.41-.26.62-.15.41-.22.62-.14.43-.2.64-.11.42-.16.64-.09.43-.12.65-.07.44-.1.66-.06.45-.09.67v1.57c0,.07,0,.14,0,.21q0,.33.09.66c0,.23,0,.45.09.67s.09.45.14.66l.12.59V866l.09.19q.14.45.3.87c.07.21.16.42.24.62l.27.61.31.59.33.57c.12.19.24.38.37.56s.25.37.37.55l.42.51.45.5c.15.16.31.31.47.47l.48.45c.17.15.34.29.52.42s.35.28.54.41l.55.37.56.35a6.54,6.54,0,0,0,.59.3l.6.3.62.25.63.23.64.19.65.16.64.12.66.1.66.08h1.79l.68-.09c.21,0,.44,0,.65-.09l.65-.14.6-.12h.08l.2-.09c.3-.09.59-.19.88-.3l.61-.24.61-.28c.2-.1.4-.2.59-.31s.39-.21.58-.33l.56-.37L559,873c.18-.13.35-.27.52-.41l.49-.44c.16-.15.32-.31.47-.47l.46-.48c.14-.16.29-.34.42-.51s.27-.35.4-.54.26-.36.38-.55l.34-.56c.11-.2.22-.4.31-.6s.2-.39.29-.6.17-.4.24-.61.16-.42.23-.63.14-.42.19-.63.12-.43.17-.65a6.45,6.45,0,0,0,.12-.66c0-.21.08-.43.1-.65s.07-.45.09-.67,0-.44,0-.66v-.25c0-.23,0-.45,0-.68a1.34,1.34,0,0,0,0-.2c0-.23-.05-.45-.09-.68s0-.44-.08-.65-.09-.44-.15-.66-.07-.39-.12-.59v-.09l-.09-.19c-.09-.3-.18-.58-.29-.87s-.16-.42-.25-.62a6.65,6.65,0,0,0-.27-.61,6.45,6.45,0,0,0-.31-.58,6.65,6.65,0,0,0-.33-.58,6.49,6.49,0,0,0-.36-.55c-.12-.18-.26-.37-.39-.54s-.27-.35-.42-.52-.29-.34-.44-.5l-.47-.48-.49-.45c-.17-.14-.34-.29-.52-.42s-.35-.27-.53-.4l-.56-.38-.57-.34c-.19-.11-.39-.22-.58-.31s-.4-.2-.61-.3l-.61-.25-.62-.23-.64-.19-.65-.16-.65-.13-.66-.1-.66-.08h-.93Z"/><path class="cls-1" d="M550.89,849.09H550l-.67.08-.66.09-.65.14-.59.13h-.09l-.2.09a8.69,8.69,0,0,0-.86.29l-.62.25-.61.27-.59.32-.57.32-.55.37c-.19.12-.37.26-.55.39l-.51.42-.5.44-.47.47c-.15.16-.31.32-.45.49l-.43.51-.4.54c-.13.18-.25.36-.37.55s-.24.37-.35.57-.21.39-.31.59-.19.39-.28.6-.18.41-.26.62-.15.41-.22.62-.14.43-.2.64-.11.42-.16.64-.09.43-.12.65-.07.44-.1.66-.06.45-.09.67v1.57c0,.07,0,.14,0,.21q0,.33.09.66c0,.23,0,.45.09.67s.09.45.14.66l.12.59V866l.09.19q.14.45.3.87c.07.21.16.42.24.62l.27.61.31.59.33.57c.12.19.24.38.37.56s.25.37.37.55l.42.51.45.5c.15.16.31.31.47.47l.48.45c.17.15.34.29.52.42s.35.28.54.41l.55.37.56.35a6.54,6.54,0,0,0,.59.3l.6.3.62.25.63.23.64.19.65.16.64.12.66.1.66.08h1.79l.68-.09c.21,0,.44,0,.65-.09l.65-.14.6-.12h.08l.2-.09c.3-.09.59-.19.88-.3l.61-.24.61-.28c.2-.1.4-.2.59-.31s.39-.21.58-.33l.56-.37L559,873c.18-.13.35-.27.52-.41l.49-.44c.16-.15.32-.31.47-.47l.46-.48c.14-.16.29-.34.42-.51s.27-.35.4-.54.26-.36.38-.55l.34-.56c.11-.2.22-.4.31-.6s.2-.39.29-.6.17-.4.24-.61.16-.42.23-.63.14-.42.19-.63.12-.43.17-.65a6.45,6.45,0,0,0,.12-.66c0-.21.08-.43.1-.65s.07-.45.09-.67,0-.44,0-.66v-.25c0-.23,0-.45,0-.68a1.34,1.34,0,0,0,0-.2c0-.23-.05-.45-.09-.68s0-.44-.08-.65-.09-.44-.15-.66-.07-.39-.12-.59v-.09l-.09-.19c-.09-.3-.18-.58-.29-.87s-.16-.42-.25-.62a6.65,6.65,0,0,0-.27-.61,6.45,6.45,0,0,0-.31-.58,6.65,6.65,0,0,0-.33-.58,6.49,6.49,0,0,0-.36-.55c-.12-.18-.26-.37-.39-.54s-.27-.35-.42-.52-.29-.34-.44-.5l-.47-.48-.49-.45c-.17-.14-.34-.29-.52-.42s-.35-.27-.53-.4l-.56-.38-.57-.34c-.19-.11-.39-.22-.58-.31s-.4-.2-.61-.3l-.61-.25-.62-.23-.64-.19-.65-.16-.65-.13-.66-.1-.66-.08h-.93Z"/><path class="cls-1" d="M550.89,849.09H550l-.67.08-.66.09-.65.14-.59.13h-.09l-.2.09a8.69,8.69,0,0,0-.86.29l-.62.25-.61.27-.59.32-.57.32-.55.37c-.19.12-.37.26-.55.39l-.51.42-.5.44-.47.47c-.15.16-.31.32-.45.49l-.43.51-.4.54c-.13.18-.25.36-.37.55s-.24.37-.35.57-.21.39-.31.59-.19.39-.28.6-.18.41-.26.62-.15.41-.22.62-.14.43-.2.64-.11.42-.16.64-.09.43-.12.65-.07.44-.1.66-.06.45-.09.67v1.57c0,.07,0,.14,0,.21q0,.33.09.66c0,.23,0,.45.09.67s.09.45.14.66l.12.59V866l.09.19q.14.45.3.87c.07.21.16.42.24.62l.27.61.31.59.33.57c.12.19.24.38.37.56s.25.37.37.55l.42.51.45.5c.15.16.31.31.47.47l.48.45c.17.15.34.29.52.42s.35.28.54.41l.55.37.56.35a6.54,6.54,0,0,0,.59.3l.6.3.62.25.63.23.64.19.65.16.64.12.66.1.66.08h1.79l.68-.09c.21,0,.44,0,.65-.09l.65-.14.6-.12h.08l.2-.09c.3-.09.59-.19.88-.3l.61-.24.61-.28c.2-.1.4-.2.59-.31s.39-.21.58-.33l.56-.37L559,873c.18-.13.35-.27.52-.41l.49-.44c.16-.15.32-.31.47-.47l.46-.48c.14-.16.29-.34.42-.51s.27-.35.4-.54.26-.36.38-.55l.34-.56c.11-.2.22-.4.31-.6s.2-.39.29-.6.17-.4.24-.61.16-.42.23-.63.14-.42.19-.63.12-.43.17-.65a6.45,6.45,0,0,0,.12-.66c0-.21.08-.43.1-.65s.07-.45.09-.67,0-.44,0-.66v-.25c0-.23,0-.45,0-.68a1.34,1.34,0,0,0,0-.2c0-.23-.05-.45-.09-.68s0-.44-.08-.65-.09-.44-.15-.66-.07-.39-.12-.59v-.09l-.09-.19c-.09-.3-.18-.58-.29-.87s-.16-.42-.25-.62a6.65,6.65,0,0,0-.27-.61,6.45,6.45,0,0,0-.31-.58,6.65,6.65,0,0,0-.33-.58,6.49,6.49,0,0,0-.36-.55c-.12-.18-.26-.37-.39-.54s-.27-.35-.42-.52-.29-.34-.44-.5l-.47-.48-.49-.45c-.17-.14-.34-.29-.52-.42s-.35-.27-.53-.4l-.56-.38-.57-.34c-.19-.11-.39-.22-.58-.31s-.4-.2-.61-.3l-.61-.25-.62-.23-.64-.19-.65-.16-.65-.13-.66-.1-.66-.08h-.93Z"/><path class="cls-1" d="M550.89,849.09H550l-.67.08-.66.09-.65.14-.59.13h-.09l-.2.09a8.69,8.69,0,0,0-.86.29l-.62.25-.61.27-.59.32-.57.32-.55.37c-.19.12-.37.26-.55.39l-.51.42-.5.44-.47.47c-.15.16-.31.32-.45.49l-.43.51-.4.54c-.13.18-.25.36-.37.55s-.24.37-.35.57-.21.39-.31.59-.19.39-.28.6-.18.41-.26.62-.15.41-.22.62-.14.43-.2.64-.11.42-.16.64-.09.43-.12.65-.07.44-.1.66-.06.45-.09.67v1.57c0,.07,0,.14,0,.21q0,.33.09.66c0,.23,0,.45.09.67s.09.45.14.66l.12.59V866l.09.19q.14.45.3.87c.07.21.16.42.24.62l.27.61.31.59.33.57c.12.19.24.38.37.56s.25.37.37.55l.42.51.45.5c.15.16.31.31.47.47l.48.45c.17.15.34.29.52.42s.35.28.54.41l.55.37.56.35a6.54,6.54,0,0,0,.59.3l.6.3.62.25.63.23.64.19.65.16.64.12.66.1.66.08h1.79l.68-.09c.21,0,.44,0,.65-.09l.65-.14.6-.12h.08l.2-.09c.3-.09.59-.19.88-.3l.61-.24.61-.28c.2-.1.4-.2.59-.31s.39-.21.58-.33l.56-.37L559,873c.18-.13.35-.27.52-.41l.49-.44c.16-.15.32-.31.47-.47l.46-.48c.14-.16.29-.34.42-.51s.27-.35.4-.54.26-.36.38-.55l.34-.56c.11-.2.22-.4.31-.6s.2-.39.29-.6.17-.4.24-.61.16-.42.23-.63.14-.42.19-.63.12-.43.17-.65a6.45,6.45,0,0,0,.12-.66c0-.21.08-.43.1-.65s.07-.45.09-.67,0-.44,0-.66v-.25c0-.23,0-.45,0-.68a1.34,1.34,0,0,0,0-.2c0-.23-.05-.45-.09-.68s0-.44-.08-.65-.09-.44-.15-.66-.07-.39-.12-.59v-.09l-.09-.19c-.09-.3-.18-.58-.29-.87s-.16-.42-.25-.62a6.65,6.65,0,0,0-.27-.61,6.45,6.45,0,0,0-.31-.58,6.65,6.65,0,0,0-.33-.58,6.49,6.49,0,0,0-.36-.55c-.12-.18-.26-.37-.39-.54s-.27-.35-.42-.52-.29-.34-.44-.5l-.47-.48-.49-.45c-.17-.14-.34-.29-.52-.42s-.35-.27-.53-.4l-.56-.38-.57-.34c-.19-.11-.39-.22-.58-.31s-.4-.2-.61-.3l-.61-.25-.62-.23-.64-.19-.65-.16-.65-.13-.66-.1-.66-.08h-.93Z"/><path class="cls-2" d="M869.58,1548.44c0,21.12-33.58,41.39-93.34,56.33s-140.81,23.33-225.33,23.33-165.56-8.39-225.32-23.33-93.34-35.21-93.34-56.33c0-44,142.67-79.67,318.66-79.67s318.67,35.67,318.67,79.67Z"/><path class="cls-3" d="M457.94,1340c0,81.69-27.24,197.82-60.85,197.82S336.24,1421.66,336.24,1340s36-98,60.85-98,60.85,16.32,60.85,98Z"/><path class="cls-4" d="M397.09,1225a69,69,0,0,0-52.71,24.38c-15.61,18.43-25.12,47.28-25.12,90.62,0,42.73,6.93,93.07,18.46,134.13,5.76,20.53,12.55,38.67,21.12,53s20.07,27.68,38.25,27.68,29.69-13.37,38.26-27.68,15.36-32.46,21.12-53C468,1433,474.92,1382.7,474.92,1340c0-43.34-9.51-72.19-25.12-90.62A68.93,68.93,0,0,0,397.09,1225Zm0,34c8.73,0,18.2,2.21,26.8,12.36S441,1301.62,441,1340c0,39-6.69,87.53-17.19,125-5.25,18.71-11.57,34.71-17.57,44.73-4.49,7.5-8.15,10-9.11,10.82-1-.79-4.62-3.32-9.11-10.82-6-10-12.32-26-17.57-44.73-10.5-37.42-17.19-86-17.19-125,0-38.35,8.48-58.51,17.08-68.67s18.06-12.36,26.79-12.36Z"/><path class="cls-3" d="M765.59,1340c0,81.69-27.25,197.82-60.85,197.82S643.89,1421.66,643.89,1340s36-98,60.85-98,60.85,16.32,60.85,98Z"/><path class="cls-4" d="M704.74,1225A69,69,0,0,0,652,1249.35c-15.61,18.43-25.11,47.28-25.11,90.62,0,42.73,6.93,93.07,18.45,134.13,5.76,20.53,12.55,38.67,21.12,53s20.07,27.68,38.26,27.68,29.69-13.37,38.25-27.68,15.36-32.46,21.12-53c11.53-41.06,18.46-91.4,18.46-134.13,0-43.34-9.51-72.19-25.12-90.62A69,69,0,0,0,704.74,1225Zm0,34c8.73,0,18.2,2.21,26.79,12.36s17.08,30.32,17.08,68.67c0,39-6.7,87.53-17.2,125-5.25,18.71-11.57,34.71-17.56,44.73-4.49,7.5-8.15,10-9.11,10.82-1-.79-4.62-3.32-9.12-10.82-6-10-12.31-26-17.56-44.73-10.5-37.42-17.19-86-17.19-125,0-38.35,8.47-58.51,17.07-68.67s18.07-12.36,26.8-12.36Z"/><path class="cls-3" d="M164.69,942.31c-31.26,75.48-100.87,172.34-131.92,159.48S21,971.22,52.25,895.74,123,819,146,828.48s50,38.36,18.71,113.83Z"/><path class="cls-4" d="M152.48,812.79a69,69,0,0,0-58,2.35C73,826.2,53.15,849.21,36.57,889.24c-16.36,39.48-29.22,88.64-34.28,131-2.54,21.17-3.21,40.53-.77,57s8,33.25,24.75,40.21,32.55-1,45.94-10.93,26.61-24.11,39.79-40.88c26.36-33.52,52-77.37,68.38-116.86,16.59-40,18.84-70.32,11.47-93.32a69,69,0,0,0-39.37-42.7Zm-13,31.38c8.06,3.34,16,9,20,21.68s4.17,34.53-10.51,70c-14.91,36-39.68,78.31-63.7,108.87-12,15.27-24,27.63-33.34,34.59-7,5.22-11.37,6.15-12.56,6.51-.6-1.1-3-4.83-4.28-13.49-1.71-11.54-1.42-28.74.89-48,4.62-38.6,17-86,31.93-122,14.68-35.43,30.22-50.81,42.05-56.9s21.43-4.51,29.49-1.17Z"/><path class="cls-3" d="M1049.57,895.74c31.27,75.48,50.54,193.19,19.49,206s-100.66-84-131.92-159.48S932.86,838,955.85,828.48s62.46-8.21,93.72,67.26Z"/><path class="cls-4" d="M949.35,812.79A69,69,0,0,0,910,855.49c-7.37,23-5.11,53.29,11.47,93.32,16.35,39.49,42,83.34,68.38,116.86,13.18,16.77,26.4,30.93,39.79,40.88s29.14,17.89,45.94,10.93,22.31-23.71,24.75-40.21,1.77-35.87-.76-57c-5.07-42.35-17.93-91.51-34.28-131-16.59-40-36.41-63-57.89-74.1a69,69,0,0,0-58-2.35Zm13,31.38c8.06-3.34,17.66-4.92,29.49,1.17s27.37,21.47,42.05,56.9c14.91,36,27.31,83.43,31.93,122,2.31,19.29,2.59,36.49.89,48-1.28,8.66-3.69,12.39-4.28,13.49-1.19-.36-5.54-1.29-12.56-6.51-9.37-7-21.33-19.32-33.34-34.59-24-30.56-48.79-72.88-63.7-108.87-14.68-35.44-14.56-57.31-10.51-70s12-18.34,20-21.68Z"/><path class="cls-4" d="M550.91,458.16C288,458.16,74.36,671.84,74.36,934.71a476.57,476.57,0,0,0,161.35,357.41q2.25,2,4.52,3.93l.12.12.83.71s0,0,.06,0c103.09,89.32,201.68,119.47,297.48,167.62l12.2,6.14,12.21-6.14c95.83-48.16,194.44-78.31,297.57-167.69,1.82-1.56,3.62-3.13,5.43-4.71a476.63,476.63,0,0,0,161.34-357.42c0-257.26-204.8-466.86-459.94-475.71l-.47-.86Zm-.46,54.37h.47c233.5,0,422.2,188.7,422.2,422.2a422.15,422.15,0,0,1-142.94,316.65q-2.46,2.16-4.94,4.29l-.14.12c-90.78,78.68-178.32,107.6-274.17,154.45C455.15,1363.43,367.68,1334.51,277,1256l-.41-.35q-2.46-2.12-4.91-4.26h0a422.18,422.18,0,0,1-143-316.65c0-233.34,188.46-421.93,421.74-422.18Z"/><path class="cls-4" d="M357.35,94.48a59.25,59.25,0,0,0-33.71,7.78c-28,16.18-38.08,52.81-21.45,80.75l-.74-1.32a1095.29,1095.29,0,0,1,87,223.54,1108.8,1108.8,0,0,1-3.29,586.37l-7.4,26.46,113.2,30.34,7.23-25.91a1225.8,1225.8,0,0,0,3.46-647.59A1249,1249,0,0,0,404.72,125l-.17-.32-.17-.32a58.37,58.37,0,0,0-35.83-28h0a59.43,59.43,0,0,0-11.2-1.88Zm-2.94,54.35h0a3.33,3.33,0,0,1,2.28,1.75A1194.31,1194.31,0,0,1,449.11,389c53.07,198,51.77,401.7,3.08,592.78l-8.2-2.19c48.34-189.81,49.53-392.07-3.08-588.4a1149.61,1149.61,0,0,0-91.28-234.63l-.35-.67-.39-.65c-1.1-1.85-.66-4.38,1.93-5.89a4.44,4.44,0,0,1,3.59-.49Z"/><path class="cls-4" d="M728.46,94.47a59.12,59.12,0,0,0-11.17,1.88,58.33,58.33,0,0,0-35.86,28l-.18.33-.17.32A1249.36,1249.36,0,0,0,584.2,374.91a1225.8,1225.8,0,0,0,3.45,647.59l7.24,25.9,113.2-30.33-7.41-26.47a1108.76,1108.76,0,0,1-3.28-586.36,1095.26,1095.26,0,0,1,87-223.54l-.73,1.32c16.63-27.94,6.58-64.57-21.46-80.76h0a59.22,59.22,0,0,0-33.7-7.78Zm2.94,54.36a4.45,4.45,0,0,1,3.58.5c2.6,1.5,3,4,1.93,5.88l-.38.65-.35.67A1149.47,1149.47,0,0,0,644.9,391.17c-52.61,196.32-51.43,398.58-3.09,588.39l-8.19,2.19C584.93,790.67,583.64,587,636.7,389a1194.91,1194.91,0,0,1,92.38-238.38,3.4,3.4,0,0,1,2.28-1.75h0Z"/><path class="cls-4" d="M603.83.32A58.57,58.57,0,0,0,555.5,37l-.13.34-.12.34A1248.87,1248.87,0,0,0,491.8,298.06a1226.05,1226.05,0,0,0,113,696.49l8.56,17.62,123.39-16.25-17.44-34.25A1109,1109,0,0,1,608,313.35a1095.21,1095.21,0,0,1,57-233l-.55,1.4c12.84-29.87-1.91-64.88-31.82-77.27A59.22,59.22,0,0,0,603.84.32Zm5.7,54.05h0a4.57,4.57,0,0,1,2.31.36h0c2.78,1.15,3.54,3.6,2.69,5.58l-.3.69-.26.72A1149.55,1149.55,0,0,0,554.1,306.26,1163.31,1163.31,0,0,0,654.16,952l-8.71,1.15a1171.36,1171.36,0,0,1-99.77-648A1194.49,1194.49,0,0,1,606.16,56.76a3.78,3.78,0,0,1,3.37-2.39Z"/><path class="cls-5" d="M380.57,137.51a1222.25,1222.25,0,0,1,94.79,244.43A1198.55,1198.55,0,0,1,472,1015.19l-60.69-16.26a1136,1136,0,0,0,3.37-600.73,1122.21,1122.21,0,0,0-89.12-229.09c-8.87-14.89-3.62-34.48,11.69-43.32a31.84,31.84,0,0,1,24.25-3.2,30.79,30.79,0,0,1,19.09,14.92Z"/><path class="cls-6" d="M484.73,419.37a531.94,531.94,0,0,0-61.86,11.5,1136,1136,0,0,1-11.58,568.06L472,1015.19a1198.53,1198.53,0,0,0,12.75-595.82Z"/><path class="cls-4" d="M348.43,115a38.63,38.63,0,0,0-14.59,4.9c-18.5,10.68-24.95,34.52-14.14,52.68l-.18-.33A1116,1116,0,0,1,408.1,400a1129.18,1129.18,0,0,1-3.35,597.14l-1.86,6.61,73.83,19.78,1.81-6.47a1205.49,1205.49,0,0,0,3.39-636.84A1228,1228,0,0,0,386.61,134.4l0-.09,0-.07A37.72,37.72,0,0,0,363.25,116h0a38.59,38.59,0,0,0-14.81-1Zm1.7,13.46a25.14,25.14,0,0,1,9.59.68h0a24,24,0,0,1,14.88,11.62A1214.66,1214.66,0,0,1,468.8,383.7,1191.49,1191.49,0,0,1,467,1006.83l-47.56-12.75a1142.44,1142.44,0,0,0,1.75-597.64A1128.67,1128.67,0,0,0,331.56,166l-.09-.17-.09-.17c-6.93-11.63-2.88-26.95,9.25-34a25.18,25.18,0,0,1,9.5-3.2Z"/><path class="cls-5" d="M705.23,137.51a1222.21,1222.21,0,0,0-94.78,244.43,1198.66,1198.66,0,0,0,3.37,633.25l60.7-16.26a1135.91,1135.91,0,0,1-3.37-600.73,1122.21,1122.21,0,0,1,89.12-229.09c8.87-14.9,3.62-34.48-11.7-43.32a31.84,31.84,0,0,0-24.25-3.2,30.82,30.82,0,0,0-19.09,14.92Z"/><path class="cls-6" d="M601.48,417.66a1198.74,1198.74,0,0,0,12.34,597.53l60.7-16.26a1135.86,1135.86,0,0,1-10.73-571.56,530.59,530.59,0,0,0-62.31-9.71Z"/><path class="cls-4" d="M737.38,115a38.59,38.59,0,0,0-14.81,1,37.7,37.7,0,0,0-23.29,18.2l0,.08,0,.08a1228.69,1228.69,0,0,0-95.3,245.79,1205.38,1205.38,0,0,0,3.4,636.84l1.8,6.47,73.82-19.78-1.85-6.61A1129.18,1129.18,0,0,1,677.71,400a1115.74,1115.74,0,0,1,88.58-227.71l-.18.34c10.81-18.16,4.36-42-14.14-52.69a39,39,0,0,0-14.59-4.9Zm-1.7,13.46a25.2,25.2,0,0,1,9.5,3.21c12.13,7,16.18,22.32,9.25,33.95l-.1.17-.09.17a1128.86,1128.86,0,0,0-89.65,230.47,1142.44,1142.44,0,0,0,1.75,597.64l-47.57,12.75A1191.6,1191.6,0,0,1,617,383.7,1215.49,1215.49,0,0,1,711.2,140.77a23.91,23.91,0,0,1,14.88-11.61h0a24.93,24.93,0,0,1,9.59-.68Z"/><path class="cls-5" d="M606.68,27.35A31.14,31.14,0,0,0,580.81,46.9a1221.77,1221.77,0,0,0-62.07,254.7A1198.89,1198.89,0,0,0,629.21,982.67L695.07,974A1136.35,1136.35,0,0,1,581,309.81,1122.58,1122.58,0,0,1,639.5,71.05c6.85-15.93-.91-34.66-17.25-41.43a31.94,31.94,0,0,0-15.57-2.27Z"/><path class="cls-6" d="M550.91,415.23q-20.89,0-41.73,1.64a1199.09,1199.09,0,0,0,120,565.8L695.07,974a1136.42,1136.42,0,0,1-123-558.32q-10.59-.42-21.19-.42Z"/><path class="cls-4" d="M606,20.59a38,38,0,0,0-31.49,23.83l0,.08,0,.09A1229.08,1229.08,0,0,0,512,300.71,1205.71,1205.71,0,0,0,623.1,985.63l2.14,4.41,80.24-10.57-4.36-8.56A1129.54,1129.54,0,0,1,587.78,310.68a1115.59,1115.59,0,0,1,58.1-237.31l-.14.35c8.35-19.41-1.16-42.21-20.89-50.39A38.68,38.68,0,0,0,606,20.58Zm1.42,13.51a25,25,0,0,1,12.26,1.8c13,5.36,19,20,13.61,32.46l-.08.18-.06.18a1128.85,1128.85,0,0,0-58.81,240.2A1143,1143,0,0,0,684.84,968.49l-51.57,6.8a1191.88,1191.88,0,0,1-107.79-672.8A1215.28,1215.28,0,0,1,587.15,49.33a24.28,24.28,0,0,1,20.24-15.22Z"/><path class="cls-7" d="M1000.29,934.71A449.4,449.4,0,1,1,868.67,617a449.38,449.38,0,0,1,131.62,317.75Z"/><path class="cls-3" d="M550.91,485.33a449.39,449.39,0,0,0-420.34,608.29c86.29-27.73,225.89-17.77,400.3,86.91,109.44,65.69,232.62,88.23,361,46.91a449.38,449.38,0,0,0-341-742.09Z"/><path class="cls-8" d="M473.59,504.1a436.81,436.81,0,0,0-67.6,5.24,449.38,449.38,0,0,0-276.7,580.84C204.37,1199.71,334.17,1266,473.59,1266c108.38,0,212.3-40.14,288.93-111.58S882.2,986.08,882.2,885.05,839.15,687.12,762.52,615.67,582,504.1,473.59,504.1Z"/><path class="cls-9" d="M473.6,504.09a438.06,438.06,0,0,0-67.6,5.25,449.38,449.38,0,0,0-276.71,580.84c.73,1.06,1.47,2.11,2.21,3.16,86.35-27.37,225.57-17.13,399.37,87.19,36.51,21.92,74.56,39,113.81,50.54,140.21-60.36,237.52-192.59,237.52-346,0-210.4-182.93-381-408.6-381Z"/><path class="cls-7" d="M253.68,1271.74c100.81,89.32,197.19,118.23,297.23,168.51,100-50.28,196.42-79.19,297.23-168.51l-297.23,28.73Z"/><path class="cls-10" d="M550.91,1300.4a75.28,75.28,0,0,0-69,45.33,75.26,75.26,0,0,0-101.49,13.38c56.67,30.36,113,52.24,170.55,81.17,57.55-28.93,113.88-50.81,170.54-81.17A75.26,75.26,0,0,0,620,1345.73a75.31,75.31,0,0,0-69.06-45.33Z"/><path class="cls-8" d="M550.92,852.53a10.19,10.19,0,0,0,0,20.38A1264.82,1264.82,0,0,1,805,898.7a10.19,10.19,0,1,0,4.1-20,1285.77,1285.77,0,0,0-258.22-26.2Z"/><path class="cls-8" d="M550.92,1000.78a1136.81,1136.81,0,0,0-270.51,32.65,10.19,10.19,0,0,0,4.85,19.79,1116.94,1116.94,0,0,1,265.66-32.05,10.2,10.2,0,0,0,0-20.39Z"/><path class="cls-7" d="M480.37,1172.21c-.22,0-.44,0-.65,0a968.49,968.49,0,0,0-210.17,39.16,10.19,10.19,0,1,0,5.92,19.5,948.46,948.46,0,0,1,205.75-38.34,10.19,10.19,0,0,0-.85-20.35Z"/><path class="cls-11" d="M550.06,485.34a449.38,449.38,0,0,0-418.47,287.8c88.49-88.49,265.43-86,416.92,9.19,121.53,76.38,283.56,84.9,429.58,12.88A449.37,449.37,0,0,0,550.91,485.34Z"/><path class="cls-12" d="M473.59,504.09A438.09,438.09,0,0,0,406,509.34a449.38,449.38,0,0,0-274.39,263.8c88.49-88.49,265.43-86,416.92,9.18,94.31,59.27,213,77.67,329.67,49.3C850.31,646.52,679.81,504.09,473.6,504.09Z"/><path class="cls-8" d="M312.24,560.46c-3.51,0-7,.1-10.54.31A449.33,449.33,0,0,0,127.59,783.92a188.22,188.22,0,0,0,373.1-35.25c0-103.95-84.27-188.21-188.22-188.21Z"/><path class="cls-9" d="M312.24,560.46q-5.26,0-10.51.31A448.94,448.94,0,0,0,131.59,773.14c79.29-79.29,229.59-85.54,369-17.5.08-2.31.14-4.63.14-7,0-103.95-84.27-188.21-188.22-188.21Z"/><path class="cls-4" d="M550.91,478.54c-251.85,0-456.16,204.31-456.16,456.17a456.2,456.2,0,0,0,154.44,342.13c1.69,1.48,3.38,3,5.08,4.41l0,0,.2.19c100,86.61,195.68,115.77,293.35,164.86l3,1.53,3.05-1.53c97.69-49.1,193.42-78.26,293.38-164.89,1.78-1.52,3.54-3.06,5.29-4.6a456.19,456.19,0,0,0,154.45-342.13c0-250.35-201.94-453.52-451.71-455.94l-.12-.25Zm-.46,13.61h.47c244.51,0,442.58,198.07,442.58,442.58a442.58,442.58,0,0,1-149.84,331.94c-1.71,1.5-3.44,3-5.17,4.48l0,0h0c-96.83,83.93-189.74,112.8-287.53,161.57-97.72-48.74-190.58-77.61-287.35-161.43,0,0,0,0,0,0l-.22-.19q-2.6-2.22-5.14-4.47h0A442.54,442.54,0,0,1,108.33,934.7c0-244.35,197.82-442.3,442.12-442.56Z"/><path class="cls-13" d="M734.69,731.25a10.19,10.19,0,0,0-1.27,20.3A1398,1398,0,0,1,912.8,787.22a10.19,10.19,0,1,0,5.28-19.68,1417.62,1417.62,0,0,0-182-36.2,10.7,10.7,0,0,0-1.39-.09Z"/><path class="cls-14" d="M581,617a1521.71,1521.71,0,0,0-228.65,12.72A10.19,10.19,0,0,0,355,650,1500.2,1500.2,0,0,1,656,640.8a10.19,10.19,0,0,0,1.42-20.33Q619.24,617.8,581,617Z"/><path class="cls-15" d="M822.74,1109.4a44.93,44.93,0,1,1-44.93-44.92,44.93,44.93,0,0,1,44.93,44.92Z"/><path class="cls-15" d="M662.18,1098.36a23.56,23.56,0,1,1-6.9-16.67,23.55,23.55,0,0,1,6.9,16.67Z"/><path class="cls-4" d="M461.33,780.66a69.76,69.76,0,0,1,15.17,43.55v35.07a70,70,0,0,1-140,0V832.36Z"/><path class="cls-1" d="M447.25,855a22.59,22.59,0,1,1-6.61-16,22.59,22.59,0,0,1,6.61,16Z"/><path class="cls-4" d="M640.5,780.66l124.81,51.7v26.92a70,70,0,0,1-140,0V824.21a69.77,69.77,0,0,1,15.18-43.55Z"/><path class="cls-1" d="M736.05,855a22.59,22.59,0,1,1-6.61-16,22.59,22.59,0,0,1,6.61,16Z"/><path class="cls-4" d="M721.29,967.78c-25.52.51-58.73,9.64-87.66,42.36l10.18,9c26.39-29.84,55.12-37.32,77.74-37.77S760,987.69,760,987.69l5.35-12.5s-18.51-7.91-44-7.41Z"/></g></g></svg>