<svg xmlns="http://www.w3.org/2000/svg" viewBox="0 0 1248.64 1628.1"><defs><style>.cls-1{fill:#fff;}.cls-2{fill:#ccc;}.cls-3{fill:#be78d1;}.cls-4{fill:#1a1a1a;}.cls-5{fill:#6ace29;}.cls-6{fill:#e0edb4;}.cls-7{fill:#e4a9f6;}.cls-8{fill:#f3caff;}.cls-9{fill:#da98e5;}.cls-10{fill:#9552af;}.cls-11{fill:#ba6bd0;}.cls-12{fill:#ff8ab1;}.cls-13{fill:#f0f;}.cls-14{fill:#af0035;}.cls-15{fill:#ff5574;}.cls-16{fill:#b9dae9;}.cls-17{fill:#8bb0cc;}.cls-18{fill:#ff95a2;}</style></defs><g id="Layer_2" data-name="Layer 2"><g id="Layer_1-2" data-name="Layer 1"><path class="cls-1" d="M624.3,846.72h-.89c-.24,0-.47,0-.7.09l-.68.09-.67.15-.6.12h-.09l-.2.09-.9.3-.63.26-.62.28-.61.32c-.2.11-.4.22-.59.34l-.57.37-.55.4c-.18.14-.36.28-.53.43s-.35.3-.51.46l-.49.48c-.16.16-.31.33-.46.5s-.3.35-.44.54-.28.36-.41.54-.26.37-.38.57-.25.38-.36.58l-.32.61c-.1.2-.2.41-.29.61s-.18.43-.27.64-.15.43-.22.64-.14.44-.2.66-.12.43-.17.65-.09.45-.13.68-.07.45-.1.68l-.09.68c0,.23,0,.45,0,.67v.27c0,.22,0,.45,0,.68,0,.07,0,.14,0,.21,0,.23.05.45.09.68s0,.45.09.68.09.45.15.68.08.41.13.61v.09a1.21,1.21,0,0,0,.09.2q.13.45.3.9c.08.21.16.42.25.63s.18.42.28.62.21.41.32.61.22.39.34.59a5.57,5.57,0,0,0,.37.57c.13.19.25.38.39.56s.28.36.43.53.3.34.45.51.32.33.49.49l.5.46.53.44c.18.14.36.28.55.41l.56.38c.19.13.39.24.59.36l.6.32.62.3.63.25c.21.09.43.17.65.24l.65.19.67.17c.22.05.44.1.67.13s.45.08.67.1l.67.09h.69l.26,0h.9l.69-.1c.23,0,.45,0,.68-.09l.66-.14.62-.13H628l.2-.09.9-.3.63-.26.63-.28.6-.32.6-.34.57-.37.55-.4.54-.43.51-.45.48-.48.47-.49.43-.54c.14-.18.28-.35.41-.54s.26-.38.39-.57l.35-.58c.12-.2.22-.41.32-.61s.2-.41.29-.61.18-.42.26-.63l.24-.65c.06-.22.13-.43.19-.65s.12-.44.17-.66.09-.45.13-.68.07-.45.1-.67.06-.46.09-.69,0-.45,0-.67v-.27c0-.23,0-.46,0-.68a1.48,1.48,0,0,0,0-.21c0-.23,0-.47-.09-.7s0-.45-.09-.67-.09-.45-.14-.68-.09-.41-.13-.61v-.09l-.09-.2c-.09-.3-.19-.6-.3-.89s-.17-.43-.26-.64-.18-.42-.28-.62-.2-.41-.32-.61-.21-.39-.33-.59-.25-.38-.38-.56-.26-.38-.4-.56l-.42-.53c-.15-.18-.31-.35-.46-.52s-.32-.33-.49-.48-.32-.32-.5-.47-.35-.29-.53-.43l-.54-.41c-.19-.13-.38-.26-.58-.38s-.39-.24-.58-.36-.4-.22-.61-.32l-.62-.3c-.2-.09-.41-.17-.63-.25l-.63-.24-.66-.19-.67-.18-.66-.12c-.23,0-.46-.08-.69-.1s-.45-.07-.67-.09h-.69l-.25,0Z"/><path class="cls-1" d="M624.3,846.72h-.89c-.24,0-.47,0-.7.09l-.68.09-.67.15-.6.12h-.09l-.2.09-.9.3-.63.26-.62.28-.61.32c-.2.11-.4.22-.59.34l-.57.37-.55.4c-.18.14-.36.28-.53.43s-.35.3-.51.46l-.49.48c-.16.16-.31.33-.46.5s-.3.35-.44.54-.28.36-.41.54-.26.37-.38.57-.25.38-.36.58l-.32.61c-.1.2-.2.41-.29.61s-.18.43-.27.64-.15.43-.22.64-.14.44-.2.66-.12.43-.17.65-.09.45-.13.68-.07.45-.1.68l-.09.68c0,.23,0,.45,0,.67v.27c0,.22,0,.45,0,.68,0,.07,0,.14,0,.21,0,.23.05.45.09.68s0,.46.09.69.09.45.15.68.08.4.13.6v.09a1.21,1.21,0,0,0,.09.2q.13.45.3.9c.08.21.16.42.25.63s.18.42.28.62.21.41.32.61.22.39.34.59a5.57,5.57,0,0,0,.37.57c.13.19.25.38.39.56s.28.36.43.53.3.34.45.51.32.33.49.49l.5.46.53.44c.18.14.36.28.55.41l.56.38c.19.13.39.24.59.36l.6.32.62.3.63.25c.21.09.43.17.65.24l.65.19.67.17c.22,0,.44.09.67.12l.67.1.67.1h1.85l.69-.09.68-.1.66-.14.62-.13H628l.2-.09q.45-.13.9-.3l.63-.26c.21-.08.42-.18.63-.28l.6-.32.6-.33.57-.38.55-.4.54-.43.51-.45q.24-.23.48-.48l.47-.49.43-.53c.14-.18.28-.36.41-.55s.26-.37.39-.56.24-.39.35-.59.22-.4.32-.61.2-.41.29-.61.18-.42.26-.63l.24-.65c.06-.22.13-.43.19-.65s.12-.44.17-.66.09-.45.13-.68.07-.45.1-.67.06-.46.09-.69,0-.45,0-.67v-.27q0-.35,0-.69a1.48,1.48,0,0,0,0-.21q0-.35-.09-.69c0-.23,0-.46-.09-.68s-.09-.45-.14-.67-.09-.41-.13-.61v-.09l-.09-.2c-.09-.3-.19-.6-.3-.89s-.17-.43-.26-.64-.18-.42-.28-.62-.2-.41-.32-.6-.21-.4-.33-.6-.25-.38-.38-.56-.26-.38-.4-.56l-.42-.53-.46-.52-.49-.48c-.16-.16-.32-.32-.5-.47l-.53-.44-.54-.41c-.19-.13-.38-.26-.58-.38l-.58-.35c-.2-.12-.4-.22-.61-.32s-.41-.21-.62-.3-.41-.18-.63-.26l-.63-.24-.66-.19-.67-.17-.66-.13-.69-.1c-.22,0-.45-.07-.67-.09h-1Z"/><path class="cls-1" d="M624.3,846.72h-.89c-.24,0-.47,0-.7.09l-.68.09-.67.15-.6.12h-.09l-.2.09-.9.3-.63.26-.62.28-.61.32c-.2.11-.4.22-.59.34l-.57.37-.55.4c-.18.14-.36.28-.53.43s-.35.3-.51.46l-.49.48c-.16.16-.31.33-.46.5s-.3.35-.44.54-.28.36-.41.54-.26.37-.38.57-.25.38-.36.58l-.32.61c-.1.2-.2.41-.29.61s-.18.43-.27.64-.15.43-.22.64-.14.44-.2.66-.12.43-.17.65-.09.45-.13.68-.07.45-.1.68l-.09.68c0,.23,0,.45,0,.67v.27c0,.22,0,.45,0,.68,0,.07,0,.14,0,.21,0,.23.05.45.09.68s0,.46.09.69.09.45.15.68.08.4.13.6v.09a1.21,1.21,0,0,0,.09.2q.13.45.3.9c.08.21.16.42.25.63s.18.42.28.62.21.41.32.61.22.39.34.59a5.57,5.57,0,0,0,.37.57c.13.19.25.38.39.56s.28.36.43.53.3.34.45.51.32.33.49.49l.5.46.53.44c.18.14.36.28.55.41l.56.38c.19.13.39.24.59.36l.6.32.62.3.63.25c.21.09.43.17.65.24l.65.19.67.17c.22,0,.44.09.67.12l.67.1.67.1h1.85l.69-.09.68-.1.66-.14.62-.13H628l.2-.09q.45-.13.9-.3l.63-.26c.21-.08.42-.18.63-.28l.6-.32.6-.33.57-.38.55-.4.54-.43.51-.45q.24-.23.48-.48l.47-.49.43-.53c.14-.18.28-.36.41-.55s.26-.37.39-.56.24-.39.35-.59.22-.4.32-.61.2-.41.29-.61.18-.42.26-.63l.24-.65c.06-.22.13-.43.19-.65s.12-.44.17-.66.09-.45.13-.68.07-.45.1-.67.06-.46.09-.69,0-.45,0-.67v-.27q0-.35,0-.69a1.48,1.48,0,0,0,0-.21q0-.35-.09-.69c0-.23,0-.46-.09-.68s-.09-.45-.14-.67-.09-.41-.13-.61v-.09l-.09-.2c-.09-.3-.19-.6-.3-.89s-.17-.43-.26-.64-.18-.42-.28-.62-.2-.41-.32-.6-.21-.4-.33-.6-.25-.38-.38-.56-.26-.38-.4-.56l-.42-.53-.46-.52-.49-.48c-.16-.16-.32-.32-.5-.47l-.53-.44-.54-.41c-.19-.13-.38-.26-.58-.38l-.58-.35c-.2-.12-.4-.22-.61-.32s-.41-.21-.62-.3-.41-.18-.63-.26l-.63-.24-.66-.19-.67-.17-.66-.13-.69-.1c-.22,0-.45-.07-.67-.09h-1Z"/><path class="cls-1" d="M624.3,846.72h-.89c-.24,0-.47,0-.7.09l-.68.09-.67.15-.6.12h-.09l-.2.09-.9.3-.63.26-.62.28-.61.32c-.2.11-.4.22-.59.34l-.57.37-.55.4c-.18.14-.36.28-.53.43s-.35.3-.51.46l-.49.48c-.16.16-.31.33-.46.5s-.3.35-.44.54-.28.36-.41.54-.26.37-.38.57-.25.38-.36.58l-.32.61c-.1.2-.2.41-.29.61s-.18.43-.27.64-.15.43-.22.64-.14.44-.2.66-.12.43-.17.65-.09.45-.13.68-.07.45-.1.68l-.09.68c0,.23,0,.45,0,.67v.27c0,.22,0,.45,0,.68,0,.07,0,.14,0,.21,0,.23.05.45.09.68s0,.46.09.69.09.45.15.68.08.4.13.6v.09a1.21,1.21,0,0,0,.09.2q.13.45.3.9c.08.21.16.42.25.63s.18.42.28.62.21.41.32.61.22.39.34.59a5.57,5.57,0,0,0,.37.57c.13.19.25.38.39.56s.28.36.43.53.3.34.45.51.32.33.49.49l.5.46.53.44c.18.14.36.28.55.41l.56.38c.19.13.39.24.59.36l.6.32.62.3.63.25c.21.09.43.17.65.24l.65.19.67.17c.22,0,.44.09.67.12l.67.1.67.1h1.85l.69-.09.68-.1.66-.14.62-.13H628l.2-.09q.45-.13.9-.3l.63-.26c.21-.08.42-.18.63-.28l.6-.32.6-.33.57-.38.55-.4.54-.43.51-.45q.24-.23.48-.48l.47-.49.43-.53c.14-.18.28-.36.41-.55s.26-.37.39-.56.24-.39.35-.59.22-.4.32-.61.2-.41.29-.61.18-.42.26-.63l.24-.65c.06-.22.13-.43.19-.65s.12-.44.17-.66.09-.45.13-.68.07-.45.1-.67.06-.46.09-.69,0-.45,0-.67v-.27q0-.35,0-.69a1.48,1.48,0,0,0,0-.21q0-.35-.09-.69c0-.23,0-.46-.09-.68s-.09-.45-.14-.67-.09-.41-.13-.61v-.09l-.09-.2c-.09-.3-.19-.6-.3-.89s-.17-.43-.26-.64-.18-.42-.28-.62-.2-.41-.32-.6-.21-.4-.33-.6-.25-.38-.38-.56-.26-.38-.4-.56l-.42-.53-.46-.52-.49-.48c-.16-.16-.32-.32-.5-.47l-.53-.44-.54-.41c-.19-.13-.38-.26-.58-.38l-.58-.35c-.2-.12-.4-.22-.61-.32s-.41-.21-.62-.3-.41-.18-.63-.26l-.63-.24-.66-.19-.67-.17-.66-.13-.69-.1c-.22,0-.45-.07-.67-.09h-1Z"/><path class="cls-1" d="M624.3,846.72h-.89c-.24,0-.47,0-.7.09l-.68.09-.67.15-.6.12h-.09l-.2.09-.9.3-.63.26-.62.28-.61.32c-.2.11-.4.22-.59.34l-.57.37-.55.4c-.18.14-.36.28-.53.43s-.35.3-.51.46l-.49.48c-.16.16-.31.33-.46.5s-.3.35-.44.54-.28.36-.41.54-.26.37-.38.57-.25.38-.36.58l-.32.61c-.1.2-.2.41-.29.61s-.18.43-.27.64-.15.43-.22.64-.14.44-.2.66-.12.43-.17.65-.09.45-.13.68-.07.45-.1.68l-.09.68c0,.23,0,.45,0,.67v.27c0,.22,0,.45,0,.68,0,.07,0,.14,0,.21,0,.23.05.45.09.68s0,.46.09.69.09.45.15.68.08.4.13.6v.09a1.21,1.21,0,0,0,.09.2q.13.45.3.9c.08.21.16.42.25.63s.18.42.28.62.21.41.32.61.22.39.34.59a5.57,5.57,0,0,0,.37.57c.13.19.25.38.39.56s.28.36.43.53.3.34.45.51.32.33.49.49l.5.46.53.44c.18.14.36.28.55.41l.56.38c.19.13.39.24.59.36l.6.32.62.3.63.25c.21.09.43.17.65.24l.65.19.67.17c.22,0,.44.09.67.12l.67.1.67.1h1.85l.69-.09.68-.1.66-.14.62-.13H628l.2-.09q.45-.13.9-.3l.63-.26c.21-.08.42-.18.63-.28l.6-.32.6-.33.57-.38.55-.4.54-.43.51-.45q.24-.23.48-.48l.47-.49.43-.53c.14-.18.28-.36.41-.55s.26-.37.39-.56.24-.39.35-.59.22-.4.32-.61.2-.41.29-.61.18-.42.26-.63l.24-.65c.06-.22.13-.43.19-.65s.12-.44.17-.66.09-.45.13-.68.07-.45.1-.67.06-.46.09-.69,0-.45,0-.67v-.27q0-.35,0-.69a1.48,1.48,0,0,0,0-.21q0-.35-.09-.69c0-.23,0-.46-.09-.68s-.09-.45-.14-.67-.09-.41-.13-.61v-.09l-.09-.2c-.09-.3-.19-.6-.3-.89s-.17-.43-.26-.64-.18-.42-.28-.62-.2-.41-.32-.6-.21-.4-.33-.6-.25-.38-.38-.56-.26-.38-.4-.56l-.42-.53-.46-.52-.49-.48c-.16-.16-.32-.32-.5-.47l-.53-.44-.54-.41c-.19-.13-.38-.26-.58-.38l-.58-.35c-.2-.12-.4-.22-.61-.32s-.41-.21-.62-.3-.41-.18-.63-.26l-.63-.24-.66-.19-.67-.17-.66-.13-.69-.1c-.22,0-.45-.07-.67-.09h-1Z"/><path class="cls-1" d="M624.3,846.72h-.89c-.24,0-.47,0-.7.09l-.68.09-.67.15-.6.12h-.09l-.2.09-.9.3-.63.26-.62.28-.61.32c-.2.11-.4.22-.59.34l-.57.37-.55.4c-.18.14-.36.28-.53.43s-.35.3-.51.46l-.49.48c-.16.16-.31.33-.46.5s-.3.35-.44.54-.28.36-.41.54-.26.37-.38.57-.25.38-.36.58l-.32.61c-.1.2-.2.41-.29.61s-.18.43-.27.64-.15.43-.22.64-.14.44-.2.66-.12.43-.17.65-.09.45-.13.68-.07.45-.1.68l-.09.68c0,.23,0,.45,0,.67v.27c0,.22,0,.45,0,.68,0,.07,0,.14,0,.21,0,.23.05.45.09.68s0,.46.09.69.09.45.15.68.08.4.13.6v.09a1.21,1.21,0,0,0,.09.2q.13.45.3.9c.08.21.16.42.25.63s.18.42.28.62.21.41.32.61.22.39.34.59a5.57,5.57,0,0,0,.37.57c.13.19.25.38.39.56s.28.36.43.53.3.34.45.51.32.33.49.49l.5.46.53.44c.18.14.36.28.55.41l.56.38c.19.13.39.24.59.36l.6.32.62.3.63.25c.21.09.43.17.65.24l.65.19.67.17c.22,0,.44.09.67.12l.67.1.67.1h1.85l.69-.09.68-.1.66-.14.62-.13H628l.2-.09q.45-.13.9-.3l.63-.26c.21-.08.42-.18.63-.28l.6-.32.6-.33.57-.38.55-.4.54-.43.51-.45q.24-.23.48-.48l.47-.49.43-.53c.14-.18.28-.36.41-.55s.26-.37.39-.56.24-.39.35-.59.22-.4.32-.61.2-.41.29-.61.18-.42.26-.63l.24-.65c.06-.22.13-.43.19-.65s.12-.44.17-.66.09-.45.13-.68.07-.45.1-.67.06-.46.09-.69,0-.45,0-.67v-.27q0-.35,0-.69a1.48,1.48,0,0,0,0-.21q0-.35-.09-.69c0-.23,0-.46-.09-.68s-.09-.45-.14-.67-.09-.41-.13-.61v-.09l-.09-.2c-.09-.3-.19-.6-.3-.89s-.17-.43-.26-.64-.18-.42-.28-.62-.2-.41-.32-.6-.21-.4-.33-.6-.25-.38-.38-.56-.26-.38-.4-.56l-.42-.53-.46-.52-.49-.48c-.16-.16-.32-.32-.5-.47l-.53-.44-.54-.41c-.19-.13-.38-.26-.58-.38l-.58-.35c-.2-.12-.4-.22-.61-.32s-.41-.21-.62-.3-.41-.18-.63-.26l-.63-.24-.66-.19-.67-.17-.66-.13-.69-.1c-.22,0-.45-.07-.67-.09h-1Z"/><path class="cls-1" d="M624.3,846.72h-.89c-.24,0-.47,0-.7.09l-.68.09-.67.15-.6.12h-.09l-.2.09-.9.3-.63.26-.62.28-.61.32c-.2.11-.4.22-.59.34l-.57.37-.55.4c-.18.14-.36.28-.53.43s-.35.3-.51.46l-.49.48c-.16.16-.31.33-.46.5s-.3.35-.44.54-.28.36-.41.54-.26.37-.38.57-.25.38-.36.58l-.32.61c-.1.2-.2.41-.29.61s-.18.43-.27.64-.15.43-.22.64-.14.44-.2.66-.12.43-.17.65-.09.45-.13.68-.07.45-.1.68l-.09.68c0,.23,0,.45,0,.67v.27c0,.22,0,.45,0,.68,0,.07,0,.14,0,.21,0,.23.05.45.09.68s0,.46.09.69.09.45.15.68.08.4.13.6v.09a1.21,1.21,0,0,0,.09.2q.13.45.3.9c.08.21.16.42.25.63s.18.42.28.62.21.41.32.61.22.39.34.59a5.57,5.57,0,0,0,.37.57c.13.19.25.38.39.56s.28.36.43.53.3.34.45.51.32.33.49.49l.5.46.53.44c.18.14.36.28.55.41l.56.38c.19.13.39.24.59.36l.6.32.62.3.63.25c.21.09.43.17.65.24l.65.19.67.17c.22,0,.44.09.67.12l.67.1.67.1h1.85l.69-.09.68-.1.66-.14.62-.13H628l.2-.09q.45-.13.9-.3l.63-.26c.21-.08.42-.18.63-.28l.6-.32.6-.33.57-.38.55-.4.54-.43.51-.45q.24-.23.48-.48l.47-.49.43-.53c.14-.18.28-.36.41-.55s.26-.37.39-.56.24-.39.35-.59.22-.4.32-.61.2-.41.29-.61.18-.42.26-.63l.24-.65c.06-.22.13-.43.19-.65s.12-.44.17-.66.09-.45.13-.68.07-.45.1-.67.06-.46.09-.69,0-.45,0-.67v-.27q0-.35,0-.69a1.48,1.48,0,0,0,0-.21q0-.35-.09-.69c0-.23,0-.46-.09-.68s-.09-.45-.14-.67-.09-.41-.13-.61v-.09l-.09-.2c-.09-.3-.19-.6-.3-.89s-.17-.43-.26-.64-.18-.42-.28-.62-.2-.41-.32-.6-.21-.4-.33-.6-.25-.38-.38-.56-.26-.38-.4-.56l-.42-.53-.46-.52-.49-.48c-.16-.16-.32-.32-.5-.47l-.53-.44-.54-.41c-.19-.13-.38-.26-.58-.38l-.58-.35c-.2-.12-.4-.22-.61-.32s-.41-.21-.62-.3-.41-.18-.63-.26l-.63-.24-.66-.19-.67-.17-.66-.13-.69-.1c-.22,0-.45-.07-.67-.09h-1Z"/><path class="cls-1" d="M624.3,846.72h-.89c-.24,0-.47,0-.7.09l-.68.09-.67.15-.6.12h-.09l-.2.09-.9.3-.63.26-.62.28-.61.32c-.2.11-.4.22-.59.34l-.57.37-.55.4c-.18.14-.36.28-.53.43s-.35.3-.51.46l-.49.48c-.16.16-.31.33-.46.5s-.3.35-.44.54-.28.36-.41.54-.26.37-.38.57-.25.38-.36.58l-.32.61c-.1.2-.2.41-.29.61s-.18.43-.27.64-.15.43-.22.64-.14.44-.2.66-.12.43-.17.65-.09.45-.13.68-.07.45-.1.68l-.09.68c0,.23,0,.45,0,.67v.27c0,.22,0,.45,0,.68,0,.07,0,.14,0,.21,0,.23.05.45.09.68s0,.46.09.69.09.45.15.68.08.4.13.6v.09a1.21,1.21,0,0,0,.09.2q.13.45.3.9c.08.21.16.42.25.63s.18.42.28.62.21.41.32.61.22.39.34.59a5.57,5.57,0,0,0,.37.57c.13.19.25.38.39.56s.28.36.43.53.3.34.45.51.32.33.49.49l.5.46.53.44c.18.14.36.28.55.41l.56.38c.19.13.39.24.59.36l.6.32.62.3.63.25c.21.09.43.17.65.24l.65.19.67.17c.22,0,.44.09.67.12l.67.1.67.1h1.85l.69-.09.68-.1.66-.14.62-.13H628l.2-.09q.45-.13.9-.3l.63-.26c.21-.08.42-.18.63-.28l.6-.32.6-.33.57-.38.55-.4.54-.43.51-.45q.24-.23.48-.48l.47-.49.43-.53c.14-.18.28-.36.41-.55s.26-.37.39-.56.24-.39.35-.59.22-.4.32-.61.2-.41.29-.61.18-.42.26-.63l.24-.65c.06-.22.13-.43.19-.65s.12-.44.17-.66.09-.45.13-.68.07-.45.1-.67.06-.46.09-.69,0-.45,0-.67v-.27q0-.35,0-.69a1.48,1.48,0,0,0,0-.21q0-.35-.09-.69c0-.23,0-.46-.09-.68s-.09-.45-.14-.67-.09-.41-.13-.61v-.09l-.09-.2c-.09-.3-.19-.6-.3-.89s-.17-.43-.26-.64-.18-.42-.28-.62-.2-.41-.32-.6-.21-.4-.33-.6-.25-.38-.38-.56-.26-.38-.4-.56l-.42-.53-.46-.52-.49-.48c-.16-.16-.32-.32-.5-.47l-.53-.44-.54-.41c-.19-.13-.38-.26-.58-.38l-.58-.35c-.2-.12-.4-.22-.61-.32s-.41-.21-.62-.3-.41-.18-.63-.26l-.63-.24-.66-.19-.67-.17-.66-.13-.69-.1c-.22,0-.45-.07-.67-.09h-1Z"/><path class="cls-1" d="M624.3,846.72h-.89c-.24,0-.47,0-.7.09l-.68.09-.67.15-.6.12h-.09l-.2.09-.9.3-.63.26-.62.28-.61.32c-.2.11-.4.22-.59.34l-.57.37-.55.4c-.18.14-.36.28-.53.43s-.35.3-.51.46l-.49.48c-.16.16-.31.33-.46.5s-.3.35-.44.54-.28.36-.41.54-.26.37-.38.57-.25.38-.36.58l-.32.61c-.1.2-.2.41-.29.61s-.18.43-.27.64-.15.43-.22.64-.14.44-.2.66-.12.43-.17.65-.09.45-.13.68-.07.45-.1.68l-.09.68c0,.23,0,.45,0,.67v.27c0,.22,0,.45,0,.68,0,.07,0,.14,0,.21,0,.23.05.45.09.68s0,.46.09.69.09.45.15.68.08.4.13.6v.09a1.21,1.21,0,0,0,.09.2q.13.45.3.9c.08.21.16.42.25.63s.18.42.28.62.21.41.32.61.22.39.34.59a5.57,5.57,0,0,0,.37.57c.13.19.25.38.39.56s.28.36.43.53.3.34.45.51.32.33.49.49l.5.46.53.44c.18.14.36.28.55.41l.56.38c.19.13.39.24.59.36l.6.32.62.3.63.25c.21.09.43.17.65.24l.65.19.67.17c.22,0,.44.09.67.12l.67.1.67.1h1.85l.69-.09.68-.1.66-.14.62-.13H628l.2-.09q.45-.13.9-.3l.63-.26c.21-.08.42-.18.63-.28l.6-.32.6-.33.57-.38.55-.4.54-.43.51-.45q.24-.23.48-.48l.47-.49.43-.53c.14-.18.28-.36.41-.55s.26-.37.39-.56.24-.39.35-.59.22-.4.32-.61.2-.41.29-.61.18-.42.26-.63l.24-.65c.06-.22.13-.43.19-.65s.12-.44.17-.66.09-.45.13-.68.07-.45.1-.67.06-.46.09-.69,0-.45,0-.67v-.27q0-.35,0-.69a1.48,1.48,0,0,0,0-.21q0-.35-.09-.69c0-.23,0-.46-.09-.68s-.09-.45-.14-.67-.09-.41-.13-.61v-.09l-.09-.2c-.09-.3-.19-.6-.3-.89s-.17-.43-.26-.64-.18-.42-.28-.62-.2-.41-.32-.6-.21-.4-.33-.6-.25-.38-.38-.56-.26-.38-.4-.56l-.42-.53-.46-.52-.49-.48c-.16-.16-.32-.32-.5-.47l-.53-.44-.54-.41c-.19-.13-.38-.26-.58-.38l-.58-.35c-.2-.12-.4-.22-.61-.32s-.41-.21-.62-.3-.41-.18-.63-.26l-.63-.24-.66-.19-.67-.17-.66-.13-.69-.1c-.22,0-.45-.07-.67-.09h-1Z"/><path class="cls-1" d="M624.3,846.72h-.89c-.24,0-.47,0-.7.09l-.68.09-.67.15-.6.12h-.09l-.2.09-.9.3-.63.26-.62.28-.61.32c-.2.11-.4.22-.59.34l-.57.37-.55.4c-.18.14-.36.28-.53.43s-.35.3-.51.46l-.49.48c-.16.16-.31.33-.46.5s-.3.35-.44.54-.28.36-.41.54-.26.37-.38.57-.25.38-.36.58l-.32.61c-.1.2-.2.41-.29.61s-.18.43-.27.64-.15.43-.22.64-.14.44-.2.66-.12.43-.17.65-.09.45-.13.68-.07.45-.1.68l-.09.68c0,.23,0,.45,0,.67v.27c0,.22,0,.45,0,.68,0,.07,0,.14,0,.21,0,.23.05.45.09.68s0,.46.09.69.09.45.15.68.08.4.13.6v.09a1.21,1.21,0,0,0,.09.2q.13.45.3.9c.08.21.16.42.25.63s.18.42.28.62.21.41.32.61.22.39.34.59a5.57,5.57,0,0,0,.37.57c.13.19.25.38.39.56s.28.36.43.53.3.34.45.51.32.33.49.49l.5.46.53.44c.18.14.36.28.55.41l.56.38c.19.13.39.24.59.36l.6.32.62.3.63.25c.21.09.43.17.65.24l.65.19.67.17c.22,0,.44.09.67.12l.67.1.67.1h1.85l.69-.09.68-.1.66-.14.62-.13H628l.2-.09q.45-.13.9-.3l.63-.26c.21-.08.42-.18.63-.28l.6-.32.6-.33.57-.38.55-.4.54-.43.51-.45q.24-.23.48-.48l.47-.49.43-.53c.14-.18.28-.36.41-.55s.26-.37.39-.56.24-.39.35-.59.22-.4.32-.61.2-.41.29-.61.18-.42.26-.63l.24-.65c.06-.22.13-.43.19-.65s.12-.44.17-.66.09-.45.13-.68.07-.45.1-.67.06-.46.09-.69,0-.45,0-.67v-.27q0-.35,0-.69a1.48,1.48,0,0,0,0-.21q0-.35-.09-.69c0-.23,0-.46-.09-.68s-.09-.45-.14-.67-.09-.41-.13-.61v-.09l-.09-.2c-.09-.3-.19-.6-.3-.89s-.17-.43-.26-.64-.18-.42-.28-.62-.2-.41-.32-.6-.21-.4-.33-.6-.25-.38-.38-.56-.26-.38-.4-.56l-.42-.53-.46-.52-.49-.48c-.16-.16-.32-.32-.5-.47l-.53-.44-.54-.41c-.19-.13-.38-.26-.58-.38l-.58-.35c-.2-.12-.4-.22-.61-.32s-.41-.21-.62-.3-.41-.18-.63-.26l-.63-.24-.66-.19-.67-.17-.66-.13-.69-.1c-.22,0-.45-.07-.67-.09h-1Z"/><path class="cls-2" d="M943,1548.44c0,21.13-33.57,41.39-93.33,56.33s-140.82,23.33-225.33,23.33-165.57-8.39-225.33-23.33-93.33-35.2-93.33-56.33,33.57-41.4,93.33-56.33,140.81-23.34,225.33-23.34c176,0,318.66,35.67,318.66,79.67Z"/><path class="cls-3" d="M531.34,1340c0,81.69-27.24,197.82-60.84,197.82S409.64,1421.66,409.64,1340s36-98,60.86-98,60.84,16.32,60.84,98Z"/><path class="cls-4" d="M470.5,1225a69,69,0,0,0-52.72,24.38c-15.61,18.43-25.12,47.27-25.12,90.61,0,42.73,6.94,93.07,18.46,134.13,5.76,20.53,12.55,38.67,21.12,53s20.07,27.68,38.26,27.68,29.68-13.36,38.25-27.68,15.36-32.46,21.12-53c11.52-41.06,18.46-91.4,18.46-134.13,0-43.34-9.51-72.18-25.12-90.61A69,69,0,0,0,470.5,1225Zm0,34c8.72,0,18.19,2.21,26.79,12.37s17.07,30.31,17.07,68.66c0,39-6.69,87.53-17.19,125-5.25,18.71-11.57,34.71-17.56,44.72-4.5,7.51-8.15,10-9.11,10.82-1-.79-4.63-3.31-9.12-10.82-6-10-12.31-26-17.56-44.72-10.5-37.43-17.19-86-17.19-125,0-38.35,8.47-58.51,17.07-68.66s18.07-12.37,26.8-12.37Z"/><path class="cls-3" d="M832.23,1324.84c21.14,78.91,24.88,198.13-7.58,206.83s-88.83-96.43-110-175.33,9.37-104,33.41-110.42,63,0,84.14,78.92Z"/><path class="cls-4" d="M743.69,1229.51a69,69,0,0,0-44.61,37.19c-10.3,21.85-12,52.17-.81,94,11.07,41.28,30.79,88.11,52.55,124.79,10.87,18.34,22.13,34.1,34.11,45.71s26.55,21.54,44.12,16.84,25.22-20.6,29.79-36.64,6.43-35.33,6.68-56.65c.51-42.65-5.83-93.06-16.89-134.34-11.22-41.86-27.86-67.26-47.71-81a69,69,0,0,0-57.23-9.91Zm8.79,32.81c8.43-2.26,18.15-2.57,29.09,5s24.33,24.87,34.26,61.91c10.08,37.63,16.19,86.29,15.73,125.15-.23,19.43-2.19,36.52-5.39,47.74-2.4,8.42-5.27,11.8-6,12.82-1.14-.52-5.32-2-11.6-8.1-8.38-8.12-18.63-21.93-28.54-38.65-19.84-33.43-38.87-78.62-48.95-116.25-9.93-37-7-58.71-1.28-70.74s14.25-16.62,22.68-18.88Z"/><path class="cls-3" d="M160.21,997.52C89.46,956.67,2.51,875,19.32,845.91s131,5.37,201.73,46.21,66.9,80.16,54.46,101.7-44.56,44.54-115.3,3.7Z"/><path class="cls-4" d="M290.22,1002.32a69,69,0,0,0,5.24-57.85c-8.16-22.73-28.38-45.38-65.91-67.05-37-21.37-84.07-40.54-125.39-51.09-20.66-5.27-39.77-8.46-56.45-8.2s-34,3.55-43.1,19.29-3.27,32.39,4.84,47,20.43,29.53,35.33,44.79c29.8,30.51,69.93,61.68,106.93,83,37.54,21.68,67.27,27.86,91,23.56a69,69,0,0,0,47.47-33.46Zm-29.42-17c-4.36,7.56-11,14.65-24.1,17s-34.79-.38-68-19.55C135,963.33,96.24,933.25,69.08,905.45,55.5,891.54,44.8,878.07,39.13,867.88c-4.26-7.65-4.61-12.08-4.82-13.31,1.17-.44,5.19-2.34,13.93-2.48,11.67-.18,28.69,2.34,47.51,7.15,37.66,9.62,83.08,28.11,116.82,47.59C245.78,926,259,943.43,263.5,956s1.67,21.83-2.7,29.39Z"/><path class="cls-3" d="M1027.59,892.13c70.74-40.85,184.93-75.32,201.73-46.22s-70.14,110.77-140.89,151.61-102.86,17.86-115.3-3.69-16.29-60.86,54.46-101.7Z"/><path class="cls-4" d="M958.42,1002.32a69,69,0,0,0,47.47,33.46c23.77,4.3,53.5-1.88,91-23.55,37-21.37,77.13-52.54,106.93-83.05,14.9-15.25,27.21-30.21,35.33-44.78s13.93-31.23,4.84-47-26.42-19-43.1-19.29-35.79,2.93-56.45,8.21c-41.32,10.55-88.38,29.72-125.39,51.08-37.53,21.67-57.75,44.33-65.91,67.06a69,69,0,0,0,5.24,57.84Zm29.42-17c-4.37-7.56-7.19-16.87-2.7-29.39s17.72-29.94,50.93-49.12c33.74-19.47,79.16-38,116.82-47.59,18.82-4.81,35.84-7.33,47.5-7.15,8.75.14,12.77,2,13.94,2.48-.21,1.24-.56,5.66-4.82,13.31-5.67,10.19-16.37,23.66-30,37.57-27.16,27.8-65.88,57.89-99.62,77.37-33.21,19.17-54.91,21.91-68,19.54s-19.74-9.46-24.1-17Z"/><path class="cls-4" d="M624.32,458.16c-262.87,0-476.55,213.68-476.55,476.55a476.57,476.57,0,0,0,161.35,357.41q2.24,2,4.52,3.93l.11.12.83.71s0,0,.06,0c103.09,89.32,201.68,119.48,297.48,167.63l12.2,6.13,12.21-6.13c95.83-48.17,194.45-78.32,297.57-167.7q2.73-2.34,5.43-4.71a476.62,476.62,0,0,0,161.34-357.42c0-257.26-204.8-466.86-459.94-475.71l-.47-.86Zm-.47,54.37h.48c233.49,0,422.19,188.7,422.19,422.2a422.13,422.13,0,0,1-142.94,316.65q-2.45,2.16-4.94,4.29l-.07.06-.07.06c-90.78,78.68-178.32,107.6-274.17,154.45-95.78-46.81-183.24-75.73-273.94-154.26l-.41-.35q-2.48-2.12-4.91-4.26h0A422.16,422.16,0,0,1,202.11,934.72c0-233.34,188.46-421.93,421.74-422.18Z"/><path class="cls-4" d="M430.75,94.48a59.22,59.22,0,0,0-33.7,7.78C369,118.45,359,155.07,375.6,183l-.74-1.32a1095.26,1095.26,0,0,1,86.95,223.54,1108.8,1108.8,0,0,1-3.28,586.37l-7.41,26.46,113.21,30.34,7.23-25.9A1225.94,1225.94,0,0,0,575,374.9,1249.25,1249.25,0,0,0,478.12,125l-.16-.32-.18-.32a58.35,58.35,0,0,0-35.82-28h0a58.62,58.62,0,0,0-11.2-1.87Zm-2.93,54.35h0a3.4,3.4,0,0,1,2.29,1.75A1195.37,1195.37,0,0,1,522.52,389c53.06,198,51.76,401.69,3.07,592.77l-8.19-2.19c48.33-189.81,49.52-392.07-3.09-588.39A1149.47,1149.47,0,0,0,423,156.52l-.35-.67-.39-.65c-1.1-1.86-.66-4.38,1.93-5.88a4.47,4.47,0,0,1,3.6-.5Z"/><path class="cls-4" d="M801.86,94.48a58.35,58.35,0,0,0-47,29.92l-.17.32-.17.32A1249,1249,0,0,0,657.6,374.91a1225.9,1225.9,0,0,0,3.45,647.59l7.24,25.9,113.21-30.33-7.41-26.46a1108.69,1108.69,0,0,1-3.29-586.37,1095.84,1095.84,0,0,1,87-223.54L857,183c16.64-27.94,6.58-64.57-21.45-80.76h0a59.2,59.2,0,0,0-33.7-7.78Zm2.94,54.35a4.44,4.44,0,0,1,3.59.5c2.59,1.5,3,4,1.93,5.88l-.39.65-.34.67A1148.93,1148.93,0,0,0,718.3,391.17c-52.6,196.32-51.42,398.58-3.09,588.39L707,981.75C658.33,790.67,657,587,710.1,389a1194.76,1194.76,0,0,1,92.38-238.39,3.4,3.4,0,0,1,2.29-1.75h0Z"/><path class="cls-4" d="M677.23.32A58.57,58.57,0,0,0,628.9,37l-.13.34-.12.34a1249.15,1249.15,0,0,0-63.44,260.38,1226,1226,0,0,0,113,696.49l8.56,17.62,123.39-16.24-17.43-34.26a1109,1109,0,0,1-111.3-648.32,1095.23,1095.23,0,0,1,57-233l-.56,1.41C750.71,51.91,736,16.9,706.05,4.52A59.23,59.23,0,0,0,677.24.32Zm5.7,54.05h0a4.56,4.56,0,0,1,2.31.36h0c2.77,1.15,3.53,3.6,2.68,5.58l-.3.69-.26.72a1149.53,1149.53,0,0,0-59.87,244.54A1163.18,1163.18,0,0,0,727.57,952l-8.71,1.15a1171.21,1171.21,0,0,1-99.77-648,1193.78,1193.78,0,0,1,60.47-248.4,3.76,3.76,0,0,1,3.37-2.39Z"/><path class="cls-5" d="M454,137.51a1222.21,1222.21,0,0,1,94.78,244.43,1198.55,1198.55,0,0,1-3.37,633.25l-60.7-16.26a1135.91,1135.91,0,0,0,3.37-600.73,1122.43,1122.43,0,0,0-89.12-229.09c-8.87-14.89-3.62-34.47,11.7-43.32a31.84,31.84,0,0,1,24.25-3.2A30.85,30.85,0,0,1,454,137.51Z"/><path class="cls-6" d="M558.13,419.37a529.88,529.88,0,0,0-61.86,11.51,1136,1136,0,0,1-11.58,568.05l60.7,16.26a1198.65,1198.65,0,0,0,12.74-595.82Z"/><path class="cls-4" d="M421.84,115a38.81,38.81,0,0,0-14.6,4.91c-18.49,10.68-24.94,34.52-14.13,52.68l-.18-.33A1115.4,1115.4,0,0,1,481.5,400a1129.18,1129.18,0,0,1-3.35,597.14l-1.85,6.62,73.82,19.77,1.81-6.47a1205.38,1205.38,0,0,0,3.39-636.84A1228.84,1228.84,0,0,0,460,134.4l0-.08-.05-.09A37.67,37.67,0,0,0,436.65,116h0a38.61,38.61,0,0,0-14.81-1Zm1.69,13.48a24.72,24.72,0,0,1,9.59.68h0A23.93,23.93,0,0,1,448,140.77,1215.46,1215.46,0,0,1,542.2,383.7a1191.6,1191.6,0,0,1-1.76,623.13l-47.57-12.74a1142.48,1142.48,0,0,0,1.75-597.65A1128.67,1128.67,0,0,0,405,166l-.09-.17-.09-.17c-6.92-11.63-2.88-26.95,9.25-33.95a25.26,25.26,0,0,1,9.5-3.21Z"/><path class="cls-5" d="M778.64,137.51a1222.25,1222.25,0,0,0-94.79,244.43,1198.65,1198.65,0,0,0,3.38,633.25l60.69-16.26a1136.11,1136.11,0,0,1-3.37-600.73,1122.43,1122.43,0,0,1,89.12-229.09c8.87-14.89,3.62-34.48-11.69-43.32a31.84,31.84,0,0,0-24.25-3.2,30.79,30.79,0,0,0-19.09,14.92Z"/><path class="cls-6" d="M674.89,417.66a1198.62,1198.62,0,0,0,12.34,597.53l60.69-16.26a1136,1136,0,0,1-10.73-571.56,530.75,530.75,0,0,0-62.3-9.71Z"/><path class="cls-4" d="M810.78,115A38.79,38.79,0,0,0,796,116a37.73,37.73,0,0,0-23.29,18.2l0,.08,0,.08a1229.53,1229.53,0,0,0-95.3,245.79,1205.38,1205.38,0,0,0,3.4,636.84l1.8,6.47,73.82-19.78-1.85-6.61A1129.29,1129.29,0,0,1,751.11,400a1116.32,1116.32,0,0,1,88.58-227.71l-.18.34c10.81-18.16,4.36-42-14.13-52.68a38.75,38.75,0,0,0-14.6-4.91Zm-1.7,13.48a25.12,25.12,0,0,1,9.5,3.2c12.13,7,16.18,22.32,9.26,34l-.11.16-.08.17A1129.25,1129.25,0,0,0,738,396.44a1142.59,1142.59,0,0,0,1.75,597.65l-47.56,12.75a1191.53,1191.53,0,0,1-1.76-623.14A1214.86,1214.86,0,0,1,784.6,140.77a24,24,0,0,1,14.89-11.61h0a24.94,24.94,0,0,1,9.59-.68Z"/><path class="cls-5" d="M680.09,27.35A31.16,31.16,0,0,0,654.21,46.9a1222.49,1222.49,0,0,0-62.07,254.71A1198.85,1198.85,0,0,0,702.61,982.67L768.47,974a1136.25,1136.25,0,0,1-114-664.19A1122.13,1122.13,0,0,1,712.91,71.05c6.84-15.93-.91-34.66-17.25-41.43a31.94,31.94,0,0,0-15.57-2.27Z"/><path class="cls-6" d="M624.31,415.23q-20.88,0-41.72,1.64a1199.05,1199.05,0,0,0,120,565.8L768.47,974a1136.53,1136.53,0,0,1-123-558.32q-10.59-.42-21.19-.43Z"/><path class="cls-4" d="M679.37,20.59a38,38,0,0,0-31.49,23.83l0,.08,0,.09a1228.39,1228.39,0,0,0-62.41,256.13A1205.6,1205.6,0,0,0,696.5,985.63l2.14,4.41,80.24-10.56-4.36-8.57A1129.62,1129.62,0,0,1,661.18,310.68a1116,1116,0,0,1,58.1-237.3l-.14.35c8.35-19.42-1.15-42.22-20.89-50.39a38.69,38.69,0,0,0-18.88-2.76Zm1.43,13.52a24.89,24.89,0,0,1,12.25,1.79c13,5.36,19,20,13.61,32.46l-.07.18-.07.18a1129.46,1129.46,0,0,0-58.81,240.2A1142.94,1142.94,0,0,0,758.25,968.5l-51.58,6.79A1192,1192,0,0,1,598.88,302.5,1215.61,1215.61,0,0,1,660.55,49.34,24.3,24.3,0,0,1,680.8,34.11Z"/><path class="cls-7" d="M1073.69,934.71A449.36,449.36,0,1,1,942.07,617a449.37,449.37,0,0,1,131.62,317.76Z"/><path class="cls-3" d="M624.31,485.33A449.37,449.37,0,0,0,204,1093.62c86.28-27.73,225.88-17.77,400.29,86.91,109.44,65.69,232.62,88.23,361,46.91a449.38,449.38,0,0,0-341-742.09Z"/><path class="cls-8" d="M547,504.09a438.19,438.19,0,0,0-67.61,5.25,449.38,449.38,0,0,0-276.7,580.84C277.77,1199.72,407.57,1266,547,1266c108.37,0,212.3-40.14,288.93-111.58S955.61,986.08,955.61,885.05,912.55,687.12,835.93,615.68,655.37,504.09,547,504.09Z"/><path class="cls-9" d="M547,504.09a437.83,437.83,0,0,0-67.59,5.25,449.38,449.38,0,0,0-276.72,580.84c.73,1.06,1.47,2.11,2.21,3.16,86.35-27.36,225.57-17.13,399.37,87.19,36.51,21.92,74.56,39,113.82,50.54,140.2-60.36,237.51-192.59,237.51-346,0-210.4-182.93-381-408.6-381Z"/><path class="cls-7" d="M327.09,1271.74C427.9,1361.06,524.28,1390,624.32,1440.25c100-50.28,196.41-79.19,297.22-168.51l-297.22,28.73Z"/><path class="cls-1" d="M624.31,1300.41a75.27,75.27,0,0,0-69,45.32,75.26,75.26,0,0,0-101.49,13.38c56.67,30.36,113,52.24,170.55,81.16,57.55-28.92,113.88-50.8,170.54-81.16a75.26,75.26,0,0,0-101.49-13.38,75.28,75.28,0,0,0-69.06-45.32Z"/><path class="cls-8" d="M624.32,852.53a10.19,10.19,0,1,0,0,20.38A1264.82,1264.82,0,0,1,878.44,898.7a10.19,10.19,0,0,0,4.1-20,1285.7,1285.7,0,0,0-258.22-26.2Z"/><path class="cls-8" d="M624.32,1000.78a1136.88,1136.88,0,0,0-270.51,32.65,10.19,10.19,0,0,0,4.85,19.79,1117,1117,0,0,1,265.66-32.06,10.19,10.19,0,0,0,0-20.38Z"/><path class="cls-7" d="M553.78,1172.21l-.66,0A968.61,968.61,0,0,0,343,1211.4a10.19,10.19,0,0,0,5.92,19.51,948,948,0,0,1,205.75-38.34,10.19,10.19,0,0,0-.84-20.35Z"/><path class="cls-10" d="M623.46,485.34A449.36,449.36,0,0,0,205,773.14c88.48-88.49,265.43-86,416.91,9.18,121.53,76.39,283.56,84.91,429.58,12.9A449.37,449.37,0,0,0,624.32,485.34Z"/><path class="cls-11" d="M547,504.09a437,437,0,0,0-67.61,5.25A449.34,449.34,0,0,0,205,773.14c88.48-88.49,265.43-86,416.91,9.18,94.31,59.27,213,77.68,329.68,49.3C923.71,646.52,753.21,504.09,547,504.09Z"/><path class="cls-8" d="M385.64,560.46c-3.51,0-7,.11-10.53.31A449.37,449.37,0,0,0,201,783.93a188.21,188.21,0,0,0,373.1-35.25c0-104-84.27-188.22-188.22-188.22Z"/><path class="cls-9" d="M385.64,560.46c-3.5,0-7,.11-10.51.31A448.87,448.87,0,0,0,205,773.14c79.28-79.29,229.58-85.54,369-17.49.08-2.32.14-4.64.14-7A188.21,188.21,0,0,0,385.87,560.46Z"/><path class="cls-4" d="M624.32,478.54c-251.86,0-456.17,204.31-456.17,456.16A456.18,456.18,0,0,0,322.6,1276.84c1.68,1.48,3.37,3,5.08,4.41l0,.06.21.17c99.95,86.63,195.67,115.78,293.34,164.87l3.05,1.53,3.06-1.53c97.68-49.1,193.41-78.26,293.37-164.89,1.78-1.52,3.54-3,5.3-4.6A456.21,456.21,0,0,0,1080.5,934.73c0-250.35-201.94-453.52-451.72-455.94l-.12-.25Zm-.47,13.61h.47c244.51,0,442.59,198.07,442.59,442.58a442.55,442.55,0,0,1-149.85,331.93c-1.71,1.52-3.44,3-5.17,4.5l0,0h0C815,1355.12,722.11,1384,624.33,1432.77,526.6,1384,433.74,1355.15,337,1271.33l0,0-.22-.2q-2.58-2.2-5.13-4.46h0a442.6,442.6,0,0,1-149.85-332c0-244.35,197.82-442.3,442.12-442.55Z"/><path class="cls-10" d="M808.1,731.25a10.19,10.19,0,0,0-1.28,20.3,1398.53,1398.53,0,0,1,179.39,35.67,10.19,10.19,0,1,0,5.27-19.68,1417.28,1417.28,0,0,0-182-36.2,10.54,10.54,0,0,0-1.38-.09Z"/><path class="cls-9" d="M654.43,617a1520.46,1520.46,0,0,0-228.65,12.71A10.19,10.19,0,0,0,428.44,650a1499.48,1499.48,0,0,1,300.92-9.15,10.19,10.19,0,1,0,1.42-20.34q-38.13-2.67-76.35-3.43Z"/><path class="cls-3" d="M896.14,1109.4a44.93,44.93,0,1,1-44.93-44.92,44.92,44.92,0,0,1,44.93,44.92Z"/><path class="cls-3" d="M735.59,1098.36a23.56,23.56,0,1,1-6.9-16.67,23.55,23.55,0,0,1,6.9,16.67Z"/><path class="cls-12" d="M838.94,905.58c0,10.55-7.48,20.67-20.8,28.13s-31.39,11.65-50.23,11.65c-39.23,0-71-17.81-71-39.78s31.81-39.78,71-39.78c18.84,0,36.91,4.19,50.23,11.65s20.8,17.58,20.8,28.13Z"/><path class="cls-12" d="M479.86,905.58c0,10.55-7.49,20.67-20.81,28.13s-31.39,11.65-50.23,11.65c-39.23,0-71-17.81-71-39.78s31.8-39.78,71-39.78c18.84,0,36.91,4.19,50.23,11.65s20.81,17.58,20.81,28.13Z"/><path class="cls-4" d="M370.86,836.88a73.11,73.11,0,1,1,146.22,0H489.91a45.94,45.94,0,0,0-91.88,0Z"/><path class="cls-4" d="M659.66,836.88a73.11,73.11,0,1,1,146.22,0H778.71a45.94,45.94,0,0,0-91.88,0Z"/><path class="cls-13" d="M486.26,932.4A21.25,21.25,0,0,0,465,953.7v24a123.4,123.4,0,1,0,246.8,0v-24a21.25,21.25,0,0,0-21.29-21.3Z"/><path class="cls-13" d="M588.37,999.52a123.23,123.23,0,0,0-99.79,50.8,123.4,123.4,0,0,0,199.58,0,123.23,123.23,0,0,0-99.79-50.8Z"/><path class="cls-13" d="M486.26,932.4A21.25,21.25,0,0,0,465,953.7v24a123.4,123.4,0,1,0,246.8,0v-24a21.25,21.25,0,0,0-21.29-21.3Z"/><path class="cls-4" d="M486.26,925.61a28.17,28.17,0,0,0-28.08,28.09v24a130.2,130.2,0,1,0,260.39,0v-24a28.18,28.18,0,0,0-28.09-28.09Zm0,13.58H690.48A14.33,14.33,0,0,1,705,953.7v24a116.61,116.61,0,0,1-233.22,0v-24a14.32,14.32,0,0,1,14.5-14.51Z"/><path class="cls-14" d="M486.26,932.4A21.25,21.25,0,0,0,465,953.7v24a123.41,123.41,0,0,0,246.82,0v-24a21.25,21.25,0,0,0-21.3-21.3Z"/><path class="cls-15" d="M588.37,1016.6a123.14,123.14,0,0,0-93,42.27,123.4,123.4,0,0,0,186,0,123.12,123.12,0,0,0-93-42.27Z"/><path class="cls-1" d="M486.26,932.4A21.25,21.25,0,0,0,465,953.7v21.44a284.27,284.27,0,0,0,246.82.09V953.7a21.25,21.25,0,0,0-21.3-21.3Z"/><path class="cls-16" d="M486.26,932.4A21.25,21.25,0,0,0,465,953.7v21.44a287.06,287.06,0,0,0,43.13,16.19c-8.42-5.67-10-13.54-10-25.9v-33Z"/><path class="cls-16" d="M645.59,932.4v33c0,16.65-4.27,31.08-18.59,34.91a287.3,287.3,0,0,0,84.78-25.11V953.7a21.25,21.25,0,0,0-21.3-21.3Z"/><path class="cls-17" d="M690.48,932.4a21.25,21.25,0,0,1,21.3,21.3v21.44a287.35,287.35,0,0,1-43.12,16.19c8.41-5.67,10-13.54,10-25.9v-33Z"/><path class="cls-4" d="M486.26,925.61a28.17,28.17,0,0,0-28.09,28.09v24a130.21,130.21,0,0,0,260.41,0v-24a28.18,28.18,0,0,0-28.1-28.09Zm0,13.58H690.48A14.33,14.33,0,0,1,705,953.7v24a116.62,116.62,0,0,1-233.24,0v-24a14.33,14.33,0,0,1,14.51-14.51Z"/><path class="cls-4" d="M463.83,971.22l-3,6.1a290.88,290.88,0,0,0,255,0l-3-6.1a284.1,284.1,0,0,1-249.09,0Z"/><path class="cls-18" d="M574.72,1049.85c0,3.83-2.17,7.51-6,10.22a25.54,25.54,0,0,1-14.52,4.23c-11.33,0-20.51-6.47-20.52-14.45s9.19-14.45,20.52-14.45a25.54,25.54,0,0,1,14.52,4.23c3.84,2.71,6,6.39,6,10.22Z"/></g></g></svg>