<svg xmlns="http://www.w3.org/2000/svg" viewBox="0 0 1125.39 1628.1"><defs><style>.cls-1{fill:#be78d1;}.cls-2{fill:#1a1a1a;}.cls-3{fill:#fff;}.cls-4{fill:#ccc;}.cls-5{fill:#b3d464;}.cls-6{fill:#e0edb4;}.cls-7{fill:#e4a9f6;}.cls-8{fill:#be8dce;}.cls-9{fill:#f3caff;}.cls-10{fill:#d9afe2;}.cls-11{fill:#9664ad;}.cls-12{fill:#bb80ce;}.cls-13{fill:#da98e5;}.cls-14{fill:#9552af;}</style></defs><g id="Layer_2" data-name="Layer 2"><g id="Layer_1-2" data-name="Layer 1"><path class="cls-1" d="M52.25,896C83.51,820.5,123,819.19,146,828.71s50,38.37,18.71,113.84S63.82,1114.89,32.77,1102,21,971.45,52.25,896Z"/><path class="cls-2" d="M152.47,813a68.92,68.92,0,0,0-58,2.34C73,826.43,53.15,849.44,36.57,889.48,20.21,929,7.35,978.12,2.28,1020.46c-2.53,21.18-3.19,40.54-.76,57s8,33.26,24.75,40.21,32.55-1,45.94-10.93,26.61-24.11,39.79-40.87c26.36-33.53,52-77.38,68.38-116.86,16.58-40,18.84-70.33,11.47-93.33A69,69,0,0,0,152.47,813Zm-13,31.37c8.07,3.34,16,9,20,21.68s4.17,34.54-10.51,70c-14.91,36-39.68,78.31-63.7,108.87-12,15.28-24,27.63-33.34,34.59-7,5.22-11.37,6.16-12.56,6.52-.59-1.11-3-4.83-4.28-13.49-1.71-11.54-1.42-28.74.89-48,4.62-38.59,17-86,31.93-122C82.62,867,98.16,851.66,110,845.57s21.43-4.51,29.49-1.17Z"/><path class="cls-3" d="M502.56,844h-.92l-.72.1-.7.09-.69.15-.62.14h-.1a1.21,1.21,0,0,0-.2.09c-.32.09-.62.2-.93.31l-.64.26-.65.29-.62.33-.62.35c-.19.12-.39.25-.58.39s-.39.27-.57.41l-.55.44c-.18.15-.35.31-.52.47l-.5.5c-.17.17-.33.34-.48.52s-.31.36-.45.54-.29.37-.42.57-.27.38-.4.58-.25.4-.37.6l-.33.63-.3.63c-.09.22-.19.44-.27.66l-.24.66c-.07.22-.14.45-.2.68s-.12.45-.17.67-.1.46-.13.7-.08.46-.11.69-.07.47-.09.71,0,.47,0,.7v.27q0,.35,0,.69a1.77,1.77,0,0,0,0,.23c0,.23,0,.47.09.7s.06.47.1.7.09.46.14.7.09.42.14.63v.09l.09.21c.1.31.2.62.31.92s.17.44.27.66.18.43.28.64l.32.62.35.61.39.59c.13.2.26.39.41.58s.28.36.44.54l.46.53.5.5.52.47.55.46.56.42.58.39.6.37.62.33.65.31.64.26.67.25.68.19c.22.07.45.13.68.18l.69.14.7.1.69.09h1.9l.72-.09.69-.09.69-.15.63-.13h.09l.21-.1c.32-.09.62-.2.93-.31l.65-.26.65-.29.62-.33.61-.35c.2-.13.4-.25.59-.39s.39-.27.58-.41l.54-.44.53-.46.5-.5.47-.51.46-.54.42-.57c.14-.19.27-.38.39-.58s.25-.4.37-.6.23-.42.33-.63.21-.42.3-.63l.27-.65.24-.67c.07-.22.14-.44.2-.67l.18-.68c0-.23.09-.47.13-.7s.07-.46.1-.69.07-.48.09-.71,0-.47,0-.7v-.27c0-.23,0-.47,0-.7v-.22c0-.24-.06-.48-.1-.72s-.06-.46-.09-.69-.09-.47-.15-.7-.08-.42-.13-.63v-.09l-.09-.21c-.1-.31-.2-.61-.32-.92s-.16-.44-.26-.66-.18-.43-.28-.64l-.33-.62-.35-.61c-.12-.2-.25-.39-.38-.58l-.42-.58-.44-.54-.47-.54c-.16-.17-.33-.33-.5-.5l-.52-.48c-.17-.15-.36-.29-.54-.44l-.57-.42c-.19-.14-.39-.27-.59-.39l-.6-.37c-.2-.12-.41-.23-.62-.33l-.64-.31-.65-.26-.66-.25-.67-.2-.69-.17-.69-.14-.7-.1-.7-.1h-1Z"/><path class="cls-3" d="M502.56,844h-.92l-.72.1-.7.09-.69.15-.62.14h-.1a1.21,1.21,0,0,0-.2.09c-.32.09-.62.2-.93.31l-.64.26-.65.29-.62.33-.62.35c-.19.12-.39.25-.58.39s-.39.27-.57.41l-.55.44c-.18.15-.35.31-.52.47l-.5.5c-.17.17-.33.34-.48.52s-.31.36-.45.54-.29.37-.42.57-.27.38-.4.58-.25.4-.37.6l-.33.63-.3.63c-.09.22-.19.44-.27.66l-.24.66c-.07.22-.14.45-.2.68s-.12.45-.17.67-.1.46-.13.7-.08.46-.11.69-.07.47-.09.71,0,.47,0,.7v.27q0,.35,0,.69a1.77,1.77,0,0,0,0,.23c0,.23,0,.47.09.7s.06.47.1.71.09.47.14.7.09.41.14.62v.09l.09.21c.1.31.2.62.31.92s.17.44.27.66.18.43.28.64l.32.62.35.61.39.59c.13.2.26.39.41.58s.28.36.44.54l.46.53.5.5.52.47.55.46.56.42.58.39.6.37.62.33.65.31.64.26.67.25.68.19.68.18.69.12c.23,0,.46.08.7.11l.69.09h1.9l.72-.1.69-.09.69-.15.63-.13h.09l.21-.1c.32-.09.62-.2.93-.31l.65-.26.65-.29.62-.33c.21-.11.41-.23.61-.35s.4-.25.59-.39.39-.27.58-.41l.54-.44c.18-.15.36-.3.53-.46l.5-.5.47-.51.46-.54.42-.57c.14-.19.27-.38.39-.58s.25-.4.37-.6.23-.42.33-.63.21-.42.3-.63l.27-.65.24-.67c.07-.22.14-.44.2-.67l.18-.68c0-.23.09-.46.13-.7s.07-.46.1-.69.07-.47.09-.71,0-.46,0-.7v-.27c0-.24,0-.48,0-.71v-.22c0-.24-.06-.48-.1-.71s-.06-.47-.09-.7-.09-.46-.15-.7-.08-.41-.13-.62v-.09l-.09-.21c-.1-.31-.2-.61-.32-.92s-.16-.44-.26-.66l-.28-.64-.33-.62-.35-.61c-.12-.2-.25-.39-.38-.58l-.42-.58-.44-.54c-.15-.18-.31-.36-.47-.53s-.33-.34-.5-.5l-.52-.49c-.17-.15-.36-.3-.54-.44l-.57-.43c-.19-.14-.39-.27-.59-.39l-.6-.37c-.2-.12-.41-.22-.62-.33l-.64-.31-.65-.26-.66-.25-.67-.2-.69-.17c-.23-.05-.46-.1-.69-.13s-.47-.08-.7-.11-.46-.07-.7-.09h-1Z"/><path class="cls-3" d="M502.56,844h-.92l-.72.1-.7.09-.69.15-.62.14h-.1a1.21,1.21,0,0,0-.2.09c-.32.09-.62.2-.93.31l-.64.26-.65.29-.62.33-.62.35c-.19.12-.39.25-.58.39s-.39.27-.57.41l-.55.44c-.18.15-.35.31-.52.47l-.5.5c-.17.17-.33.34-.48.52s-.31.36-.45.54-.29.37-.42.57-.27.38-.4.58-.25.4-.37.6l-.33.63-.3.63c-.09.22-.19.44-.27.66l-.24.66c-.07.22-.14.45-.2.68s-.12.45-.17.67-.1.46-.13.7-.08.46-.11.69-.07.47-.09.71,0,.47,0,.7v.27q0,.35,0,.69a1.77,1.77,0,0,0,0,.23c0,.23,0,.47.09.7s.06.47.1.71.09.47.14.7.09.41.14.62v.09l.09.21c.1.31.2.62.31.92s.17.44.27.66.18.43.28.64l.32.62.35.61.39.59c.13.2.26.39.41.58s.28.36.44.54l.46.53.5.5.52.47.55.46.56.42.58.39.6.37.62.33.65.31.64.26.67.25.68.19.68.18.69.12c.23,0,.46.08.7.11l.69.09h1.9l.72-.1.69-.09.69-.15.63-.13h.09l.21-.1c.32-.09.62-.2.93-.31l.65-.26.65-.29.62-.33c.21-.11.41-.23.61-.35s.4-.25.59-.39.39-.27.58-.41l.54-.44c.18-.15.36-.3.53-.46l.5-.5.47-.51.46-.54.42-.57c.14-.19.27-.38.39-.58s.25-.4.37-.6.23-.42.33-.63.21-.42.3-.63l.27-.65.24-.67c.07-.22.14-.44.2-.67l.18-.68c0-.23.09-.46.13-.7s.07-.46.1-.69.07-.47.09-.71,0-.46,0-.7v-.27c0-.24,0-.48,0-.71v-.22c0-.24-.06-.48-.1-.71s-.06-.47-.09-.7-.09-.46-.15-.7-.08-.41-.13-.62v-.09l-.09-.21c-.1-.31-.2-.61-.32-.92s-.16-.44-.26-.66l-.28-.64-.33-.62-.35-.61c-.12-.2-.25-.39-.38-.58l-.42-.58-.44-.54c-.15-.18-.31-.36-.47-.53s-.33-.34-.5-.5l-.52-.49c-.17-.15-.36-.3-.54-.44l-.57-.43c-.19-.14-.39-.27-.59-.39l-.6-.37c-.2-.12-.41-.22-.62-.33l-.64-.31-.65-.26-.66-.25-.67-.2-.69-.17c-.23-.05-.46-.1-.69-.13s-.47-.08-.7-.11-.46-.07-.7-.09h-1Z"/><path class="cls-3" d="M502.56,844h-.92l-.72.1-.7.09-.69.15-.62.14h-.1a1.21,1.21,0,0,0-.2.09c-.32.09-.62.2-.93.31l-.64.26-.65.29-.62.33-.62.35c-.19.12-.39.25-.58.39s-.39.27-.57.41l-.55.44c-.18.15-.35.31-.52.47l-.5.5c-.17.17-.33.34-.48.52s-.31.36-.45.54-.29.37-.42.57-.27.38-.4.58-.25.4-.37.6l-.33.63-.3.63c-.09.22-.19.44-.27.66l-.24.66c-.07.22-.14.45-.2.68s-.12.45-.17.67-.1.46-.13.7-.08.46-.11.69-.07.47-.09.71,0,.47,0,.7v.27q0,.35,0,.69a1.77,1.77,0,0,0,0,.23c0,.23,0,.47.09.7s.06.47.1.71.09.47.14.7.09.41.14.62v.09l.09.21c.1.31.2.62.31.92s.17.44.27.66.18.43.28.64l.32.62.35.61.39.59c.13.2.26.39.41.58s.28.36.44.54l.46.53.5.5.52.47.55.46.56.42.58.39.6.37.62.33.65.31.64.26.67.25.68.19.68.18.69.12c.23,0,.46.08.7.11l.69.09h1.9l.72-.1.69-.09.69-.15.63-.13h.09l.21-.1c.32-.09.62-.2.93-.31l.65-.26.65-.29.62-.33c.21-.11.41-.23.61-.35s.4-.25.59-.39.39-.27.58-.41l.54-.44c.18-.15.36-.3.53-.46l.5-.5.47-.51.46-.54.42-.57c.14-.19.27-.38.39-.58s.25-.4.37-.6.23-.42.33-.63.21-.42.3-.63l.27-.65.24-.67c.07-.22.14-.44.2-.67l.18-.68c0-.23.09-.46.13-.7s.07-.46.1-.69.07-.47.09-.71,0-.46,0-.7v-.27c0-.24,0-.48,0-.71v-.22c0-.24-.06-.48-.1-.71s-.06-.47-.09-.7-.09-.46-.15-.7-.08-.41-.13-.62v-.09l-.09-.21c-.1-.31-.2-.61-.32-.92s-.16-.44-.26-.66l-.28-.64-.33-.62-.35-.61c-.12-.2-.25-.39-.38-.58l-.42-.58-.44-.54c-.15-.18-.31-.36-.47-.53s-.33-.34-.5-.5l-.52-.49c-.17-.15-.36-.3-.54-.44l-.57-.43c-.19-.14-.39-.27-.59-.39l-.6-.37c-.2-.12-.41-.22-.62-.33l-.64-.31-.65-.26-.66-.25-.67-.2-.69-.17c-.23-.05-.46-.1-.69-.13s-.47-.08-.7-.11-.46-.07-.7-.09h-1Z"/><path class="cls-3" d="M502.56,844h-.92l-.72.1-.7.09-.69.15-.62.14h-.1a1.21,1.21,0,0,0-.2.09c-.32.09-.62.2-.93.31l-.64.26-.65.29-.62.33-.62.35c-.19.12-.39.25-.58.39s-.39.27-.57.41l-.55.44c-.18.15-.35.31-.52.47l-.5.5c-.17.17-.33.34-.48.52s-.31.36-.45.54-.29.37-.42.57-.27.38-.4.58-.25.4-.37.6l-.33.63-.3.63c-.09.22-.19.44-.27.66l-.24.66c-.07.22-.14.45-.2.68s-.12.45-.17.67-.1.46-.13.7-.08.46-.11.69-.07.47-.09.71,0,.47,0,.7v.27q0,.35,0,.69a1.77,1.77,0,0,0,0,.23c0,.23,0,.47.09.7s.06.47.1.71.09.47.14.7.09.41.14.62v.09l.09.21c.1.31.2.62.31.92s.17.44.27.66.18.43.28.64l.32.62.35.61.39.59c.13.2.26.39.41.58s.28.36.44.54l.46.53.5.5.52.47.55.46.56.42.58.39.6.37.62.33.65.31.64.26.67.25.68.19.68.18.69.12c.23,0,.46.08.7.11l.69.09h1.9l.72-.1.69-.09.69-.15.63-.13h.09l.21-.1c.32-.09.62-.2.93-.31l.65-.26.65-.29.62-.33c.21-.11.41-.23.61-.35s.4-.25.59-.39.39-.27.58-.41l.54-.44c.18-.15.36-.3.53-.46l.5-.5.47-.51.46-.54.42-.57c.14-.19.27-.38.39-.58s.25-.4.37-.6.23-.42.33-.63.21-.42.3-.63l.27-.65.24-.67c.07-.22.14-.44.2-.67l.18-.68c0-.23.09-.46.13-.7s.07-.46.1-.69.07-.47.09-.71,0-.46,0-.7v-.27c0-.24,0-.48,0-.71v-.22c0-.24-.06-.48-.1-.71s-.06-.47-.09-.7-.09-.46-.15-.7-.08-.41-.13-.62v-.09l-.09-.21c-.1-.31-.2-.61-.32-.92s-.16-.44-.26-.66l-.28-.64-.33-.62-.35-.61c-.12-.2-.25-.39-.38-.58l-.42-.58-.44-.54c-.15-.18-.31-.36-.47-.53s-.33-.34-.5-.5l-.52-.49c-.17-.15-.36-.3-.54-.44l-.57-.43c-.19-.14-.39-.27-.59-.39l-.6-.37c-.2-.12-.41-.22-.62-.33l-.64-.31-.65-.26-.66-.25-.67-.2-.69-.17c-.23-.05-.46-.1-.69-.13s-.47-.08-.7-.11-.46-.07-.7-.09h-1Z"/><path class="cls-3" d="M502.56,844h-.92l-.72.1-.7.09-.69.15-.62.14h-.1a1.21,1.21,0,0,0-.2.09c-.32.09-.62.2-.93.31l-.64.26-.65.29-.62.33-.62.35c-.19.12-.39.25-.58.39s-.39.27-.57.41l-.55.44c-.18.15-.35.31-.52.47l-.5.5c-.17.17-.33.34-.48.52s-.31.36-.45.54-.29.37-.42.57-.27.38-.4.58-.25.4-.37.6l-.33.63-.3.63c-.09.22-.19.44-.27.66l-.24.66c-.07.22-.14.45-.2.68s-.12.45-.17.67-.1.46-.13.7-.08.46-.11.69-.07.47-.09.71,0,.47,0,.7v.27q0,.35,0,.69a1.77,1.77,0,0,0,0,.23c0,.23,0,.47.09.7s.06.47.1.71.09.47.14.7.09.41.14.62v.09l.09.21c.1.31.2.62.31.92s.17.44.27.66.18.43.28.64l.32.62.35.61.39.59c.13.2.26.39.41.58s.28.36.44.54l.46.53.5.5.52.47.55.46.56.42.58.39.6.37.62.33.65.31.64.26.67.25.68.19.68.18.69.12c.23,0,.46.08.7.11l.69.09h1.9l.72-.1.69-.09.69-.15.63-.13h.09l.21-.1c.32-.09.62-.2.93-.31l.65-.26.65-.29.62-.33c.21-.11.41-.23.61-.35s.4-.25.59-.39.39-.27.58-.41l.54-.44c.18-.15.36-.3.53-.46l.5-.5.47-.51.46-.54.42-.57c.14-.19.27-.38.39-.58s.25-.4.37-.6.23-.42.33-.63.21-.42.3-.63l.27-.65.24-.67c.07-.22.14-.44.2-.67l.18-.68c0-.23.09-.46.13-.7s.07-.46.1-.69.07-.47.09-.71,0-.46,0-.7v-.27c0-.24,0-.48,0-.71v-.22c0-.24-.06-.48-.1-.71s-.06-.47-.09-.7-.09-.46-.15-.7-.08-.41-.13-.62v-.09l-.09-.21c-.1-.31-.2-.61-.32-.92s-.16-.44-.26-.66l-.28-.64-.33-.62-.35-.61c-.12-.2-.25-.39-.38-.58l-.42-.58-.44-.54c-.15-.18-.31-.36-.47-.53s-.33-.34-.5-.5l-.52-.49c-.17-.15-.36-.3-.54-.44l-.57-.43c-.19-.14-.39-.27-.59-.39l-.6-.37c-.2-.12-.41-.22-.62-.33l-.64-.31-.65-.26-.66-.25-.67-.2-.69-.17c-.23-.05-.46-.1-.69-.13s-.47-.08-.7-.11-.46-.07-.7-.09h-1Z"/><path class="cls-3" d="M502.56,844h-.92l-.72.1-.7.09-.69.15-.62.14h-.1a1.21,1.21,0,0,0-.2.09c-.32.09-.62.2-.93.31l-.64.26-.65.29-.62.33-.62.35c-.19.12-.39.25-.58.39s-.39.27-.57.41l-.55.44c-.18.15-.35.31-.52.47l-.5.5c-.17.17-.33.34-.48.52s-.31.36-.45.54-.29.37-.42.57-.27.38-.4.58-.25.4-.37.6l-.33.63-.3.63c-.09.22-.19.44-.27.66l-.24.66c-.07.22-.14.45-.2.68s-.12.45-.17.67-.1.46-.13.7-.08.46-.11.69-.07.47-.09.71,0,.47,0,.7v.27q0,.35,0,.69a1.77,1.77,0,0,0,0,.23c0,.23,0,.47.09.7s.06.47.1.71.09.47.14.7.09.41.14.62v.09l.09.21c.1.31.2.62.31.92s.17.44.27.66.18.43.28.64l.32.62.35.61.39.59c.13.2.26.39.41.58s.28.36.44.54l.46.53.5.5.52.47.55.46.56.42.58.39.6.37.62.33.65.31.64.26.67.25.68.19.68.18.69.12c.23,0,.46.08.7.11l.69.09h1.9l.72-.1.69-.09.69-.15.63-.13h.09l.21-.1c.32-.09.62-.2.93-.31l.65-.26.65-.29.62-.33c.21-.11.41-.23.61-.35s.4-.25.59-.39.39-.27.58-.41l.54-.44c.18-.15.36-.3.53-.46l.5-.5.47-.51.46-.54.42-.57c.14-.19.27-.38.39-.58s.25-.4.37-.6.23-.42.33-.63.21-.42.3-.63l.27-.65.24-.67c.07-.22.14-.44.2-.67l.18-.68c0-.23.09-.46.13-.7s.07-.46.1-.69.07-.47.09-.71,0-.46,0-.7v-.27c0-.24,0-.48,0-.71v-.22c0-.24-.06-.48-.1-.71s-.06-.47-.09-.7-.09-.46-.15-.7-.08-.41-.13-.62v-.09l-.09-.21c-.1-.31-.2-.61-.32-.92s-.16-.44-.26-.66l-.28-.64-.33-.62-.35-.61c-.12-.2-.25-.39-.38-.58l-.42-.58-.44-.54c-.15-.18-.31-.36-.47-.53s-.33-.34-.5-.5l-.52-.49c-.17-.15-.36-.3-.54-.44l-.57-.43c-.19-.14-.39-.27-.59-.39l-.6-.37c-.2-.12-.41-.22-.62-.33l-.64-.31-.65-.26-.66-.25-.67-.2-.69-.17c-.23-.05-.46-.1-.69-.13s-.47-.08-.7-.11-.46-.07-.7-.09h-1Z"/><path class="cls-3" d="M502.56,844h-.92l-.72.1-.7.09-.69.15-.62.14h-.1a1.21,1.21,0,0,0-.2.09c-.32.09-.62.2-.93.31l-.64.26-.65.29-.62.33-.62.35c-.19.12-.39.25-.58.39s-.39.27-.57.41l-.55.44c-.18.15-.35.31-.52.47l-.5.5c-.17.17-.33.34-.48.52s-.31.36-.45.54-.29.37-.42.57-.27.38-.4.58-.25.4-.37.6l-.33.63-.3.63c-.09.22-.19.44-.27.66l-.24.66c-.07.22-.14.45-.2.68s-.12.45-.17.67-.1.46-.13.7-.08.46-.11.69-.07.47-.09.71,0,.47,0,.7v.27q0,.35,0,.69a1.77,1.77,0,0,0,0,.23c0,.23,0,.47.09.7s.06.47.1.71.09.47.14.7.09.41.14.62v.09l.09.21c.1.31.2.62.31.92s.17.44.27.66.18.43.28.64l.32.62.35.61.39.59c.13.2.26.39.41.58s.28.36.44.54l.46.53.5.5.52.47.55.46.56.42.58.39.6.37.62.33.65.31.64.26.67.25.68.19.68.18.69.12c.23,0,.46.08.7.11l.69.09h1.9l.72-.1.69-.09.69-.15.63-.13h.09l.21-.1c.32-.09.62-.2.93-.31l.65-.26.65-.29.62-.33c.21-.11.41-.23.61-.35s.4-.25.59-.39.39-.27.58-.41l.54-.44c.18-.15.36-.3.53-.46l.5-.5.47-.51.46-.54.42-.57c.14-.19.27-.38.39-.58s.25-.4.37-.6.23-.42.33-.63.21-.42.3-.63l.27-.65.24-.67c.07-.22.14-.44.2-.67l.18-.68c0-.23.09-.46.13-.7s.07-.46.1-.69.07-.47.09-.71,0-.46,0-.7v-.27c0-.24,0-.48,0-.71v-.22c0-.24-.06-.48-.1-.71s-.06-.47-.09-.7-.09-.46-.15-.7-.08-.41-.13-.62v-.09l-.09-.21c-.1-.31-.2-.61-.32-.92s-.16-.44-.26-.66l-.28-.64-.33-.62-.35-.61c-.12-.2-.25-.39-.38-.58l-.42-.58-.44-.54c-.15-.18-.31-.36-.47-.53s-.33-.34-.5-.5l-.52-.49c-.17-.15-.36-.3-.54-.44l-.57-.43c-.19-.14-.39-.27-.59-.39l-.6-.37c-.2-.12-.41-.22-.62-.33l-.64-.31-.65-.26-.66-.25-.67-.2-.69-.17c-.23-.05-.46-.1-.69-.13s-.47-.08-.7-.11-.46-.07-.7-.09h-1Z"/><path class="cls-3" d="M502.56,844h-.92l-.72.1-.7.09-.69.15-.62.14h-.1a1.21,1.21,0,0,0-.2.09c-.32.09-.62.2-.93.31l-.64.26-.65.29-.62.33-.62.35c-.19.12-.39.25-.58.39s-.39.27-.57.41l-.55.44c-.18.15-.35.31-.52.47l-.5.5c-.17.17-.33.34-.48.52s-.31.36-.45.54-.29.37-.42.57-.27.38-.4.58-.25.4-.37.6l-.33.63-.3.63c-.09.22-.19.44-.27.66l-.24.66c-.07.22-.14.45-.2.68s-.12.45-.17.67-.1.46-.13.7-.08.46-.11.69-.07.47-.09.71,0,.47,0,.7v.27q0,.35,0,.69a1.77,1.77,0,0,0,0,.23c0,.23,0,.47.09.7s.06.47.1.71.09.47.14.7.09.41.14.62v.09l.09.21c.1.31.2.62.31.92s.17.44.27.66.18.43.28.64l.32.62.35.61.39.59c.13.2.26.39.41.58s.28.36.44.54l.46.53.5.5.52.47.55.46.56.42.58.39.6.37.62.33.65.31.64.26.67.25.68.19.68.18.69.12c.23,0,.46.08.7.11l.69.09h1.9l.72-.1.69-.09.69-.15.63-.13h.09l.21-.1c.32-.09.62-.2.93-.31l.65-.26.65-.29.62-.33c.21-.11.41-.23.61-.35s.4-.25.59-.39.39-.27.58-.41l.54-.44c.18-.15.36-.3.53-.46l.5-.5.47-.51.46-.54.42-.57c.14-.19.27-.38.39-.58s.25-.4.37-.6.23-.42.33-.63.21-.42.3-.63l.27-.65.24-.67c.07-.22.14-.44.2-.67l.18-.68c0-.23.09-.46.13-.7s.07-.46.1-.69.07-.47.09-.71,0-.46,0-.7v-.27c0-.24,0-.48,0-.71v-.22c0-.24-.06-.48-.1-.71s-.06-.47-.09-.7-.09-.46-.15-.7-.08-.41-.13-.62v-.09l-.09-.21c-.1-.31-.2-.61-.32-.92s-.16-.44-.26-.66l-.28-.64-.33-.62-.35-.61c-.12-.2-.25-.39-.38-.58l-.42-.58-.44-.54c-.15-.18-.31-.36-.47-.53s-.33-.34-.5-.5l-.52-.49c-.17-.15-.36-.3-.54-.44l-.57-.43c-.19-.14-.39-.27-.59-.39l-.6-.37c-.2-.12-.41-.22-.62-.33l-.64-.31-.65-.26-.66-.25-.67-.2-.69-.17c-.23-.05-.46-.1-.69-.13s-.47-.08-.7-.11-.46-.07-.7-.09h-1Z"/><path class="cls-3" d="M502.56,844h-.92l-.72.1-.7.09-.69.15-.62.14h-.1a1.21,1.21,0,0,0-.2.09c-.32.09-.62.2-.93.31l-.64.26-.65.29-.62.33-.62.35c-.19.12-.39.25-.58.39s-.39.27-.57.41l-.55.44c-.18.15-.35.31-.52.47l-.5.5c-.17.17-.33.34-.48.52s-.31.36-.45.54-.29.37-.42.57-.27.38-.4.58-.25.4-.37.6l-.33.63-.3.63c-.09.22-.19.44-.27.66l-.24.66c-.07.22-.14.45-.2.68s-.12.45-.17.67-.1.46-.13.7-.08.46-.11.69-.07.47-.09.71,0,.47,0,.7v.27q0,.35,0,.69a1.77,1.77,0,0,0,0,.23c0,.23,0,.47.09.7s.06.47.1.71.09.47.14.7.09.41.14.62v.09l.09.21c.1.31.2.62.31.92s.17.44.27.66.18.43.28.64l.32.62.35.61.39.59c.13.2.26.39.41.58s.28.36.44.54l.46.53.5.5.52.47.55.46.56.42.58.39.6.37.62.33.65.31.64.26.67.25.68.19.68.18.69.12c.23,0,.46.08.7.11l.69.09h1.9l.72-.1.69-.09.69-.15.63-.13h.09l.21-.1c.32-.09.62-.2.93-.31l.65-.26.65-.29.62-.33c.21-.11.41-.23.61-.35s.4-.25.59-.39.39-.27.58-.41l.54-.44c.18-.15.36-.3.53-.46l.5-.5.47-.51.46-.54.42-.57c.14-.19.27-.38.39-.58s.25-.4.37-.6.23-.42.33-.63.21-.42.3-.63l.27-.65.24-.67c.07-.22.14-.44.2-.67l.18-.68c0-.23.09-.46.13-.7s.07-.46.1-.69.07-.47.09-.71,0-.46,0-.7v-.27c0-.24,0-.48,0-.71v-.22c0-.24-.06-.48-.1-.71s-.06-.47-.09-.7-.09-.46-.15-.7-.08-.41-.13-.62v-.09l-.09-.21c-.1-.31-.2-.61-.32-.92s-.16-.44-.26-.66l-.28-.64-.33-.62-.35-.61c-.12-.2-.25-.39-.38-.58l-.42-.58-.44-.54c-.15-.18-.31-.36-.47-.53s-.33-.34-.5-.5l-.52-.49c-.17-.15-.36-.3-.54-.44l-.57-.43c-.19-.14-.39-.27-.59-.39l-.6-.37c-.2-.12-.41-.22-.62-.33l-.64-.31-.65-.26-.66-.25-.67-.2-.69-.17c-.23-.05-.46-.1-.69-.13s-.47-.08-.7-.11-.46-.07-.7-.09h-1Z"/><path class="cls-4" d="M893.14,1548.43c0,44-142.67,79.67-318.67,79.67s-318.66-35.67-318.66-79.67c0-21.13,33.58-41.39,93.34-56.33s140.81-23.34,225.32-23.34,165.57,8.4,225.33,23.34,93.34,35.2,93.34,56.33Z"/><path class="cls-1" d="M481.5,1340c0,81.69-27.24,197.82-60.85,197.82S359.8,1421.66,359.8,1340s36-98,60.85-98,60.85,16.32,60.85,98Z"/><path class="cls-2" d="M420.65,1225a68.94,68.94,0,0,0-52.71,24.37c-15.61,18.44-25.12,47.28-25.12,90.62,0,42.73,6.93,93.07,18.45,134.13,5.77,20.53,12.56,38.67,21.13,53s20.07,27.68,38.25,27.68,29.69-13.37,38.26-27.68,15.36-32.46,21.12-53c11.52-41.06,18.45-91.4,18.45-134.13,0-43.34-9.51-72.18-25.11-90.62A69,69,0,0,0,420.65,1225Zm0,34c8.73,0,18.2,2.21,26.8,12.36s17.07,30.32,17.07,68.67c0,39-6.69,87.53-17.19,125-5.25,18.72-11.57,34.72-17.56,44.73-4.5,7.5-8.15,10-9.12,10.82-1-.79-4.62-3.32-9.11-10.82-6-10-12.32-26-17.57-44.73-10.5-37.42-17.19-86-17.19-125,0-38.35,8.48-58.51,17.08-68.67s18.06-12.36,26.79-12.36Z"/><path class="cls-1" d="M789.15,1340c0,81.69-27.25,197.82-60.85,197.82S667.45,1421.66,667.45,1340s36-98,60.85-98,60.85,16.32,60.85,98Z"/><path class="cls-2" d="M728.3,1225a69,69,0,0,0-52.72,24.37c-15.61,18.44-25.11,47.28-25.11,90.62,0,42.73,6.93,93.07,18.45,134.13,5.76,20.53,12.55,38.67,21.12,53s20.08,27.68,38.26,27.68,29.69-13.37,38.25-27.68,15.37-32.46,21.12-53c11.53-41.06,18.46-91.4,18.46-134.13,0-43.34-9.51-72.18-25.12-90.62A69,69,0,0,0,728.3,1225Zm0,34c8.72,0,18.2,2.21,26.8,12.36s17.07,30.32,17.07,68.67c0,39-6.7,87.53-17.2,125-5.25,18.72-11.57,34.72-17.56,44.73-4.49,7.5-8.15,10-9.11,10.82-1-.79-4.62-3.32-9.12-10.82-6-10-12.31-26-17.56-44.73-10.5-37.42-17.19-86-17.19-125,0-38.35,8.47-58.51,17.07-68.67s18.07-12.36,26.8-12.36Z"/><path class="cls-1" d="M1073.14,896.13c31.26,75.47,50.53,193.19,19.48,206.05S992,1018.18,960.7,942.7s-4.28-104.31,18.71-113.83,62.47-8.21,93.73,67.26Z"/><path class="cls-2" d="M972.92,812.8a68.92,68.92,0,0,0-39.38,42.69c-7.37,23-5.11,53.29,11.47,93.32,16.36,39.49,42,83.34,68.38,116.87,13.18,16.76,26.4,30.92,39.79,40.87s29.14,17.89,45.94,10.93,22.31-23.71,24.75-40.21,1.77-35.87-.76-57c-5.07-42.34-17.93-91.5-34.28-131-16.59-40-36.41-63-57.89-74.11a68.92,68.92,0,0,0-58-2.34Zm13,31.37c8.06-3.34,17.66-4.92,29.49,1.17s27.37,21.47,42.05,56.9c14.91,36,27.31,83.43,31.94,122,2.3,19.29,2.59,36.49.88,48-1.28,8.65-3.69,12.38-4.28,13.49-1.19-.36-5.53-1.3-12.56-6.52-9.37-7-21.33-19.32-33.34-34.59-24-30.56-48.79-72.88-63.7-108.87-14.68-35.43-14.56-57.3-10.5-70s12-18.34,20-21.68Z"/><path class="cls-2" d="M574.47,458.16c-262.87,0-476.55,213.68-476.55,476.55a476.57,476.57,0,0,0,161.35,357.41q2.25,2,4.53,3.93l.11.12.83.72.06,0c103.09,89.32,201.68,119.48,297.47,167.63l12.21,6.13,12.21-6.13c95.83-48.17,194.45-78.32,297.57-167.7q2.73-2.34,5.42-4.71A476.61,476.61,0,0,0,1051,934.73c0-257.26-204.8-466.86-459.94-475.7l-.47-.87ZM574,512.53h.48c233.49,0,422.19,188.7,422.19,422.2a422.19,422.19,0,0,1-142.94,316.66c-1.64,1.44-3.28,2.87-4.94,4.28l-.14.12c-90.78,78.68-178.32,107.6-274.17,154.45-95.78-46.81-183.25-75.73-273.95-154.26l-.4-.35q-2.47-2.12-4.92-4.26h0a422.18,422.18,0,0,1-143-316.65c0-233.34,188.46-421.93,421.74-422.18Z"/><path class="cls-2" d="M380.91,94.48a59.25,59.25,0,0,0-33.71,7.78c-28,16.18-38.08,52.81-21.44,80.75l-.75-1.32a1095.29,1095.29,0,0,1,87,223.54,1108.69,1108.69,0,0,1-3.29,586.37l-7.4,26.46,113.2,30.34,7.23-25.9a1225.83,1225.83,0,0,0,3.46-647.6A1249,1249,0,0,0,428.28,125l-.16-.32-.19-.32a58.3,58.3,0,0,0-35.81-28h0a59.43,59.43,0,0,0-11.2-1.88ZM378,148.83h0a3.33,3.33,0,0,1,2.28,1.75A1194.31,1194.31,0,0,1,472.67,389c53.07,198,51.77,401.7,3.08,592.78l-8.2-2.19c48.34-189.81,49.53-392.07-3.08-588.39a1149.47,1149.47,0,0,0-91.28-234.64l-.35-.67-.39-.65c-1.1-1.85-.66-4.38,1.93-5.88a4.45,4.45,0,0,1,3.59-.5Z"/><path class="cls-2" d="M752,94.47a59.12,59.12,0,0,0-11.17,1.88,58.33,58.33,0,0,0-35.86,28l-.18.33-.17.32a1249.36,1249.36,0,0,0-96.88,249.87,1225.8,1225.8,0,0,0,3.45,647.59l7.24,25.9,113.2-30.33-7.41-26.47A1108.76,1108.76,0,0,1,721,405.24,1095.26,1095.26,0,0,1,807.91,181.7l-.73,1.32c16.63-27.94,6.58-64.57-21.45-80.76h0A59.2,59.2,0,0,0,752,94.48ZM755,148.83a4.48,4.48,0,0,1,3.59.5c2.59,1.5,3,4,1.92,5.88l-.38.65-.35.67a1149.7,1149.7,0,0,0-91.28,234.64c-52.6,196.32-51.43,398.58-3.09,588.39l-8.19,2.19C608.49,790.67,607.2,587,660.26,389a1194.91,1194.91,0,0,1,92.38-238.38,3.4,3.4,0,0,1,2.28-1.75h0Z"/><path class="cls-2" d="M627.39.32A58.57,58.57,0,0,0,579.06,37l-.13.34-.12.34a1248.37,1248.37,0,0,0-63.44,260.38,1226,1226,0,0,0,113,696.49l8.56,17.62,123.38-16.24-17.43-34.26A1109,1109,0,0,1,631.55,313.35a1095.21,1095.21,0,0,1,57-233L688,81.79c12.85-29.88-1.9-64.89-31.81-77.28A59.22,59.22,0,0,0,627.4.32Zm5.7,54.05h0a4.57,4.57,0,0,1,2.31.36h0c2.77,1.15,3.54,3.6,2.69,5.58l-.3.69-.26.72a1149.55,1149.55,0,0,0-59.88,244.54A1163.29,1163.29,0,0,0,677.72,952L669,953.12a1171.36,1171.36,0,0,1-99.77-648A1194.49,1194.49,0,0,1,629.72,56.76a3.78,3.78,0,0,1,3.37-2.39Z"/><path class="cls-5" d="M404.14,137.51a1222.82,1222.82,0,0,1,94.78,244.43,1198.65,1198.65,0,0,1-3.38,633.25l-60.69-16.26a1136,1136,0,0,0,3.37-600.73A1121.9,1121.9,0,0,0,349.1,169.12c-8.87-14.9-3.62-34.48,11.69-43.32A31.76,31.76,0,0,1,385,122.6a30.79,30.79,0,0,1,19.1,14.91Z"/><path class="cls-6" d="M508.29,419.37a529.88,529.88,0,0,0-61.86,11.51,1136,1136,0,0,1-11.58,568.05l60.69,16.26a1198.53,1198.53,0,0,0,12.75-595.82Z"/><path class="cls-2" d="M372,115a38.63,38.63,0,0,0-14.59,4.9c-18.5,10.68-24.95,34.53-14.14,52.68l-.18-.33A1116,1116,0,0,1,431.66,400a1129.18,1129.18,0,0,1-3.35,597.14l-1.85,6.61,73.82,19.78,1.81-6.47a1205.38,1205.38,0,0,0,3.39-636.84A1228.27,1228.27,0,0,0,410.17,134.4l0-.08,0-.08A37.66,37.66,0,0,0,386.81,116h0A38.79,38.79,0,0,0,372,115Zm1.7,13.46a25.28,25.28,0,0,1,9.58.68h0a23.93,23.93,0,0,1,14.88,11.62A1215.26,1215.26,0,0,1,492.36,383.7a1191.6,1191.6,0,0,1-1.76,623.13L443,994.08a1142.55,1142.55,0,0,0,1.75-597.64A1128.89,1128.89,0,0,0,355.12,166l-.09-.17-.09-.16c-6.93-11.64-2.88-26.95,9.25-34a25.18,25.18,0,0,1,9.5-3.2Z"/><path class="cls-5" d="M728.79,137.51A1222.82,1222.82,0,0,0,634,381.94a1198.55,1198.55,0,0,0,3.38,633.25l60.69-16.26a1135.91,1135.91,0,0,1-3.37-600.73,1122.21,1122.21,0,0,1,89.12-229.09c8.87-14.89,3.62-34.47-11.69-43.32a31.84,31.84,0,0,0-24.25-3.2,30.83,30.83,0,0,0-19.1,14.92Z"/><path class="cls-6" d="M625,417.66a1198.62,1198.62,0,0,0,12.35,597.53l60.69-16.26a1136,1136,0,0,1-10.73-571.56A530.59,530.59,0,0,0,625,417.66Z"/><path class="cls-2" d="M760.94,115a38.79,38.79,0,0,0-14.81,1,37.7,37.7,0,0,0-23.29,18.2l-.05.08,0,.08a1228.92,1228.92,0,0,0-95.3,245.79,1205.38,1205.38,0,0,0,3.4,636.84l1.8,6.47,73.82-19.78-1.85-6.61A1129.18,1129.18,0,0,1,701.27,400a1115.43,1115.43,0,0,1,88.58-227.7l-.18.33c10.81-18.16,4.36-42-14.13-52.69a39.09,39.09,0,0,0-14.6-4.9Zm-1.7,13.46a25.2,25.2,0,0,1,9.5,3.21c12.13,7,16.18,22.32,9.25,34l-.1.16-.09.17a1130,1130,0,0,0-89.65,230.47,1142.48,1142.48,0,0,0,1.75,597.65l-47.57,12.74a1191.6,1191.6,0,0,1-1.76-623.13,1215.17,1215.17,0,0,1,94.19-242.92,23.91,23.91,0,0,1,14.89-11.62h0a25.13,25.13,0,0,1,9.59-.68Z"/><path class="cls-5" d="M630.24,27.35A31.14,31.14,0,0,0,604.37,46.9,1221.71,1221.71,0,0,0,542.3,301.61,1198.87,1198.87,0,0,0,652.77,982.67L718.63,974a1136.26,1136.26,0,0,1-114-664.19A1122.56,1122.56,0,0,1,663.06,71.05c6.85-15.93-.91-34.66-17.25-41.43a31.9,31.9,0,0,0-15.57-2.27Z"/><path class="cls-6" d="M574.47,415.23q-20.9,0-41.73,1.64a1199.18,1199.18,0,0,0,120,565.8L718.63,974a1136.42,1136.42,0,0,1-123-558.32q-10.59-.42-21.19-.42Z"/><path class="cls-2" d="M629.53,20.59A38,38,0,0,0,598,44.42l0,.08,0,.09a1229.08,1229.08,0,0,0-62.41,256.12,1205.76,1205.76,0,0,0,111.1,684.93l2.14,4.4L729,979.47l-4.36-8.56A1129.53,1129.53,0,0,1,611.34,310.68a1115.59,1115.59,0,0,1,58.1-237.31l-.14.35c8.35-19.41-1.16-42.21-20.89-50.38a38.58,38.58,0,0,0-18.88-2.76ZM631,34.1a25,25,0,0,1,12.26,1.8c12.95,5.36,19,20,13.61,32.46l-.07.18-.07.18a1128.85,1128.85,0,0,0-58.81,240.2A1143,1143,0,0,0,708.4,968.5l-51.57,6.79A1192,1192,0,0,1,549,302.49,1215.19,1215.19,0,0,1,610.71,49.34,24.29,24.29,0,0,1,631,34.11Z"/><path class="cls-7" d="M1023.85,934.71A449.38,449.38,0,1,1,892.23,617a449.42,449.42,0,0,1,131.62,317.75Z"/><path class="cls-8" d="M574.47,485.33a449.39,449.39,0,0,0-420.34,608.29c86.29-27.73,225.89-17.77,400.3,86.91,109.44,65.69,232.62,88.23,361,46.91a449.38,449.38,0,0,0-341-742.09Z"/><path class="cls-9" d="M497.15,504.1a436.82,436.82,0,0,0-67.6,5.25,449.37,449.37,0,0,0-276.7,580.83C227.93,1199.72,357.73,1266,497.15,1266c108.37,0,212.3-40.13,288.93-111.58S905.76,986.08,905.76,885.05s-43-197.93-119.68-269.38S605.52,504.1,497.15,504.1Z"/><path class="cls-10" d="M497.16,504.1a438,438,0,0,0-67.6,5.24,449.38,449.38,0,0,0-276.71,580.84c.73,1.06,1.47,2.11,2.21,3.17,86.35-27.38,225.57-17.14,399.37,87.18,36.51,21.92,74.56,39,113.81,50.54,140.21-60.36,237.52-192.59,237.52-346,0-210.4-182.93-380.95-408.6-380.95Z"/><path class="cls-7" d="M277.25,1271.74c100.81,89.32,197.18,118.23,297.22,168.52,100-50.29,196.42-79.2,297.23-168.52l-297.23,28.73Z"/><path class="cls-3" d="M574.47,1300.41a75.27,75.27,0,0,0-69.05,45.32,75.28,75.28,0,0,0-101.49,13.38c56.67,30.36,113,52.24,170.55,81.17,57.55-28.93,113.88-50.81,170.54-81.16a75.29,75.29,0,0,0-101.5-13.39,75.26,75.26,0,0,0-69-45.32Z"/><path class="cls-9" d="M574.48,852.53a10.19,10.19,0,0,0,0,20.38A1264.82,1264.82,0,0,1,828.6,898.7a10.19,10.19,0,0,0,4.1-20,1285.7,1285.7,0,0,0-258.22-26.2Z"/><path class="cls-9" d="M574.48,1000.78A1136.81,1136.81,0,0,0,304,1033.43a10.19,10.19,0,0,0,4.85,19.79,1117,1117,0,0,1,265.66-32.05,10.2,10.2,0,0,0,0-20.39Z"/><path class="cls-7" d="M503.93,1172.21c-.21,0-.44,0-.65,0a968.61,968.61,0,0,0-210.17,39.16,10.19,10.19,0,0,0,5.92,19.51,947.26,947.26,0,0,1,205.75-38.34,10.19,10.19,0,0,0-.85-20.36Z"/><path class="cls-11" d="M573.62,485.34a449.38,449.38,0,0,0-418.47,287.8c88.49-88.49,265.43-86,416.92,9.19,121.53,76.38,283.56,84.9,429.58,12.89A449.38,449.38,0,0,0,574.47,485.34Z"/><path class="cls-12" d="M497.15,504.09a438.19,438.19,0,0,0-67.61,5.25,449.41,449.41,0,0,0-274.39,263.8c88.49-88.49,265.44-86,416.92,9.18,94.31,59.28,213,77.67,329.67,49.3C873.87,646.53,703.37,504.1,497.16,504.1Z"/><path class="cls-9" d="M335.8,560.46c-3.51,0-7,.11-10.54.31A449.37,449.37,0,0,0,151.15,783.92a188.21,188.21,0,0,0,373.1-35.25C524.25,644.72,440,560.46,336,560.46Z"/><path class="cls-13" d="M335.8,560.46q-5.26,0-10.51.31A448.94,448.94,0,0,0,155.15,773.14c79.29-79.29,229.59-85.54,369-17.5.08-2.31.14-4.63.14-7C524.25,644.72,440,560.46,336,560.46Z"/><path class="cls-2" d="M574.47,478.54c-251.85,0-456.16,204.31-456.16,456.17a456.16,456.16,0,0,0,154.45,342.13c1.67,1.48,3.37,3,5.07,4.42l.05,0,.2.19c99.95,86.62,195.68,115.77,293.35,164.86l3.05,1.53,3-1.53c97.69-49.1,193.42-78.25,293.38-164.89,1.77-1.52,3.54-3.06,5.29-4.6a456.18,456.18,0,0,0,154.45-342.13c0-250.35-201.93-453.52-451.72-455.94l-.11-.25ZM574,492.15h.47c244.51,0,442.58,198.07,442.58,442.58a442.57,442.57,0,0,1-149.84,331.94c-1.71,1.51-3.44,3-5.17,4.49l0,0h0c-96.83,83.93-189.74,112.8-287.53,161.58-97.72-48.75-190.58-77.62-287.35-161.44l0,0-.22-.19q-2.6-2.2-5.14-4.47h0A442.54,442.54,0,0,1,131.89,934.7c0-244.35,197.82-442.3,442.12-442.56Z"/><path class="cls-14" d="M758.25,731.25a10.19,10.19,0,0,0-1.27,20.3,1398.53,1398.53,0,0,1,179.39,35.67,10.19,10.19,0,1,0,5.27-19.68,1417.62,1417.62,0,0,0-182-36.2,10.7,10.7,0,0,0-1.39-.09Z"/><path class="cls-13" d="M604.59,617a1520.4,1520.4,0,0,0-228.65,12.72A10.19,10.19,0,1,0,378.6,650a1501,1501,0,0,1,300.92-9.16,10.19,10.19,0,1,0,1.42-20.33q-38.15-2.67-76.35-3.43Z"/><path class="cls-1" d="M846.3,1109.4a44.93,44.93,0,1,1-44.93-44.92,44.93,44.93,0,0,1,44.93,44.92Z"/><path class="cls-1" d="M685.74,1098.36a23.56,23.56,0,1,1-6.9-16.67,23.55,23.55,0,0,1,6.9,16.67Z"/><path class="cls-2" d="M430.07,750.43a69.83,69.83,0,0,0-70,70v57.82h140V820.42a69.83,69.83,0,0,0-70-70Z"/><path class="cls-3" d="M470.81,800.61A22.59,22.59,0,1,1,448.22,778a22.59,22.59,0,0,1,22.59,22.59Z"/><path class="cls-2" d="M718.88,750.43a69.83,69.83,0,0,0-70,70v57.82h140V820.42a69.84,69.84,0,0,0-70-70Z"/><path class="cls-3" d="M759.62,800.61A22.6,22.6,0,1,1,737,778a22.59,22.59,0,0,1,22.6,22.59Z"/><path class="cls-2" d="M512.68,928.22,500.91,935A84.95,84.95,0,0,0,648,935l-11.77-6.79a71.35,71.35,0,0,1-123.59,0Z"/></g></g></svg>