<svg xmlns="http://www.w3.org/2000/svg" viewBox="0 0 1236.88 1923.92"><defs><style>.cls-1{fill:#fff;}.cls-2{fill:#ccc;}.cls-3{fill:#ceee64;}.cls-4{fill:#ee647f;}.cls-5{fill:#f5de5d;}.cls-6{fill:#64eed7;}.cls-7{fill:#be78d1;}.cls-8{fill:#1a1a1a;}.cls-9{fill:#6ace29;}.cls-10{fill:#e0edb4;}.cls-11{fill:#e4a9f6;}.cls-12{fill:#f3caff;}.cls-13{fill:#da98e5;}.cls-14{fill:#9552af;}.cls-15{fill:#ba6bd0;}.cls-16{fill:#af0035;}.cls-17{fill:#ff5574;}.cls-18{fill:#b9dae9;}.cls-19{fill:#8bb0cc;}.cls-20{fill:#ff95a2;}</style></defs><g id="Layer_2" data-name="Layer 2"><g id="Layer_1-2" data-name="Layer 1"><path class="cls-1" d="M624.3,634.19h-1.1c-.29,0-.57.07-.85.12a7.53,7.53,0,0,0-.83.11l-.83.17-.74.16h-.12l-.24.11c-.37.11-.74.24-1.1.38s-.52.2-.77.31-.52.22-.78.35-.49.25-.73.39-.49.27-.73.41l-.7.46-.68.5c-.22.17-.44.34-.65.52s-.42.37-.63.56-.4.39-.59.6-.39.4-.58.61-.36.43-.53.65-.34.45-.51.67l-.47.7c-.15.24-.3.48-.43.72s-.27.49-.4.75l-.36.75c-.11.26-.22.52-.32.78s-.19.53-.28.79-.17.53-.25.81-.14.53-.2.8-.11.55-.16.83-.09.56-.12.83-.08.56-.11.84,0,.56,0,.83V651c0,.27,0,.55,0,.83v.27c0,.27.07.55.12.82s.06.57.11.84.11.56.18.84.1.5.16.75v.11c0,.08.07.16.11.25.11.37.23.73.37,1.09s.2.53.31.79.22.51.34.76.25.5.39.74l.41.73c.15.24.31.47.47.71s.31.45.48.68.34.44.52.65.37.42.57.63l.59.59c.2.2.41.39.62.57l.64.54.68.5c.22.17.46.32.69.48l.72.43c.24.14.49.27.74.39l.76.38.77.31.8.29.81.24.82.21.81.15.83.13.83.11h2.27l.85-.11.83-.11.82-.18.75-.16h.11l.25-.11c.37-.11.74-.24,1.11-.37l.77-.31.77-.35.74-.39.73-.42c.24-.15.48-.3.71-.46s.46-.32.68-.49l.65-.53.63-.55.59-.59c.2-.2.39-.4.57-.61s.37-.43.54-.65.34-.44.51-.67l.47-.69c.15-.24.29-.48.43-.72s.27-.5.4-.75.24-.5.35-.75.22-.52.32-.78.2-.53.29-.79.16-.53.24-.8.15-.54.21-.82.11-.55.15-.83.09-.55.13-.83.08-.55.11-.84,0-.55,0-.83V651q0-.42,0-.84a2.26,2.26,0,0,0,0-.26c0-.28-.06-.57-.11-.85s-.07-.56-.11-.83-.11-.55-.18-.83-.1-.5-.16-.75v-.11c0-.09-.07-.17-.11-.25-.11-.37-.23-.73-.37-1.1s-.2-.53-.31-.78-.22-.51-.34-.76-.25-.5-.39-.74-.27-.5-.42-.73-.3-.47-.46-.7-.32-.46-.49-.68-.35-.44-.53-.65-.37-.43-.56-.64l-.59-.6-.62-.57c-.21-.18-.43-.35-.65-.52l-.67-.51-.71-.47-.71-.44-.74-.39-.76-.37-.78-.31c-.26-.11-.52-.2-.78-.29l-.81-.24c-.27-.08-.54-.15-.82-.21l-.82-.16q-.42-.08-.84-.12l-.83-.11h-.84l-.31,0Z"/><path class="cls-1" d="M624.3,634.19h-1.1c-.29,0-.57.07-.85.12a7.53,7.53,0,0,0-.83.11l-.83.17-.74.16h-.12l-.24.11c-.37.11-.74.24-1.1.38s-.52.2-.77.31-.52.22-.78.35-.49.25-.73.39-.49.27-.73.41l-.7.46-.68.5c-.22.17-.44.34-.65.52s-.42.37-.63.56-.4.39-.59.6-.39.4-.58.61-.36.43-.53.65-.34.45-.51.67l-.47.7c-.15.24-.3.48-.43.72s-.27.49-.4.75l-.36.75c-.11.26-.22.52-.32.78s-.19.53-.28.79-.17.53-.25.81-.14.53-.2.8-.11.55-.16.83-.09.56-.12.83-.08.56-.11.84,0,.56,0,.83V651c0,.27,0,.55,0,.83v.27c0,.27.07.55.12.82s.06.57.11.86.11.55.18.83.1.49.16.74v.11c0,.08.07.16.11.25.11.37.23.73.37,1.09s.2.53.31.79.22.51.34.76.25.5.39.74l.41.73c.15.24.31.47.47.71s.31.45.48.68.34.44.52.65.37.42.57.63l.59.59c.2.2.41.39.62.57l.64.54.68.5c.22.17.46.32.69.48l.72.43c.24.14.49.27.74.39l.76.38.77.31.8.29.81.24c.27.07.54.14.82.19a7.73,7.73,0,0,0,.81.16l.83.13.83.11h2.27l.85-.11c.28,0,.55-.07.83-.12l.82-.17.75-.16h.11l.25-.11c.37-.11.74-.23,1.11-.37s.51-.2.77-.32.52-.22.77-.35.5-.25.74-.39.49-.27.73-.41.48-.3.71-.46l.68-.49.65-.53.63-.55c.2-.19.4-.39.59-.6a8.08,8.08,0,0,0,.57-.6c.19-.21.37-.43.54-.65s.34-.44.51-.67l.47-.7c.15-.23.29-.47.43-.72s.27-.49.4-.75.24-.49.35-.75.22-.51.32-.77.2-.53.29-.8.16-.52.24-.79.15-.55.21-.82.11-.55.15-.83.09-.55.13-.83.08-.56.11-.84,0-.55,0-.83V651c0-.29,0-.57,0-.86a2.09,2.09,0,0,0,0-.25c0-.29-.06-.57-.11-.86s-.07-.55-.11-.82-.11-.56-.18-.83-.1-.5-.16-.74v-.11c0-.09-.07-.17-.11-.25-.11-.37-.23-.74-.37-1.1s-.2-.52-.31-.79l-.34-.76c-.12-.25-.25-.49-.39-.74s-.27-.48-.42-.73-.3-.46-.46-.69-.32-.46-.49-.68-.35-.44-.53-.65-.37-.43-.56-.64l-.59-.6-.62-.57-.65-.54c-.22-.17-.44-.34-.67-.5l-.71-.47-.71-.44c-.25-.13-.49-.27-.74-.39l-.76-.37-.78-.32-.78-.29-.81-.23c-.27-.08-.54-.15-.82-.21l-.82-.16-.84-.13-.83-.11H624.3Z"/><path class="cls-1" d="M624.3,634.19h-1.1c-.29,0-.57.07-.85.12a7.53,7.53,0,0,0-.83.11l-.83.17-.74.16h-.12l-.24.11c-.37.11-.74.24-1.1.38s-.52.2-.77.31-.52.22-.78.35-.49.25-.73.39-.49.27-.73.41l-.7.46-.68.5c-.22.17-.44.34-.65.52s-.42.37-.63.56-.4.39-.59.6-.39.4-.58.61-.36.43-.53.65-.34.45-.51.67l-.47.7c-.15.24-.3.48-.43.72s-.27.49-.4.75l-.36.75c-.11.26-.22.52-.32.78s-.19.53-.28.79-.17.53-.25.81-.14.53-.2.8-.11.55-.16.83-.09.56-.12.83-.08.56-.11.84,0,.56,0,.83V651c0,.27,0,.55,0,.83v.27c0,.27.07.55.12.82s.06.57.11.86.11.55.18.83.1.49.16.74v.11c0,.08.07.16.11.25.11.37.23.73.37,1.09s.2.53.31.79.22.51.34.76.25.5.39.74l.41.73c.15.24.31.47.47.71s.31.45.48.68.34.44.52.65.37.42.57.63l.59.59c.2.2.41.39.62.57l.64.54.68.5c.22.17.46.32.69.48l.72.43c.24.14.49.27.74.39l.76.38.77.31.8.29.81.24c.27.07.54.14.82.19a7.73,7.73,0,0,0,.81.16l.83.13.83.11h2.27l.85-.11c.28,0,.55-.07.83-.12l.82-.17.75-.16h.11l.25-.11c.37-.11.74-.23,1.11-.37s.51-.2.77-.32.52-.22.77-.35.5-.25.74-.39.49-.27.73-.41.48-.3.71-.46l.68-.49.65-.53.63-.55c.2-.19.4-.39.59-.6a8.08,8.08,0,0,0,.57-.6c.19-.21.37-.43.54-.65s.34-.44.51-.67l.47-.7c.15-.23.29-.47.43-.72s.27-.49.4-.75.24-.49.35-.75.22-.51.32-.77.2-.53.29-.8.16-.52.24-.79.15-.55.21-.82.11-.55.15-.83.09-.55.13-.83.08-.56.11-.84,0-.55,0-.83V651c0-.29,0-.57,0-.86a2.09,2.09,0,0,0,0-.25c0-.29-.06-.57-.11-.86s-.07-.55-.11-.82-.11-.56-.18-.83-.1-.5-.16-.74v-.11c0-.09-.07-.17-.11-.25-.11-.37-.23-.74-.37-1.1s-.2-.52-.31-.79l-.34-.76c-.12-.25-.25-.49-.39-.74s-.27-.48-.42-.73-.3-.46-.46-.69-.32-.46-.49-.68-.35-.44-.53-.65-.37-.43-.56-.64l-.59-.6-.62-.57-.65-.54c-.22-.17-.44-.34-.67-.5l-.71-.47-.71-.44c-.25-.13-.49-.27-.74-.39l-.76-.37-.78-.32-.78-.29-.81-.23c-.27-.08-.54-.15-.82-.21l-.82-.16-.84-.13-.83-.11H624.3Z"/><path class="cls-1" d="M624.3,634.19h-1.1c-.29,0-.57.07-.85.12a7.53,7.53,0,0,0-.83.11l-.83.17-.74.16h-.12l-.24.11c-.37.11-.74.24-1.1.38s-.52.2-.77.31-.52.22-.78.35-.49.25-.73.39-.49.27-.73.41l-.7.46-.68.5c-.22.17-.44.34-.65.52s-.42.37-.63.56-.4.39-.59.6-.39.4-.58.61-.36.43-.53.65-.34.45-.51.67l-.47.7c-.15.24-.3.48-.43.72s-.27.49-.4.75l-.36.75c-.11.26-.22.52-.32.78s-.19.53-.28.79-.17.53-.25.81-.14.53-.2.8-.11.55-.16.83-.09.56-.12.83-.08.56-.11.84,0,.56,0,.83V651c0,.27,0,.55,0,.83v.27c0,.27.07.55.12.82s.06.57.11.86.11.55.18.83.1.49.16.74v.11c0,.08.07.16.11.25.11.37.23.73.37,1.09s.2.53.31.79.22.51.34.76.25.5.39.74l.41.73c.15.24.31.47.47.71s.31.45.48.68.34.44.52.65.37.42.57.63l.59.59c.2.2.41.39.62.57l.64.54.68.5c.22.17.46.32.69.48l.72.43c.24.14.49.27.74.39l.76.38.77.31.8.29.81.24c.27.07.54.14.82.19a7.73,7.73,0,0,0,.81.16l.83.13.83.11h2.27l.85-.11c.28,0,.55-.07.83-.12l.82-.17.75-.16h.11l.25-.11c.37-.11.74-.23,1.11-.37s.51-.2.77-.32.52-.22.77-.35.5-.25.74-.39.49-.27.73-.41.48-.3.71-.46l.68-.49.65-.53.63-.55c.2-.19.4-.39.59-.6a8.08,8.08,0,0,0,.57-.6c.19-.21.37-.43.54-.65s.34-.44.51-.67l.47-.7c.15-.23.29-.47.43-.72s.27-.49.4-.75.24-.49.35-.75.22-.51.32-.77.2-.53.29-.8.16-.52.24-.79.15-.55.21-.82.11-.55.15-.83.09-.55.13-.83.08-.56.11-.84,0-.55,0-.83V651c0-.29,0-.57,0-.86a2.09,2.09,0,0,0,0-.25c0-.29-.06-.57-.11-.86s-.07-.55-.11-.82-.11-.56-.18-.83-.1-.5-.16-.74v-.11c0-.09-.07-.17-.11-.25-.11-.37-.23-.74-.37-1.1s-.2-.52-.31-.79l-.34-.76c-.12-.25-.25-.49-.39-.74s-.27-.48-.42-.73-.3-.46-.46-.69-.32-.46-.49-.68-.35-.44-.53-.65-.37-.43-.56-.64l-.59-.6-.62-.57-.65-.54c-.22-.17-.44-.34-.67-.5l-.71-.47-.71-.44c-.25-.13-.49-.27-.74-.39l-.76-.37-.78-.32-.78-.29-.81-.23c-.27-.08-.54-.15-.82-.21l-.82-.16-.84-.13-.83-.11H624.3Z"/><path class="cls-1" d="M624.3,634.19h-1.1c-.29,0-.57.07-.85.12a7.53,7.53,0,0,0-.83.11l-.83.17-.74.16h-.12l-.24.11c-.37.11-.74.24-1.1.38s-.52.2-.77.31-.52.22-.78.35-.49.25-.73.39-.49.27-.73.41l-.7.46-.68.5c-.22.17-.44.34-.65.52s-.42.37-.63.56-.4.39-.59.6-.39.4-.58.61-.36.43-.53.65-.34.45-.51.67l-.47.7c-.15.24-.3.48-.43.72s-.27.49-.4.75l-.36.75c-.11.26-.22.52-.32.78s-.19.53-.28.79-.17.53-.25.81-.14.53-.2.8-.11.55-.16.83-.09.56-.12.83-.08.56-.11.84,0,.56,0,.83V651c0,.27,0,.55,0,.83v.27c0,.27.07.55.12.82s.06.57.11.86.11.55.18.83.1.49.16.74v.11c0,.08.07.16.11.25.11.37.23.73.37,1.09s.2.53.31.79.22.51.34.76.25.5.39.74l.41.73c.15.24.31.47.47.71s.31.45.48.68.34.44.52.65.37.42.57.63l.59.59c.2.2.41.39.62.57l.64.54.68.5c.22.17.46.32.69.48l.72.43c.24.14.49.27.74.39l.76.38.77.31.8.29.81.24c.27.07.54.14.82.19a7.73,7.73,0,0,0,.81.16l.83.13.83.11h2.27l.85-.11c.28,0,.55-.07.83-.12l.82-.17.75-.16h.11l.25-.11c.37-.11.74-.23,1.11-.37s.51-.2.77-.32.52-.22.77-.35.5-.25.74-.39.49-.27.73-.41.48-.3.71-.46l.68-.49.65-.53.63-.55c.2-.19.4-.39.59-.6a8.08,8.08,0,0,0,.57-.6c.19-.21.37-.43.54-.65s.34-.44.51-.67l.47-.7c.15-.23.29-.47.43-.72s.27-.49.4-.75.24-.49.35-.75.22-.51.32-.77.2-.53.29-.8.16-.52.24-.79.15-.55.21-.82.11-.55.15-.83.09-.55.13-.83.08-.56.11-.84,0-.55,0-.83V651c0-.29,0-.57,0-.86a2.09,2.09,0,0,0,0-.25c0-.29-.06-.57-.11-.86s-.07-.55-.11-.82-.11-.56-.18-.83-.1-.5-.16-.74v-.11c0-.09-.07-.17-.11-.25-.11-.37-.23-.74-.37-1.1s-.2-.52-.31-.79l-.34-.76c-.12-.25-.25-.49-.39-.74s-.27-.48-.42-.73-.3-.46-.46-.69-.32-.46-.49-.68-.35-.44-.53-.65-.37-.43-.56-.64l-.59-.6-.62-.57-.65-.54c-.22-.17-.44-.34-.67-.5l-.71-.47-.71-.44c-.25-.13-.49-.27-.74-.39l-.76-.37-.78-.32-.78-.29-.81-.23c-.27-.08-.54-.15-.82-.21l-.82-.16-.84-.13-.83-.11H624.3Z"/><path class="cls-1" d="M624.3,634.19h-1.1c-.29,0-.57.07-.85.12a7.53,7.53,0,0,0-.83.11l-.83.17-.74.16h-.12l-.24.11c-.37.11-.74.24-1.1.38s-.52.2-.77.31-.52.22-.78.35-.49.25-.73.39-.49.27-.73.41l-.7.46-.68.5c-.22.17-.44.34-.65.52s-.42.37-.63.56-.4.39-.59.6-.39.4-.58.61-.36.43-.53.65-.34.45-.51.67l-.47.7c-.15.24-.3.48-.43.72s-.27.49-.4.75l-.36.75c-.11.26-.22.52-.32.78s-.19.53-.28.79-.17.53-.25.81-.14.53-.2.8-.11.55-.16.83-.09.56-.12.83-.08.56-.11.84,0,.56,0,.83V651c0,.27,0,.55,0,.83v.27c0,.27.07.55.12.82s.06.57.11.86.11.55.18.83.1.49.16.74v.11c0,.08.07.16.11.25.11.37.23.73.37,1.09s.2.53.31.79.22.51.34.76.25.5.39.74l.41.73c.15.24.31.47.47.71s.31.45.48.68.34.44.52.65.37.42.57.63l.59.59c.2.2.41.39.62.57l.64.54.68.5c.22.17.46.32.69.48l.72.43c.24.14.49.27.74.39l.76.38.77.31.8.29.81.24c.27.07.54.14.82.19a7.73,7.73,0,0,0,.81.16l.83.13.83.11h2.27l.85-.11c.28,0,.55-.07.83-.12l.82-.17.75-.16h.11l.25-.11c.37-.11.74-.23,1.11-.37s.51-.2.77-.32.52-.22.77-.35.5-.25.74-.39.49-.27.73-.41.48-.3.71-.46l.68-.49.65-.53.63-.55c.2-.19.4-.39.59-.6a8.08,8.08,0,0,0,.57-.6c.19-.21.37-.43.54-.65s.34-.44.51-.67l.47-.7c.15-.23.29-.47.43-.72s.27-.49.4-.75.24-.49.35-.75.22-.51.32-.77.2-.53.29-.8.16-.52.24-.79.15-.55.21-.82.11-.55.15-.83.09-.55.13-.83.08-.56.11-.84,0-.55,0-.83V651c0-.29,0-.57,0-.86a2.09,2.09,0,0,0,0-.25c0-.29-.06-.57-.11-.86s-.07-.55-.11-.82-.11-.56-.18-.83-.1-.5-.16-.74v-.11c0-.09-.07-.17-.11-.25-.11-.37-.23-.74-.37-1.1s-.2-.52-.31-.79l-.34-.76c-.12-.25-.25-.49-.39-.74s-.27-.48-.42-.73-.3-.46-.46-.69-.32-.46-.49-.68-.35-.44-.53-.65-.37-.43-.56-.64l-.59-.6-.62-.57-.65-.54c-.22-.17-.44-.34-.67-.5l-.71-.47-.71-.44c-.25-.13-.49-.27-.74-.39l-.76-.37-.78-.32-.78-.29-.81-.23c-.27-.08-.54-.15-.82-.21l-.82-.16-.84-.13-.83-.11H624.3Z"/><path class="cls-1" d="M624.3,634.19h-1.1c-.29,0-.57.07-.85.12a7.53,7.53,0,0,0-.83.11l-.83.17-.74.16h-.12l-.24.11c-.37.11-.74.24-1.1.38s-.52.2-.77.31-.52.22-.78.35-.49.25-.73.39-.49.27-.73.41l-.7.46-.68.5c-.22.17-.44.34-.65.52s-.42.37-.63.56-.4.39-.59.6-.39.4-.58.61-.36.43-.53.65-.34.45-.51.67l-.47.7c-.15.24-.3.48-.43.72s-.27.49-.4.75l-.36.75c-.11.26-.22.52-.32.78s-.19.53-.28.79-.17.53-.25.81-.14.53-.2.8-.11.55-.16.83-.09.56-.12.83-.08.56-.11.84,0,.56,0,.83V651c0,.27,0,.55,0,.83v.27c0,.27.07.55.12.82s.06.57.11.86.11.55.18.83.1.49.16.74v.11c0,.08.07.16.11.25.11.37.23.73.37,1.09s.2.53.31.79.22.51.34.76.25.5.39.74l.41.73c.15.24.31.47.47.71s.31.45.48.68.34.44.52.65.37.42.57.63l.59.59c.2.2.41.39.62.57l.64.54.68.5c.22.17.46.32.69.48l.72.43c.24.14.49.27.74.39l.76.38.77.31.8.29.81.24c.27.07.54.14.82.19a7.73,7.73,0,0,0,.81.16l.83.13.83.11h2.27l.85-.11c.28,0,.55-.07.83-.12l.82-.17.75-.16h.11l.25-.11c.37-.11.74-.23,1.11-.37s.51-.2.77-.32.52-.22.77-.35.5-.25.74-.39.49-.27.73-.41.48-.3.71-.46l.68-.49.65-.53.63-.55c.2-.19.4-.39.59-.6a8.08,8.08,0,0,0,.57-.6c.19-.21.37-.43.54-.65s.34-.44.51-.67l.47-.7c.15-.23.29-.47.43-.72s.27-.49.4-.75.24-.49.35-.75.22-.51.32-.77.2-.53.29-.8.16-.52.24-.79.15-.55.21-.82.11-.55.15-.83.09-.55.13-.83.08-.56.11-.84,0-.55,0-.83V651c0-.29,0-.57,0-.86a2.09,2.09,0,0,0,0-.25c0-.29-.06-.57-.11-.86s-.07-.55-.11-.82-.11-.56-.18-.83-.1-.5-.16-.74v-.11c0-.09-.07-.17-.11-.25-.11-.37-.23-.74-.37-1.1s-.2-.52-.31-.79l-.34-.76c-.12-.25-.25-.49-.39-.74s-.27-.48-.42-.73-.3-.46-.46-.69-.32-.46-.49-.68-.35-.44-.53-.65-.37-.43-.56-.64l-.59-.6-.62-.57-.65-.54c-.22-.17-.44-.34-.67-.5l-.71-.47-.71-.44c-.25-.13-.49-.27-.74-.39l-.76-.37-.78-.32-.78-.29-.81-.23c-.27-.08-.54-.15-.82-.21l-.82-.16-.84-.13-.83-.11H624.3Z"/><path class="cls-1" d="M624.3,634.19h-1.1c-.29,0-.57.07-.85.12a7.53,7.53,0,0,0-.83.11l-.83.17-.74.16h-.12l-.24.11c-.37.11-.74.24-1.1.38s-.52.2-.77.31-.52.22-.78.35-.49.25-.73.39-.49.27-.73.41l-.7.46-.68.5c-.22.17-.44.34-.65.52s-.42.37-.63.56-.4.39-.59.6-.39.4-.58.61-.36.43-.53.65-.34.45-.51.67l-.47.7c-.15.24-.3.48-.43.72s-.27.49-.4.75l-.36.75c-.11.26-.22.52-.32.78s-.19.53-.28.79-.17.53-.25.81-.14.53-.2.8-.11.55-.16.83-.09.56-.12.83-.08.56-.11.84,0,.56,0,.83V651c0,.27,0,.55,0,.83v.27c0,.27.07.55.12.82s.06.57.11.86.11.55.18.83.1.49.16.74v.11c0,.08.07.16.11.25.11.37.23.73.37,1.09s.2.53.31.79.22.51.34.76.25.5.39.74l.41.73c.15.24.31.47.47.71s.31.45.48.68.34.44.52.65.37.42.57.63l.59.59c.2.2.41.39.62.57l.64.54.68.5c.22.17.46.32.69.48l.72.43c.24.14.49.27.74.39l.76.38.77.31.8.29.81.24c.27.07.54.14.82.19a7.73,7.73,0,0,0,.81.16l.83.13.83.11h2.27l.85-.11c.28,0,.55-.07.83-.12l.82-.17.75-.16h.11l.25-.11c.37-.11.74-.23,1.11-.37s.51-.2.77-.32.52-.22.77-.35.5-.25.74-.39.49-.27.73-.41.48-.3.71-.46l.68-.49.65-.53.63-.55c.2-.19.4-.39.59-.6a8.08,8.08,0,0,0,.57-.6c.19-.21.37-.43.54-.65s.34-.44.51-.67l.47-.7c.15-.23.29-.47.43-.72s.27-.49.4-.75.24-.49.35-.75.22-.51.32-.77.2-.53.29-.8.16-.52.24-.79.15-.55.21-.82.11-.55.15-.83.09-.55.13-.83.08-.56.11-.84,0-.55,0-.83V651c0-.29,0-.57,0-.86a2.09,2.09,0,0,0,0-.25c0-.29-.06-.57-.11-.86s-.07-.55-.11-.82-.11-.56-.18-.83-.1-.5-.16-.74v-.11c0-.09-.07-.17-.11-.25-.11-.37-.23-.74-.37-1.1s-.2-.52-.31-.79l-.34-.76c-.12-.25-.25-.49-.39-.74s-.27-.48-.42-.73-.3-.46-.46-.69-.32-.46-.49-.68-.35-.44-.53-.65-.37-.43-.56-.64l-.59-.6-.62-.57-.65-.54c-.22-.17-.44-.34-.67-.5l-.71-.47-.71-.44c-.25-.13-.49-.27-.74-.39l-.76-.37-.78-.32-.78-.29-.81-.23c-.27-.08-.54-.15-.82-.21l-.82-.16-.84-.13-.83-.11H624.3Z"/><path class="cls-1" d="M624.3,634.19h-1.1c-.29,0-.57.07-.85.12a7.53,7.53,0,0,0-.83.11l-.83.17-.74.16h-.12l-.24.11c-.37.11-.74.24-1.1.38s-.52.2-.77.31-.52.22-.78.35-.49.25-.73.39-.49.27-.73.41l-.7.46-.68.5c-.22.17-.44.34-.65.52s-.42.37-.63.56-.4.39-.59.6-.39.4-.58.61-.36.43-.53.65-.34.45-.51.67l-.47.7c-.15.24-.3.48-.43.72s-.27.49-.4.75l-.36.75c-.11.26-.22.52-.32.78s-.19.53-.28.79-.17.53-.25.81-.14.53-.2.8-.11.55-.16.83-.09.56-.12.83-.08.56-.11.84,0,.56,0,.83V651c0,.27,0,.55,0,.83v.27c0,.27.07.55.12.82s.06.57.11.86.11.55.18.83.1.49.16.74v.11c0,.08.07.16.11.25.11.37.23.73.37,1.09s.2.53.31.79.22.51.34.76.25.5.39.74l.41.73c.15.24.31.47.47.71s.31.45.48.68.34.44.52.65.37.42.57.63l.59.59c.2.2.41.39.62.57l.64.54.68.5c.22.17.46.32.69.48l.72.43c.24.14.49.27.74.39l.76.38.77.31.8.29.81.24c.27.07.54.14.82.19a7.73,7.73,0,0,0,.81.16l.83.13.83.11h2.27l.85-.11c.28,0,.55-.07.83-.12l.82-.17.75-.16h.11l.25-.11c.37-.11.74-.23,1.11-.37s.51-.2.77-.32.52-.22.77-.35.5-.25.74-.39.49-.27.73-.41.48-.3.71-.46l.68-.49.65-.53.63-.55c.2-.19.4-.39.59-.6a8.08,8.08,0,0,0,.57-.6c.19-.21.37-.43.54-.65s.34-.44.51-.67l.47-.7c.15-.23.29-.47.43-.72s.27-.49.4-.75.24-.49.35-.75.22-.51.32-.77.2-.53.29-.8.16-.52.24-.79.15-.55.21-.82.11-.55.15-.83.09-.55.13-.83.08-.56.11-.84,0-.55,0-.83V651c0-.29,0-.57,0-.86a2.09,2.09,0,0,0,0-.25c0-.29-.06-.57-.11-.86s-.07-.55-.11-.82-.11-.56-.18-.83-.1-.5-.16-.74v-.11c0-.09-.07-.17-.11-.25-.11-.37-.23-.74-.37-1.1s-.2-.52-.31-.79l-.34-.76c-.12-.25-.25-.49-.39-.74s-.27-.48-.42-.73-.3-.46-.46-.69-.32-.46-.49-.68-.35-.44-.53-.65-.37-.43-.56-.64l-.59-.6-.62-.57-.65-.54c-.22-.17-.44-.34-.67-.5l-.71-.47-.71-.44c-.25-.13-.49-.27-.74-.39l-.76-.37-.78-.32-.78-.29-.81-.23c-.27-.08-.54-.15-.82-.21l-.82-.16-.84-.13-.83-.11H624.3Z"/><path class="cls-1" d="M624.3,634.19h-1.1c-.29,0-.57.07-.85.12a7.53,7.53,0,0,0-.83.11l-.83.17-.74.16h-.12l-.24.11c-.37.11-.74.24-1.1.38s-.52.2-.77.31-.52.22-.78.35-.49.25-.73.39-.49.27-.73.41l-.7.46-.68.5c-.22.17-.44.34-.65.52s-.42.37-.63.56-.4.39-.59.6-.39.4-.58.61-.36.43-.53.65-.34.45-.51.67l-.47.7c-.15.24-.3.48-.43.72s-.27.49-.4.75l-.36.75c-.11.26-.22.52-.32.78s-.19.53-.28.79-.17.53-.25.81-.14.53-.2.8-.11.55-.16.83-.09.56-.12.83-.08.56-.11.84,0,.56,0,.83V651c0,.27,0,.55,0,.83v.27c0,.27.07.55.12.82s.06.57.11.86.11.55.18.83.1.49.16.74v.11c0,.08.07.16.11.25.11.37.23.73.37,1.09s.2.53.31.79.22.51.34.76.25.5.39.74l.41.73c.15.24.31.47.47.71s.31.45.48.68.34.44.52.65.37.42.57.63l.59.59c.2.2.41.39.62.57l.64.54.68.5c.22.17.46.32.69.48l.72.43c.24.14.49.27.74.39l.76.38.77.31.8.29.81.24c.27.07.54.14.82.19a7.73,7.73,0,0,0,.81.16l.83.13.83.11h2.27l.85-.11c.28,0,.55-.07.83-.12l.82-.17.75-.16h.11l.25-.11c.37-.11.74-.23,1.11-.37s.51-.2.77-.32.52-.22.77-.35.5-.25.74-.39.49-.27.73-.41.48-.3.71-.46l.68-.49.65-.53.63-.55c.2-.19.4-.39.59-.6a8.08,8.08,0,0,0,.57-.6c.19-.21.37-.43.54-.65s.34-.44.51-.67l.47-.7c.15-.23.29-.47.43-.72s.27-.49.4-.75.24-.49.35-.75.22-.51.32-.77.2-.53.29-.8.16-.52.24-.79.15-.55.21-.82.11-.55.15-.83.09-.55.13-.83.08-.56.11-.84,0-.55,0-.83V651c0-.29,0-.57,0-.86a2.09,2.09,0,0,0,0-.25c0-.29-.06-.57-.11-.86s-.07-.55-.11-.82-.11-.56-.18-.83-.1-.5-.16-.74v-.11c0-.09-.07-.17-.11-.25-.11-.37-.23-.74-.37-1.1s-.2-.52-.31-.79l-.34-.76c-.12-.25-.25-.49-.39-.74s-.27-.48-.42-.73-.3-.46-.46-.69-.32-.46-.49-.68-.35-.44-.53-.65-.37-.43-.56-.64l-.59-.6-.62-.57-.65-.54c-.22-.17-.44-.34-.67-.5l-.71-.47-.71-.44c-.25-.13-.49-.27-.74-.39l-.76-.37-.78-.32-.78-.29-.81-.23c-.27-.08-.54-.15-.82-.21l-.82-.16-.84-.13-.83-.11H624.3Z"/><path class="cls-2" d="M943,1844.26c0,44-142.67,79.66-318.66,79.66s-318.67-35.67-318.67-79.66c0-21.13,33.58-41.4,93.34-56.33s140.81-23.34,225.33-23.34,165.57,8.39,225.33,23.34,93.33,35.2,93.33,56.33Z"/><path class="cls-3" d="M1055.72,238.17a348,348,0,0,0-36.56,40.13c-8.71,11.34-17.16,24-22.74,37.6s-8.86,29.29-2.3,44.5,22,22.68,35.26,24.72,26.4.82,38.75-.08,23.86-1.49,31.09-.38,8,1.78,9.24,4.61,1.16,3.85-3,9.88-12.48,14-21.61,22.36-19.06,17.1-26.65,28.13-12.78,27.39-6.22,42.6,22,22.68,35.26,24.72,26.4.84,38.75-.07,23.85-1.5,31.09-.39,8,1.78,9.24,4.62,1.21,9-2.52,18.14-10.64,19.91-18.25,29.8A318.62,318.62,0,0,1,1112,604.83l22.94,25a346,346,0,0,0,36.58-40.13c8.71-11.33,17.14-24,22.72-37.6s8.86-29.28,2.3-44.49-22-22.68-35.24-24.72-26.42-.83-38.77.07-23.86,1.49-31.1.38-8-1.76-9.23-4.6-1.16-3.85,3-9.88,12.49-14,21.62-22.35,19.07-17.11,26.66-28.13,12.77-27.4,6.21-42.61-22-22.68-35.25-24.72-26.42-.83-38.76.07-23.86,1.49-31.1.38-8-1.77-9.24-4.6-1.19-9.05,2.54-18.15,10.64-19.91,18.24-29.8a319.72,319.72,0,0,1,32.58-35.77Z"/><path class="cls-4" d="M644.91,405.59C627.87,342,562.05,304,498.45,321l8.79,32.81A85.36,85.36,0,0,1,612.1,414.38Z"/><path class="cls-5" d="M913.26,183.07a119.56,119.56,0,0,0-64.71,64.7l31.38,13a85.62,85.62,0,0,1,46.33-46.33Z"/><path class="cls-6" d="M727.77,44a119.64,119.64,0,0,0,72.6,55.72l8.8-32.81a85.65,85.65,0,0,1-52-39.89Z"/><path class="cls-6" d="M523.12.06a348.36,348.36,0,0,0-54.18,3.33c-14.15,2.07-29,5.27-42.51,11.14s-26.75,14.84-32.64,30.33,0,31.61,8.08,42.3,18.37,19,27.86,26.93,18.16,15.55,22.57,21.38,4.52,6.86,3.42,9.75-1.85,3.57-9,5-18.7,1.35-31.07,1-25.59-1-38.72,1.62-28.26,10.76-34.14,26.24,0,31.61,8.08,42.29,18.37,19,27.85,26.95,18.17,15.54,22.58,21.37,4.52,6.86,3.42,9.75-5.43,7.33-14.45,11.26-21.49,6.87-33.84,8.68a319,319,0,0,1-48.31,3l-1,34a347.09,347.09,0,0,0,54.2-3.31c14.14-2.07,29-5.29,42.49-11.16s26.75-14.83,32.64-30.31,0-31.62-8.07-42.3-18.38-19-27.87-27-18.16-15.54-22.57-21.38-4.52-6.85-3.42-9.74,1.85-3.57,9-5,18.71-1.35,31.08-1,25.61,1,38.73-1.62,28.24-10.76,34.13-26.25,0-31.6-8.07-42.28S461,96,451.54,88.06,433.38,72.51,429,66.67s-4.52-6.85-3.42-9.74S431,49.6,440,45.68s21.5-6.87,33.85-8.68a318.76,318.76,0,0,1,48.29-3Z"/><path class="cls-4" d="M191.25,375.87a348.62,348.62,0,0,0-49.47,22.38c-12.49,6.95-25.26,15.24-35.77,25.51s-19.73,23.39-19.73,40,11.24,29.54,22.58,36.66,23.92,11.21,35.62,15.27,22.5,8.08,28.7,12,6.66,4.8,6.66,7.89-.46,4-6.66,7.89-17,7.9-28.7,12-24.28,8.16-35.62,15.27-22.58,20.1-22.58,36.67S97.52,636.84,108.86,644s23.92,11.22,35.62,15.28,22.5,8.07,28.7,12,6.66,4.8,6.66,7.89-2.47,8.79-9.5,15.66-17.66,14.07-28.56,20.15a320.32,320.32,0,0,1-44.09,19.94l11.15,32.08a346.93,346.93,0,0,0,49.48-22.36c12.48-6.95,25.24-15.25,35.76-25.52s19.73-23.38,19.73-39.95-11.23-29.54-22.57-36.66-23.93-11.22-35.63-15.28-22.5-8.08-28.7-12-6.66-4.79-6.66-7.88.46-4,6.66-7.88,17-7.91,28.7-12,24.29-8.16,35.63-15.28,22.57-20.09,22.57-36.66S202.58,506,191.24,498.85s-23.93-11.22-35.63-15.29-22.5-8.08-28.7-12-6.66-4.79-6.66-7.87,2.48-8.79,9.51-15.67,17.66-14.06,28.56-20.13A318.46,318.46,0,0,1,202.4,408Z"/><path class="cls-3" d="M1003,657.42c-17-63.6-82.86-101.6-146.46-84.56l8.8,32.81A85.36,85.36,0,0,1,970.16,666.2Z"/><path class="cls-5" d="M315.43,130.23C275.35,78,200,68.07,147.76,108.15l20.68,26.95a85.35,85.35,0,0,1,120,15.8Z"/><path class="cls-3" d="M696.25,5.42c-60.83,25.19-89.91,95.41-64.72,156.23l31.38-13A85.35,85.35,0,0,1,709.25,36.8Z"/><path class="cls-3" d="M397.32,624.83c-61.55-23.4-130.87,7.73-154.28,69.27l31.76,12.07a85.35,85.35,0,0,1,110.45-49.59Z"/><path class="cls-4" d="M371.91,431.9a119.57,119.57,0,0,0-64.72,64.71l31.38,13a85.54,85.54,0,0,1,46.34-46.33Z"/><path class="cls-6" d="M707.69,313.91a119.56,119.56,0,0,0-79.25-45.77L624,301.82a85.55,85.55,0,0,1,56.74,32.76Z"/><path class="cls-7" d="M534,1508.37c-21.14,78.9-77.52,184-110,175.32s-28.72-127.91-7.58-206.82,60.11-85.36,84.15-78.93,54.55,31.52,33.41,110.43Z"/><path class="cls-8" d="M504.94,1381.54a69,69,0,0,0-57.22,9.9c-19.85,13.77-36.5,39.17-47.72,81-11.06,41.28-17.39,91.69-16.89,134.34.25,21.32,2.12,40.6,6.69,56.65s12.23,31.93,29.79,36.64,32.14-5.23,44.12-16.84,23.23-27.37,34.11-45.71c21.76-36.69,41.48-83.51,52.54-124.79,11.22-41.86,9.5-72.19-.81-94a68.93,68.93,0,0,0-44.61-37.19Zm-8.79,32.81c8.43,2.26,17,6.84,22.69,18.88s8.64,33.69-1.28,70.74c-10.09,37.63-29.12,82.82-48.95,116.25-9.92,16.71-20.16,30.53-28.54,38.65-6.28,6.09-10.47,7.58-11.61,8.1-.72-1-3.6-4.4-6-12.82-3.19-11.22-5.16-28.31-5.39-47.74-.45-38.87,5.66-87.52,15.74-125.15,9.93-37,23.33-54.32,34.26-61.91s20.65-7.26,29.08-5Z"/><path class="cls-7" d="M827.44,1470.08c-31.27-75.49-70.75-76.8-93.75-67.28s-50,38.37-18.71,113.86a510.81,510.81,0,0,0,29.91,59.75c22.12,38.11,54.53,67.19,104.55,67,24.07-.1,41.59-5,46.12-15.88,5.93-14.31-11.45-36.81-39.44-60-6.43-33.19-16.67-68.42-28.68-97.41Z"/><path class="cls-8" d="M727.2,1387.11a69,69,0,0,1,58,2.35c21.47,11.06,41.3,34.07,57.89,74.12,11.85,28.6,21.7,62.27,28.38,94.77,12.67,10.9,23.39,21.76,31,32.87,8.57,12.45,15.12,27.32,8.7,42.8-4.88,11.8-15.58,18.2-26.16,21.65s-22.42,4.66-35.58,4.72c-56.63.23-95.45-34.36-119.31-75.45a529.73,529.73,0,0,1-30.91-61.78c-16.58-40.05-18.84-70.34-11.47-93.34a69,69,0,0,1,39.38-42.71Zm13,31.39c-8.07,3.34-16,9-20,21.68s-4.18,34.54,10.5,70a496.73,496.73,0,0,0,28.91,57.73C780,1603,806,1626.6,849.37,1626.42c10.91-.07,19.87-1.31,25.2-3.05a16.45,16.45,0,0,0,5.06-2.35c-.24-.9-.84-4.41-5.06-10.54-5.63-8.19-16-18.93-29.29-29.92l-4.67-3.88-1.16-6c-6.22-32.09-16.25-66.49-27.71-94.14-14.67-35.44-30.22-50.83-42-56.92s-21.43-4.5-29.49-1.16Z"/><path class="cls-7" d="M160.21,1149.55C89.46,1108.7,2.51,1027.05,19.32,997.94s131,5.37,201.74,46.22,66.89,80.15,54.45,101.7-44.56,44.53-115.3,3.69Z"/><path class="cls-8" d="M290.22,1154.35a69,69,0,0,0,5.24-57.84c-8.16-22.74-28.38-45.39-65.91-67.06-37-21.37-84.07-40.53-125.39-51.09-20.67-5.27-39.77-8.46-56.45-8.2s-34,3.55-43.1,19.29-3.27,32.39,4.84,47,20.43,29.53,35.33,44.79c29.8,30.51,69.93,61.68,106.93,83,37.53,21.67,67.27,27.85,91,23.55a69,69,0,0,0,47.47-33.46Zm-29.42-17c-4.36,7.56-11,14.65-24.1,17s-34.79-.37-68-19.55c-33.74-19.48-72.46-49.56-99.62-77.36-13.58-13.91-24.28-27.38-29.95-37.57-4.26-7.65-4.62-12.08-4.82-13.31,1.17-.44,5.18-2.34,13.93-2.48,11.67-.18,28.68,2.34,47.51,7.15,37.66,9.62,83.08,28.11,116.82,47.59,33.21,19.18,46.43,36.6,50.92,49.12s1.68,21.83-2.69,29.39Z"/><path class="cls-7" d="M1022.28,1050.55c64.81-49.73,173.53-98.81,194-72.15s-55.08,119-119.89,168.7-99.66,31.13-114.8,11.39-24.1-58.21,40.71-107.94Z"/><path class="cls-8" d="M968.1,1168.83a69,69,0,0,0,51.43,27c24.12,1.16,52.79-8.86,87.18-35.24,33.9-26,69.61-62.16,95.18-96.29,12.78-17.07,23-33.5,29.18-49s9.74-32.78-1.33-47.2-28.68-15.42-45.25-13.5-35.1,7.57-54.9,15.5c-39.59,15.86-83.74,41-117.65,67-34.38,26.38-51.47,51.48-56.59,75.08a69,69,0,0,0,12.75,56.67ZM995,1148.15c-5.31-6.92-9.32-15.79-6.5-28.79s13.65-32,44.08-55.34c30.91-23.72,73.52-48,109.6-62.43,18-7.23,34.58-12,46.17-13.29,8.69-1,12.92.35,14.14.64-.07,1.25.18,5.68-3,13.82-4.3,10.85-13.14,25.6-24.79,41.16-23.3,31.11-57.76,66-88.67,89.7-30.43,23.35-51.58,28.9-64.87,28.26s-20.81-6.81-26.12-13.73Z"/><path class="cls-8" d="M624.32,610.19c-262.87,0-476.56,213.68-476.56,476.55a476.58,476.58,0,0,0,161.36,357.41q2.24,2,4.52,3.93l.11.12.83.71s0,0,.07,0c103.08,89.32,201.67,119.48,297.47,167.63l12.2,6.13,12.21-6.13c95.83-48.17,194.45-78.32,297.57-167.7,1.82-1.56,3.63-3.12,5.43-4.71a476.6,476.6,0,0,0,161.34-357.42c0-257.26-204.8-466.86-459.93-475.71l-.47-.86Zm-.47,54.37h.48c233.49,0,422.19,188.71,422.19,422.2a422.1,422.1,0,0,1-142.94,316.65q-2.45,2.16-4.94,4.29l-.14.12c-90.78,78.68-178.31,107.6-274.17,154.45-95.78-46.81-183.25-75.73-273.94-154.26l-.41-.35q-2.48-2.12-4.91-4.26h0a422.19,422.19,0,0,1-142.95-316.65c0-233.34,188.46-421.93,421.74-422.18Z"/><path class="cls-8" d="M430.75,246.51a59.2,59.2,0,0,0-33.7,7.78C369,270.48,359,307.1,375.6,335l-.74-1.32a1095.26,1095.26,0,0,1,86.95,223.54,1108.8,1108.8,0,0,1-3.28,586.37l-7.41,26.46,113.21,30.34,7.23-25.9A1225.94,1225.94,0,0,0,575,526.93a1248.93,1248.93,0,0,0-96.89-249.86l-.16-.33-.18-.32a58.35,58.35,0,0,0-35.82-28h0a58.86,58.86,0,0,0-11.21-1.87Zm-2.93,54.35h0a3.4,3.4,0,0,1,2.29,1.75A1194.73,1194.73,0,0,1,522.51,541c53.07,198,51.77,401.69,3.09,592.77l-8.2-2.19c48.33-189.81,49.52-392.07-3.09-588.39A1149.47,1149.47,0,0,0,423,308.55l-.35-.67-.39-.65c-1.1-1.85-.66-4.38,1.93-5.88a4.51,4.51,0,0,1,3.6-.5Z"/><path class="cls-8" d="M801.86,246.51a58.35,58.35,0,0,0-47,29.92l-.18.32-.16.32A1249,1249,0,0,0,657.6,526.94a1225.9,1225.9,0,0,0,3.45,647.59l7.24,25.9L781.5,1170.1l-7.42-26.46a1108.8,1108.8,0,0,1-3.28-586.37,1095.84,1095.84,0,0,1,87-223.54l-.73,1.32c16.63-27.94,6.58-64.57-21.45-80.76h0a59.25,59.25,0,0,0-33.71-7.78Zm2.94,54.35a4.48,4.48,0,0,1,3.59.5c2.59,1.5,3,4,1.93,5.88l-.39.65-.35.67A1150,1150,0,0,0,718.3,543.2c-52.6,196.32-51.42,398.58-3.09,588.39l-8.19,2.19C658.33,942.7,657,739,710.1,541a1195.37,1195.37,0,0,1,92.38-238.39,3.4,3.4,0,0,1,2.28-1.75h0Z"/><path class="cls-8" d="M677.23,152.35A58.6,58.6,0,0,0,628.9,189l-.13.34-.12.34a1248.52,1248.52,0,0,0-63.44,260.38,1226,1226,0,0,0,113,696.49l8.56,17.62L810.12,1148l-17.43-34.25a1109.05,1109.05,0,0,1-111.3-648.33,1095.21,1095.21,0,0,1,57-233l-.55,1.41c12.85-29.88-1.91-64.89-31.82-77.27a59.23,59.23,0,0,0-28.81-4.2Zm5.7,54.05h0a4.56,4.56,0,0,1,2.31.36h0c2.77,1.15,3.54,3.6,2.68,5.58l-.3.69-.25.72a1149.09,1149.09,0,0,0-59.88,244.54A1163.35,1163.35,0,0,0,727.57,1104l-8.71,1.15a1171.31,1171.31,0,0,1-99.78-648A1194.81,1194.81,0,0,1,679.56,208.8a3.76,3.76,0,0,1,3.37-2.4Z"/><path class="cls-9" d="M454,289.54A1221.61,1221.61,0,0,1,548.76,534a1198.69,1198.69,0,0,1-3.37,633.26L484.69,1151a1135.91,1135.91,0,0,0,3.37-600.73,1122.43,1122.43,0,0,0-89.12-229.09c-8.86-14.89-3.62-34.47,11.7-43.32a31.84,31.84,0,0,1,24.25-3.2A30.82,30.82,0,0,1,454,289.54Z"/><path class="cls-10" d="M558.13,571.4a529.88,529.88,0,0,0-61.86,11.51A1136,1136,0,0,1,484.69,1151l60.7,16.26A1198.65,1198.65,0,0,0,558.13,571.4Z"/><path class="cls-8" d="M421.83,267a38.63,38.63,0,0,0-14.59,4.9c-18.49,10.68-24.94,34.52-14.13,52.68l-.19-.33A1115.43,1115.43,0,0,1,481.5,552a1129.18,1129.18,0,0,1-3.35,597.14l-1.85,6.62,73.82,19.77,1.81-6.47a1205.38,1205.38,0,0,0,3.39-636.84A1228.5,1228.5,0,0,0,460,286.43l0-.08-.05-.08a37.65,37.65,0,0,0-23.28-18.2h0a38.66,38.66,0,0,0-14.82-1Zm1.7,13.47a24.72,24.72,0,0,1,9.59.68h0A23.93,23.93,0,0,1,448,292.8,1215.46,1215.46,0,0,1,542.2,535.73a1191.6,1191.6,0,0,1-1.76,623.13l-47.57-12.74a1142.59,1142.59,0,0,0,1.76-597.65A1129.28,1129.28,0,0,0,405,318l-.08-.17-.1-.17c-6.93-11.63-2.88-27,9.26-34a25.16,25.16,0,0,1,9.49-3.21Z"/><path class="cls-9" d="M778.64,289.54A1222.25,1222.25,0,0,0,683.85,534a1198.55,1198.55,0,0,0,3.38,633.25L747.92,1151a1136,1136,0,0,1-3.37-600.73,1123,1123,0,0,1,89.12-229.09c8.87-14.89,3.62-34.48-11.69-43.32a31.84,31.84,0,0,0-24.25-3.2,30.79,30.79,0,0,0-19.09,14.92Z"/><path class="cls-10" d="M674.89,569.69a1198.51,1198.51,0,0,0,12.34,597.53L747.92,1151A1136,1136,0,0,1,737.19,579.4a532.85,532.85,0,0,0-62.3-9.71Z"/><path class="cls-8" d="M810.78,267a38.59,38.59,0,0,0-14.81,1,37.71,37.71,0,0,0-23.29,18.21l0,.07,0,.08a1229,1229,0,0,0-95.31,245.79,1205.48,1205.48,0,0,0,3.4,636.84l1.8,6.47,73.82-19.78-1.85-6.61A1129.18,1129.18,0,0,1,751.12,552a1115.71,1115.71,0,0,1,88.57-227.71l-.18.34c10.81-18.16,4.36-42-14.13-52.68a38.87,38.87,0,0,0-14.6-4.91Zm-1.7,13.47a25.12,25.12,0,0,1,9.5,3.2,24.73,24.73,0,0,1,9.25,34l-.1.16-.08.17A1129.47,1129.47,0,0,0,738,548.47a1142.59,1142.59,0,0,0,1.75,597.65l-47.57,12.75a1191.53,1191.53,0,0,1-1.75-623.14A1215.46,1215.46,0,0,1,784.6,292.8a24,24,0,0,1,14.89-11.61h0a24.73,24.73,0,0,1,9.59-.67Z"/><path class="cls-9" d="M680.09,179.38a31.16,31.16,0,0,0-25.88,19.55,1221.86,1221.86,0,0,0-62.07,254.71A1198.85,1198.85,0,0,0,702.61,1134.7l65.86-8.67a1136.33,1136.33,0,0,1-114-664.19A1122.71,1122.71,0,0,1,712.9,223.08c6.85-15.93-.91-34.66-17.25-41.43a31.88,31.88,0,0,0-15.56-2.27Z"/><path class="cls-10" d="M624.31,567.26q-20.88,0-41.72,1.64a1199.17,1199.17,0,0,0,120,565.8l65.86-8.67a1136.64,1136.64,0,0,1-123-558.32q-10.59-.42-21.19-.42Z"/><path class="cls-8" d="M679.37,172.62a38,38,0,0,0-31.48,23.83l0,.08,0,.09A1229,1229,0,0,0,585.4,452.75a1205.69,1205.69,0,0,0,111.1,684.91l2.14,4.41,80.24-10.56-4.36-8.57A1129.6,1129.6,0,0,1,661.18,462.71a1115.36,1115.36,0,0,1,58.1-237.3l-.14.35c8.35-19.42-1.15-42.22-20.88-50.39a38.75,38.75,0,0,0-18.89-2.76Zm1.43,13.52a24.89,24.89,0,0,1,12.25,1.79c13,5.36,19,20,13.62,32.46l-.08.18-.06.18A1128.87,1128.87,0,0,0,647.71,461a1143,1143,0,0,0,110.53,659.58l-51.57,6.79A1192,1192,0,0,1,598.88,454.53a1214.52,1214.52,0,0,1,61.68-253.16,24.26,24.26,0,0,1,20.24-15.23Z"/><path class="cls-11" d="M1073.69,1086.74A449.38,449.38,0,1,1,942.07,769a449.37,449.37,0,0,1,131.62,317.75Z"/><path class="cls-7" d="M624.32,637.37A449.36,449.36,0,0,0,204,1245.65c86.28-27.72,225.88-17.77,400.29,86.92,109.44,65.68,232.62,88.23,361,46.9a449.37,449.37,0,0,0-341-742.08Z"/><path class="cls-12" d="M547,656.12a438.19,438.19,0,0,0-67.61,5.25,449.38,449.38,0,0,0-276.7,580.84C277.77,1351.75,407.57,1418,547,1418c108.37,0,212.3-40.14,288.92-111.58S955.6,1138.11,955.6,1037.08s-43-197.93-119.67-269.37S655.37,656.12,547,656.12Z"/><path class="cls-13" d="M547,656.12a437.83,437.83,0,0,0-67.59,5.25,449.38,449.38,0,0,0-276.72,580.84c.73,1.06,1.47,2.11,2.21,3.16,86.35-27.36,225.57-17.13,399.37,87.2,36.51,21.91,74.56,39,113.81,50.53,140.21-60.36,237.52-192.58,237.52-346,0-210.4-182.93-381-408.6-381Z"/><path class="cls-11" d="M327.09,1423.77C427.9,1513.09,524.28,1542,624.32,1592.28c100-50.28,196.42-79.19,297.23-168.51L624.32,1452.5Z"/><path class="cls-1" d="M624.31,1452.44a75.26,75.26,0,0,0-69,45.33,75.23,75.23,0,0,0-101.48,13.37c56.66,30.36,113,52.24,170.54,81.16,57.55-28.92,113.88-50.8,170.54-81.16a75.24,75.24,0,0,0-101.49-13.37,75.28,75.28,0,0,0-69.06-45.33Z"/><path class="cls-12" d="M624.32,1004.56a10.19,10.19,0,0,0,0,20.38,1264.82,1264.82,0,0,1,254.12,25.79,10.19,10.19,0,1,0,4.1-20,1285,1285,0,0,0-258.22-26.21Z"/><path class="cls-12" d="M624.32,1152.81a1136.88,1136.88,0,0,0-270.51,32.65,10.19,10.19,0,0,0,4.85,19.79,1117,1117,0,0,1,265.66-32.06,10.19,10.19,0,0,0,0-20.38Z"/><path class="cls-11" d="M553.78,1324.24l-.66,0A968.61,968.61,0,0,0,343,1363.43a10.19,10.19,0,0,0,5.92,19.51,947.86,947.86,0,0,1,205.75-38.34,10.19,10.19,0,0,0-.84-20.35Z"/><path class="cls-14" d="M623.46,637.37A449.38,449.38,0,0,0,205,925.17c88.49-88.49,265.44-86,416.92,9.18,121.53,76.39,283.56,84.92,429.58,12.9A449.36,449.36,0,0,0,624.32,637.37Z"/><path class="cls-15" d="M547,656.12a438.19,438.19,0,0,0-67.61,5.25A449.41,449.41,0,0,0,205,925.17c88.49-88.49,265.44-86,416.93,9.18,94.3,59.27,213,77.68,329.66,49.3C923.71,798.55,753.21,656.12,547,656.12Z"/><path class="cls-12" d="M385.64,712.49c-3.51,0-7,.11-10.54.31A449.47,449.47,0,0,0,201,936a188.21,188.21,0,0,0,373.1-35.25c0-104-84.26-188.22-188.21-188.22Z"/><path class="cls-13" d="M385.64,712.49c-3.5,0-7,.11-10.51.31A448.94,448.94,0,0,0,205,925.17c79.29-79.29,229.59-85.54,369-17.49.08-2.32.14-4.64.14-7,0-104-84.26-188.22-188.21-188.22Z"/><path class="cls-8" d="M624.32,630.57c-251.86,0-456.17,204.31-456.17,456.17A456.14,456.14,0,0,0,322.6,1428.87c1.68,1.48,3.37,3,5.07,4.41l.05.06.21.18c99.95,86.62,195.67,115.77,293.34,164.86l3.05,1.53,3.06-1.53c97.68-49.1,193.41-78.26,293.37-164.89,1.78-1.52,3.54-3,5.3-4.6a456.17,456.17,0,0,0,154.44-342.13c0-250.35-201.93-453.52-451.71-455.94l-.12-.25Zm-.47,13.61h.47c244.51,0,442.59,198.07,442.59,442.58a442.55,442.55,0,0,1-149.85,331.93c-1.71,1.52-3.43,3-5.17,4.5l0,0h0C815,1507.15,722.11,1536,624.33,1584.8c-97.73-48.75-190.59-77.62-287.36-161.44,0,0,0,0,0,0l-.22-.2q-2.58-2.21-5.14-4.46h0a442.63,442.63,0,0,1-149.85-332c0-244.35,197.83-442.3,442.12-442.55Z"/><path class="cls-14" d="M808.1,883.28a10.19,10.19,0,0,0-1.28,20.3,1398.19,1398.19,0,0,1,179.39,35.67,10.19,10.19,0,1,0,5.27-19.68,1417.47,1417.47,0,0,0-182-36.2,10.81,10.81,0,0,0-1.39-.09Z"/><path class="cls-13" d="M654.43,769.07a1520.46,1520.46,0,0,0-228.65,12.71A10.19,10.19,0,0,0,428.44,802a1499.48,1499.48,0,0,1,300.92-9.15,10.19,10.19,0,1,0,1.42-20.34q-38.14-2.67-76.35-3.43Z"/><path class="cls-7" d="M896.14,1261.44a44.93,44.93,0,1,1-44.92-44.93,44.92,44.92,0,0,1,44.92,44.93Z"/><path class="cls-7" d="M735.59,1250.39a23.58,23.58,0,1,1-6.9-16.66,23.6,23.6,0,0,1,6.9,16.66Z"/><path class="cls-8" d="M479.91,885.75a69.83,69.83,0,0,0-70,70v57.82h140V955.74a69.83,69.83,0,0,0-70-70Z"/><path class="cls-1" d="M520.65,935.93A22.57,22.57,0,1,1,514,920a22.59,22.59,0,0,1,6.61,16Z"/><path class="cls-8" d="M768.72,885.75a69.83,69.83,0,0,0-70,70v57.82h140V955.74a69.84,69.84,0,0,0-70-70Z"/><path class="cls-1" d="M809.46,935.93a22.59,22.59,0,1,1-6.62-16,22.59,22.59,0,0,1,6.62,16Z"/><path class="cls-16" d="M467,1095.24a32.73,32.73,0,0,0-32.8,32.8v37c0,105,85.1,190.08,190.08,190.08s190.07-85.1,190.07-190.08v-37a32.73,32.73,0,0,0-32.8-32.8Z"/><path class="cls-17" d="M624.32,1224.92A189.62,189.62,0,0,0,481.11,1290a190.08,190.08,0,0,0,286.41,0,189.58,189.58,0,0,0-143.2-65.11Z"/><path class="cls-1" d="M467,1095.24a32.73,32.73,0,0,0-32.8,32.8v33a437.79,437.79,0,0,0,380.15.13V1128a32.73,32.73,0,0,0-32.8-32.8Z"/><path class="cls-18" d="M467,1095.24a32.73,32.73,0,0,0-32.8,32.8v33A442.22,442.22,0,0,0,500.66,1186c-13-8.74-15.44-20.86-15.44-39.9v-50.87Z"/><path class="cls-18" d="M712.44,1095.24v50.87c0,25.66-6.57,47.87-28.63,53.78a442.43,442.43,0,0,0,130.58-38.69V1128a32.73,32.73,0,0,0-32.8-32.8Z"/><path class="cls-19" d="M781.59,1095.24a32.73,32.73,0,0,1,32.8,32.8v33A442.22,442.22,0,0,1,748,1186c13-8.74,15.44-20.86,15.44-39.9v-50.87Z"/><path class="cls-8" d="M467,1088.45A39.66,39.66,0,0,0,427.45,1128v37c0,108.64,88.22,196.86,196.87,196.86s196.87-88.22,196.87-196.86v-37a39.66,39.66,0,0,0-39.6-39.59Zm0,13.58H781.59a25.81,25.81,0,0,1,26,26v37a183.29,183.29,0,0,1-366.57,0v-37a25.81,25.81,0,0,1,26-26Z"/><path class="cls-8" d="M431.69,1156.68l-3,6.11a446.22,446.22,0,0,0,391.21,0l-3-6.11a439.38,439.38,0,0,1-385.25,0Z"/><path class="cls-20" d="M603.29,1276.14c0,5.9-3.33,11.56-9.26,15.74s-14,6.52-22.35,6.52-16.42-2.35-22.35-6.52-9.26-9.84-9.26-15.74,3.33-11.57,9.26-15.74,14-6.52,22.35-6.52,16.42,2.34,22.35,6.52,9.26,9.83,9.26,15.74Z"/></g></g></svg>